<svg width="5" height="17" viewBox="0 0 5 17" fill="none" xmlns="http://www.w3.org/2000/svg">
<path d="M4.99964 3.10101C4.99964 1.83851 3.97619 0.815053 2.71369 0.815053C1.45119 0.815053 0.427734 1.83851 0.427734 3.10101C0.427734 4.36351 1.45119 5.38696 2.71369 5.38696C3.97619 5.38696 4.99964 4.36351 4.99964 3.10101Z" fill="#939393"/>
<path d="M4.99964 8.81487C4.99964 7.55238 3.97619 6.52892 2.71369 6.52892C1.45119 6.52892 0.427734 7.55238 0.427734 8.81487C0.427734 10.0774 1.45119 11.1008 2.71369 11.1008C3.97619 11.1008 4.99964 10.0774 4.99964 8.81487Z" fill="#939393"/>
<path d="M4.99964 14.529C4.99964 13.2665 3.97619 12.243 2.71369 12.243C1.45119 12.243 0.427734 13.2665 0.427734 14.529C0.427734 15.7915 1.45119 16.8149 2.71369 16.8149C3.97619 16.8149 4.99964 15.7915 4.99964 14.529Z" fill="#939393"/>
</svg>
