<svg width="25" height="24" viewBox="0 0 25 24" fill="none" xmlns="http://www.w3.org/2000/svg">
<path d="M12.2207 0C5.6087 0 0.220703 5.388 0.220703 12C0.220703 18.612 5.6087 24 12.2207 24C18.8327 24 24.2207 18.612 24.2207 12C24.2207 5.388 18.8327 0 12.2207 0ZM17.0207 12.9H13.1207V16.8C13.1207 17.292 12.7127 17.7 12.2207 17.7C11.7287 17.7 11.3207 17.292 11.3207 16.8V12.9H7.4207C6.9287 12.9 6.5207 12.492 6.5207 12C6.5207 11.508 6.9287 11.1 7.4207 11.1H11.3207V7.2C11.3207 6.708 11.7287 6.3 12.2207 6.3C12.7127 6.3 13.1207 6.708 13.1207 7.2V11.1H17.0207C17.5127 11.1 17.9207 11.508 17.9207 12C17.9207 12.492 17.5127 12.9 17.0207 12.9Z" fill="white"/>
</svg>
