<svg width="52" height="26" viewBox="0 0 52 26" fill="none" xmlns="http://www.w3.org/2000/svg">
<g filter="url(#filter0_d_714_135915)">
<path d="M38.002 21.8149C43.5248 21.8149 48.002 17.3378 48.002 11.8149C48.002 6.29209 43.5248 1.81494 38.002 1.81494C32.4791 1.81494 28.002 6.29209 28.002 11.8149C28.002 17.3378 32.4791 21.8149 38.002 21.8149Z" fill="url(#paint0_linear_714_135915)"/>
<mask id="mask0_714_135915" style="mask-type:luminance" maskUnits="userSpaceOnUse" x="28" y="1" width="20" height="21">
<path d="M38 21.8149C43.5228 21.8149 48 17.3378 48 11.8149C48 6.29209 43.5228 1.81494 38 1.81494C32.4772 1.81494 28 6.29209 28 11.8149C28 17.3378 32.4772 21.8149 38 21.8149Z" fill="white"/>
</mask>
<g mask="url(#mask0_714_135915)">
<path style="mix-blend-mode:screen" opacity="0.9" d="M29.9696 16.0987C28.9644 14.1673 28.6763 11.9422 29.1561 9.81849C29.636 7.69474 30.8528 5.80972 32.5906 4.49808C34.3285 3.18644 36.4749 2.53302 38.6489 2.65384C40.8228 2.77466 42.8836 3.6619 44.4654 5.15803C41.1935 5.17849 38.0156 6.25422 35.4039 8.22535C32.7923 10.1965 30.8863 12.9578 29.9696 16.0987Z" fill="url(#paint1_linear_714_135915)"/>
<path style="mix-blend-mode:screen" d="M46.5862 7.57615C45.288 5.46535 43.2268 3.93562 40.8304 3.30452C38.4341 2.67342 35.8867 2.98946 33.7173 4.18704C31.5478 5.38461 29.9229 7.37171 29.1799 9.73576C28.437 12.0998 28.633 14.6592 29.7274 16.8825C29.0443 15.7718 28.5936 14.534 28.4027 13.2441C28.2118 11.9542 28.2846 10.639 28.6167 9.37809C28.9487 8.11714 29.5333 6.93669 30.3348 5.90815C31.1363 4.87961 32.138 4.02438 33.2796 3.39422C34.4212 2.76406 35.6788 2.37205 36.9763 2.24195C38.2737 2.11184 39.584 2.24636 40.828 2.6373C42.0719 3.02825 43.2236 3.66753 44.2133 4.51645C45.2031 5.36536 46.0103 6.40625 46.5862 7.57615Z" fill="url(#paint2_linear_714_135915)"/>
</g>
<path d="M33.8526 11.0322C33.2217 11.0514 32.6199 11.3023 32.1622 11.7369C31.7045 12.1715 31.4229 12.7594 31.3711 13.3884C31.7573 13.5775 32.1831 13.6717 32.613 13.6635C33.0429 13.6553 33.4648 13.5447 33.8435 13.341C33.9145 13.2948 34.2822 13.0805 34.5202 13.3771C35.0356 14.0211 34.1571 14.3922 33.7815 14.5456C33.5356 14.6483 33.7442 14.7892 33.7622 14.7937C34.4245 14.8147 35.084 14.8902 35.7339 15.0193C35.915 15.0892 36.0737 15.207 36.1929 15.3602C36.3121 15.5134 36.3874 15.6962 36.4106 15.8889C36.393 16.3257 36.2342 16.745 35.958 17.0838C35.6818 17.4227 35.3031 17.6627 34.8789 17.7681C34.141 17.8708 33.3895 17.7432 32.7269 17.4026C33.3972 18.124 34.105 18.8095 34.8473 19.4565C35.4485 19.972 35.497 20.0137 35.9752 20.3972C36.7176 20.0185 37.4809 19.6822 38.2615 19.39C38.076 19.1633 37.9575 18.8894 37.9195 18.599C37.8814 18.3087 37.9252 18.0134 38.046 17.7466C38.1039 17.6842 38.1736 17.6338 38.251 17.5984C38.3284 17.563 38.4121 17.5432 38.4972 17.5402C39.0705 17.5245 39.6344 17.3913 40.1541 17.1488C39.0036 17.2954 38.6969 16.7451 38.9247 16.4721C39.1243 16.2274 39.6973 16.2398 39.9725 16.2815C40.4946 16.3691 41.0288 16.3557 41.5459 16.242C42.3073 13.8068 39.7819 11.8804 37.3873 13.0715C37.0506 13.3717 36.628 13.5584 36.1793 13.605C35.7306 13.6516 35.2786 13.5558 34.8874 13.3312C34.4962 13.1066 34.1856 12.7645 33.9996 12.3535C33.8137 11.9425 33.7618 11.4834 33.8513 11.0412" fill="url(#paint3_linear_714_135915)"/>
<path d="M30.5221 12.1273C28.8833 13.4537 30.9857 17.4714 34.1179 17.7951C36.0353 17.9936 36.817 16.1585 36.2023 15.3678C36.1021 15.2367 35.9725 15.1308 35.8241 15.0587C35.6756 14.9867 35.5123 14.9504 35.3473 14.9527C34.817 14.9492 34.2883 14.8957 33.7682 14.7926C33.7476 14.7874 33.7287 14.7773 33.713 14.7631C33.6972 14.7489 33.6852 14.731 33.678 14.7111C33.6707 14.6912 33.6686 14.6698 33.6715 14.6488C33.6745 14.6278 33.6825 14.6078 33.6949 14.5907C33.9453 14.3335 34.3863 14.3945 34.5882 14.055C34.6492 13.9321 34.6697 13.793 34.6466 13.6578C34.6235 13.5226 34.558 13.3982 34.4596 13.3026C34.2194 13.0996 33.8472 13.341 33.8314 13.3511C33.5447 13.5393 33.2179 13.6574 32.8772 13.696C32.5365 13.7346 32.1915 13.6927 31.8701 13.5735C31.5486 13.4543 31.2596 13.2612 31.0265 13.0098C30.7933 12.7584 30.6225 12.4557 30.5278 12.1262" fill="url(#paint4_linear_714_135915)"/>
<path d="M45.5966 11.9741C45.0327 14.054 42.9201 16.7632 39.9751 16.2759C39.5364 16.2037 38.7593 16.2658 38.8631 16.7451C38.9341 17.0711 39.5399 17.2583 40.1647 17.1455C39.6431 17.3911 39.0762 17.5259 38.4998 17.5414C38.3875 17.5445 38.278 17.5774 38.1826 17.6369C38.0873 17.6964 38.0095 17.7802 37.9574 17.8798C37.8717 18.0512 37.7385 19.4386 38.8518 19.7566C40.3586 20.1852 42.6866 18.5644 43.8574 17.2752C46.27 14.6224 45.9699 12.529 45.7669 12.1535C45.7321 12.0767 45.672 12.0142 45.5966 11.9763" fill="url(#paint5_linear_714_135915)"/>
<path d="M40.5111 9.57397H35.6328C35.9341 9.92636 36.3081 10.2093 36.7292 10.4033C37.1502 10.5973 37.6083 10.6977 38.0719 10.6977C38.5355 10.6977 38.9936 10.5973 39.4147 10.4033C39.8358 10.2093 40.2098 9.92636 40.5111 9.57397Z" fill="url(#paint6_linear_714_135915)"/>
<path d="M34.6878 6.24658C33.5193 6.3199 32.9857 8.08843 33.7053 8.66479C34.4249 9.24115 35.5912 8.23169 35.4694 7.10717C35.473 6.89123 35.394 6.68206 35.2488 6.52219C35.1036 6.36232 34.9031 6.26376 34.6878 6.24658Z" fill="#27304E"/>
<path d="M41.1667 6.24658C40.1516 6.31087 40.1201 7.80986 40.8995 8.51705C41.028 8.67385 41.2055 8.78279 41.4035 8.82629C41.6015 8.8698 41.8084 8.84531 41.9909 8.75683C42.1733 8.66835 42.3207 8.52103 42.4092 8.33858C42.4976 8.15614 42.522 7.94921 42.4784 7.75119C42.4664 7.38753 42.3292 7.03916 42.09 6.765C41.8508 6.49083 41.5254 6.30772 41.1667 6.24658Z" fill="#27304E"/>
<path d="M35.9949 4.60767C34.1192 4.65842 33.1379 5.53256 33.4526 5.83033C33.477 5.84931 33.5055 5.86251 33.5357 5.86895C33.566 5.8754 33.5974 5.87492 33.6274 5.86754C33.6924 5.8525 33.7533 5.82323 33.8056 5.78183C34.1097 5.5791 34.4473 5.43169 34.8027 5.34644C35.2292 5.24133 35.6695 5.20327 36.1077 5.23364C36.1527 5.238 36.1982 5.23421 36.2419 5.22239C36.3255 5.201 36.3997 5.15256 36.453 5.08464C36.5062 5.01671 36.5355 4.93309 36.5363 4.84679C36.5239 4.60203 36.3243 4.60429 35.9949 4.6088" fill="#D97700"/>
<path d="M39.876 4.60767C38.9488 4.60767 39.4439 5.12199 39.4496 5.12763C39.4972 5.17218 39.5549 5.20465 39.6177 5.22235C39.6613 5.23437 39.7069 5.23821 39.7519 5.23364C40.1313 5.21023 40.5122 5.23486 40.8855 5.30696C41.3042 5.3854 41.703 5.54684 42.0584 5.7818C42.1145 5.82641 42.1808 5.85661 42.2513 5.86978C42.2788 5.87706 42.3078 5.87743 42.3355 5.87088C42.3633 5.86433 42.389 5.85106 42.4104 5.83222C42.4318 5.81339 42.4482 5.78956 42.4582 5.76287C42.4682 5.73617 42.4716 5.70742 42.4679 5.67915C42.4442 5.1637 41.1359 4.62346 39.8738 4.60767" fill="#D97700"/>
</g>
<g filter="url(#filter1_d_714_135915)">
<path d="M24.7753 21.7992C30.2938 21.7992 34.7674 17.3255 34.7674 11.807C34.7674 6.28856 30.2938 1.81494 24.7753 1.81494C19.2568 1.81494 14.7832 6.28856 14.7832 11.807C14.7832 17.3255 19.2568 21.7992 24.7753 21.7992Z" fill="url(#paint7_linear_714_135915)"/>
<path d="M22.0457 17.2738C22.0886 17.629 21.9566 17.8185 21.6419 17.8535H19.7595C19.6025 17.8243 19.4555 17.7559 19.3322 17.6545C19.209 17.5531 19.1134 17.4221 19.0545 17.2738C18.3081 15.5502 17.9304 13.6895 17.9458 11.8113C17.9458 11.5143 17.9545 11.2207 17.9718 10.9304C18.0327 10.4793 18.2255 10.2368 18.5616 10.1917H20.893C20.9838 10.1969 21.0726 10.2203 21.1541 10.2606C21.2356 10.3009 21.3082 10.3572 21.3675 10.4262C21.4267 10.4951 21.4715 10.5753 21.4991 10.6619C21.5267 10.7486 21.5365 10.8399 21.528 10.9304C21.5197 11.2207 21.5156 11.5143 21.5156 11.8113C21.5037 13.6455 21.6821 15.476 22.0457 17.2738Z" fill="url(#paint8_linear_714_135915)"/>
<path d="M32.1853 12.5195C32.1576 12.7881 32.0437 13.0405 31.8608 13.2391C31.6779 13.4377 31.4356 13.5719 31.1702 13.6215H31.037C31.4126 13.6734 31.5671 13.9463 31.5085 14.455L31.4893 14.5532C31.2919 15.2615 30.9254 15.6393 30.3671 15.7093H29.9306C30.2791 15.7532 30.3986 15.9845 30.2971 16.4131L30.2396 16.5856C30.1648 16.8285 30.0226 17.0451 29.8296 17.2102C29.6365 17.3753 29.4005 17.4822 29.149 17.5184H24.0858C23.7474 17.5083 23.7383 17.5004 23.0199 17.1135C22.892 17.0453 22.7819 16.948 22.6985 16.8294C22.6151 16.7109 22.5607 16.5745 22.5395 16.4311C22.3449 14.8993 22.2495 13.3565 22.2541 11.8124C22.2541 11.756 22.2541 11.6999 22.2541 11.6443C22.2565 11.4737 22.3012 11.3063 22.384 11.1572C22.4669 11.008 22.5854 10.8816 22.7289 10.7893C22.9207 10.6168 22.9206 10.6168 24.7106 7.45075C24.9682 6.98889 25.1295 6.47962 25.1848 5.95368C25.24 5.42774 25.1881 4.89603 25.0321 4.39073C25.0377 4.22944 25.0591 4.16517 25.2576 4.12231C27.2721 4.68627 27.1819 6.18523 27.0624 8.07673C27.0574 8.16837 27.0707 8.2601 27.1015 8.34655C27.1323 8.433 27.1799 8.51245 27.2418 8.58027C27.3036 8.64809 27.3783 8.70292 27.4615 8.74157C27.5448 8.78021 27.635 8.80189 27.7267 8.80535H31.1239C32.1131 8.93957 32.1706 10.4611 31.5875 10.9213C31.5027 10.9802 31.4124 11.0308 31.3179 11.0724H31.4307C32.3905 11.2112 32.1841 12.5083 32.1819 12.5207" fill="url(#paint9_linear_714_135915)"/>
<path style="mix-blend-mode:screen" opacity="0.9" d="M18.2843 15.0112C17.7198 14.2967 17.3101 13.4724 17.0814 12.5909C16.8527 11.7094 16.81 10.79 16.956 9.8911C17.1019 8.9922 17.4335 8.13352 17.9294 7.3697C18.4253 6.60588 19.0746 5.95366 19.8363 5.45448C21.4052 4.4115 23.2786 3.92458 25.1568 4.07159C27.035 4.2186 28.8097 4.99105 30.1973 6.26544C27.9954 7.01023 25.9077 8.05715 23.9938 9.3762C21.7727 10.9026 19.8397 12.8104 18.2843 15.0112Z" fill="url(#paint10_radial_714_135915)"/>
<path style="mix-blend-mode:screen" opacity="0.6" d="M33.3545 7.57169C32.0562 5.46524 29.9969 3.93931 27.6038 3.31031C25.2107 2.68131 22.6672 2.99751 20.501 4.19335C18.3347 5.38919 16.7118 7.37292 15.9688 9.73315C15.2258 12.0934 15.4197 14.6491 16.5103 16.8702C15.8263 15.7604 15.3747 14.5232 15.1829 13.2338C14.9911 11.9443 15.0631 10.6293 15.3945 9.3685C15.7259 8.10766 16.3098 6.92721 17.1109 5.8987C17.9119 4.87019 18.9134 4.01501 20.0547 3.38497C21.196 2.75494 22.4534 2.36316 23.7506 2.23339C25.0478 2.10361 26.3577 2.23854 27.6012 2.62998C28.8447 3.02143 29.9958 3.66127 30.9848 4.51071C31.9737 5.36014 32.7799 6.4015 33.3545 7.57169Z" fill="url(#paint11_linear_714_135915)"/>
</g>
<g filter="url(#filter2_d_714_135915)">
<mask id="mask1_714_135915" style="mask-type:luminance" maskUnits="userSpaceOnUse" x="1" y="1" width="21" height="21">
<path d="M11.5533 21.8082C17.0742 21.8082 21.5499 17.3325 21.5499 11.8116C21.5499 6.29058 17.0742 1.81494 11.5533 1.81494C6.03228 1.81494 1.55664 6.29058 1.55664 11.8116C1.55664 17.3325 6.03228 21.8082 11.5533 21.8082Z" fill="white"/>
</mask>
<g mask="url(#mask1_714_135915)">
<mask id="mask2_714_135915" style="mask-type:luminance" maskUnits="userSpaceOnUse" x="1" y="1" width="21" height="22">
<path d="M21.8623 1.49756H1.23633V22.1235H21.8623V1.49756Z" fill="white"/>
</mask>
<g mask="url(#mask2_714_135915)">
<mask id="mask3_714_135915" style="mask-type:luminance" maskUnits="userSpaceOnUse" x="1" y="1" width="21" height="22">
<path d="M21.8604 1.49731H1.23438V22.1233H21.8604V1.49731Z" fill="white"/>
</mask>
<g mask="url(#mask3_714_135915)">
<rect x="1.21289" y="1.49731" width="20.6598" height="20.6294"/>
</g>
</g>
</g>
<path d="M17.8737 10.9813C17.8433 13.7334 16.7402 14.5714 11.4447 18.5992C10.8029 18.1209 10.8029 18.1209 9.89269 17.46C8.3892 16.3614 7.7316 15.8652 6.79206 15.0914C3.14893 11.7483 5.47695 6.69978 8.68245 6.70655C8.97499 7.1714 9.38057 7.55449 9.86137 7.82C10.3422 8.08551 10.8825 8.22479 11.4317 8.22479C11.981 8.22479 12.5212 8.08551 13.002 7.82C13.4828 7.55449 13.8885 7.1714 14.181 6.70655C15.2316 6.79893 16.205 7.2965 16.8953 8.09392C17.5855 8.89134 17.9385 9.92603 17.8794 10.979" fill="url(#paint12_linear_714_135915)"/>
<path style="mix-blend-mode:screen" opacity="0.9" d="M5.0566 15.0194C4.49177 14.3046 4.08188 13.48 3.85304 12.5981C3.62421 11.7162 3.58143 10.7964 3.7274 9.8971C3.87338 8.99779 4.20494 8.1387 4.70097 7.37449C5.19699 6.61028 5.84662 5.9577 6.60857 5.45821C8.17832 4.41502 10.0525 3.9281 11.9315 4.07532C13.8105 4.22253 15.5859 4.99537 16.974 6.2703C14.7702 7.0152 12.6806 8.06246 10.7649 9.38216C8.54419 10.9095 6.6116 12.818 5.0566 15.0194Z" fill="url(#paint13_radial_714_135915)"/>
<path style="mix-blend-mode:screen" opacity="0.6" d="M20.136 7.57437C18.8372 5.46671 16.777 3.93983 14.3827 3.31041C11.9883 2.681 9.44345 2.99734 7.27605 4.19383C5.10865 5.39031 3.48498 7.37514 2.74171 9.73666C1.99845 12.0982 2.19264 14.6551 3.28405 16.8773C2.59983 15.767 2.14818 14.5294 1.95637 13.2394C1.76455 11.9494 1.83655 10.6338 2.16812 9.37245C2.4997 8.11111 3.08391 6.9302 3.88531 5.90127C4.68671 4.87235 5.68866 4.01682 6.83043 3.38652C7.97221 2.75621 9.23008 2.36428 10.5278 2.23442C11.8255 2.10455 13.1361 2.23946 14.3801 2.63101C15.6241 3.02256 16.7757 3.66257 17.7651 4.51229C18.7545 5.362 19.5611 6.40375 20.136 7.57437Z" fill="url(#paint14_linear_714_135915)"/>
</g>
<defs>
<filter id="filter0_d_714_135915" x="26.874" y="0.687037" width="24.5116" height="24.5116" filterUnits="userSpaceOnUse" color-interpolation-filters="sRGB">
<feFlood flood-opacity="0" result="BackgroundImageFix"/>
<feColorMatrix in="SourceAlpha" type="matrix" values="0 0 0 0 0 0 0 0 0 0 0 0 0 0 0 0 0 0 127 0" result="hardAlpha"/>
<feOffset dx="1.1279" dy="1.1279"/>
<feGaussianBlur stdDeviation="1.1279"/>
<feComposite in2="hardAlpha" operator="out"/>
<feColorMatrix type="matrix" values="0 0 0 0 0.470833 0 0 0 0 0.470833 0 0 0 0 0.470833 0 0 0 0.5 0"/>
<feBlend mode="multiply" in2="BackgroundImageFix" result="effect1_dropShadow_714_135915"/>
<feBlend mode="normal" in="SourceGraphic" in2="effect1_dropShadow_714_135915" result="shape"/>
</filter>
<filter id="filter1_d_714_135915" x="13.6553" y="0.687037" width="24.496" height="24.4957" filterUnits="userSpaceOnUse" color-interpolation-filters="sRGB">
<feFlood flood-opacity="0" result="BackgroundImageFix"/>
<feColorMatrix in="SourceAlpha" type="matrix" values="0 0 0 0 0 0 0 0 0 0 0 0 0 0 0 0 0 0 127 0" result="hardAlpha"/>
<feOffset dx="1.1279" dy="1.1279"/>
<feGaussianBlur stdDeviation="1.1279"/>
<feComposite in2="hardAlpha" operator="out"/>
<feColorMatrix type="matrix" values="0 0 0 0 0.470833 0 0 0 0 0.470833 0 0 0 0 0.470833 0 0 0 0.5 0"/>
<feBlend mode="multiply" in2="BackgroundImageFix" result="effect1_dropShadow_714_135915"/>
<feBlend mode="normal" in="SourceGraphic" in2="effect1_dropShadow_714_135915" result="shape"/>
</filter>
<filter id="filter2_d_714_135915" x="0.428736" y="0.687037" width="24.5058" height="24.5048" filterUnits="userSpaceOnUse" color-interpolation-filters="sRGB">
<feFlood flood-opacity="0" result="BackgroundImageFix"/>
<feColorMatrix in="SourceAlpha" type="matrix" values="0 0 0 0 0 0 0 0 0 0 0 0 0 0 0 0 0 0 127 0" result="hardAlpha"/>
<feOffset dx="1.1279" dy="1.1279"/>
<feGaussianBlur stdDeviation="1.1279"/>
<feComposite in2="hardAlpha" operator="out"/>
<feColorMatrix type="matrix" values="0 0 0 0 0.470833 0 0 0 0 0.470833 0 0 0 0 0.470833 0 0 0 0.5 0"/>
<feBlend mode="multiply" in2="BackgroundImageFix" result="effect1_dropShadow_714_135915"/>
<feBlend mode="normal" in="SourceGraphic" in2="effect1_dropShadow_714_135915" result="shape"/>
</filter>
<linearGradient id="paint0_linear_714_135915" x1="32.862" y1="2.69494" x2="43.202" y2="21.0549" gradientUnits="userSpaceOnUse">
<stop stop-color="#FFFDF1"/>
<stop offset="0.201" stop-color="#FFEB72"/>
<stop offset="0.753" stop-color="#F69B32"/>
<stop offset="1" stop-color="#ED6C12"/>
</linearGradient>
<linearGradient id="paint1_linear_714_135915" x1="32.4874" y1="4.5643" x2="35.8265" y2="10.2727" gradientUnits="userSpaceOnUse">
<stop stop-color="white"/>
<stop offset="1" stop-color="#231F20"/>
</linearGradient>
<linearGradient id="paint2_linear_714_135915" x1="43.3127" y1="3.0311" x2="31.2039" y2="16.4397" gradientUnits="userSpaceOnUse">
<stop stop-color="#231F20"/>
<stop offset="0.536" stop-color="white"/>
<stop offset="1" stop-color="#231F20"/>
</linearGradient>
<linearGradient id="paint3_linear_714_135915" x1="35.9604" y1="10.4235" x2="37.1717" y2="20.3438" gradientUnits="userSpaceOnUse">
<stop stop-color="#F15B5A"/>
<stop offset="1" stop-color="#DB2A37"/>
</linearGradient>
<linearGradient id="paint4_linear_714_135915" x1="29.977" y1="12.4388" x2="34.5954" y2="17.3822" gradientUnits="userSpaceOnUse">
<stop stop-color="#FFEB72"/>
<stop offset="0.996" stop-color="#F69B32"/>
</linearGradient>
<linearGradient id="paint5_linear_714_135915" x1="37.9023" y1="15.9005" x2="45.9" y2="15.9005" gradientUnits="userSpaceOnUse">
<stop stop-color="#FFEB72"/>
<stop offset="0.996" stop-color="#F69B32"/>
</linearGradient>
<linearGradient id="paint6_linear_714_135915" x1="38.0719" y1="9.49082" x2="38.0712" y2="10.5573" gradientUnits="userSpaceOnUse">
<stop stop-color="#4B2313"/>
<stop offset="0.382" stop-color="#6B311A"/>
<stop offset="0.771" stop-color="#863E21"/>
<stop offset="1" stop-color="#914324"/>
</linearGradient>
<linearGradient id="paint7_linear_714_135915" x1="19.6394" y1="2.69425" x2="29.9712" y2="21.0397" gradientUnits="userSpaceOnUse">
<stop stop-color="#00BFFF"/>
<stop offset="0.996" stop-color="#7062ED"/>
</linearGradient>
<linearGradient id="paint8_linear_714_135915" x1="17.9782" y1="7.62493" x2="27.1167" y2="14.9555" gradientUnits="userSpaceOnUse">
<stop stop-color="white"/>
<stop offset="0.198" stop-color="#FCFBFD"/>
<stop offset="0.36" stop-color="#F6F1F8"/>
<stop offset="0.51" stop-color="#EAE0EF"/>
<stop offset="0.653" stop-color="#DAC8E3"/>
<stop offset="0.79" stop-color="#C5A8D4"/>
<stop offset="0.922" stop-color="#AC83C1"/>
<stop offset="1" stop-color="#9B69B5"/>
</linearGradient>
<linearGradient id="paint9_linear_714_135915" x1="24.4624" y1="5.30117" x2="31.7497" y2="16.5194" gradientUnits="userSpaceOnUse">
<stop stop-color="white"/>
<stop offset="0.198" stop-color="#FCFBFD"/>
<stop offset="0.36" stop-color="#F6F1F8"/>
<stop offset="0.51" stop-color="#EAE0EF"/>
<stop offset="0.653" stop-color="#DAC8E3"/>
<stop offset="0.79" stop-color="#C5A8D4"/>
<stop offset="0.922" stop-color="#AC83C1"/>
<stop offset="1" stop-color="#9B69B5"/>
</linearGradient>
<radialGradient id="paint10_radial_714_135915" cx="0" cy="0" r="1" gradientUnits="userSpaceOnUse" gradientTransform="translate(-185.469 -40.9178) scale(10.8249 9.75131)">
<stop stop-color="#9CDEFF"/>
<stop offset="1" stop-color="#4566FE"/>
</radialGradient>
<linearGradient id="paint11_linear_714_135915" x1="30.083" y1="3.02257" x2="17.9771" y2="16.4236" gradientUnits="userSpaceOnUse">
<stop stop-color="#231F20"/>
<stop offset="0.536" stop-color="white"/>
<stop offset="1" stop-color="#231F20"/>
</linearGradient>
<linearGradient id="paint12_linear_714_135915" x1="9.07066" y1="6.92061" x2="14.4722" y2="18.2485" gradientUnits="userSpaceOnUse">
<stop stop-color="white"/>
<stop offset="0.198" stop-color="#FCFBFD"/>
<stop offset="0.36" stop-color="#F6F1F8"/>
<stop offset="0.51" stop-color="#EAE0EF"/>
<stop offset="0.653" stop-color="#DAC8E3"/>
<stop offset="0.79" stop-color="#C5A8D4"/>
<stop offset="0.922" stop-color="#AC83C1"/>
<stop offset="1" stop-color="#9B69B5"/>
</linearGradient>
<radialGradient id="paint13_radial_714_135915" cx="0" cy="0" r="1" gradientUnits="userSpaceOnUse" gradientTransform="translate(-144.695 -40.905) scale(10.8291 9.75537)">
<stop offset="0.006" stop-color="#FE7BB5"/>
<stop offset="1" stop-color="#231F20"/>
</radialGradient>
<linearGradient id="paint14_linear_714_135915" x1="16.8631" y1="3.0239" x2="4.75214" y2="16.4308" gradientUnits="userSpaceOnUse">
<stop stop-color="#231F20"/>
<stop offset="0.536" stop-color="white"/>
<stop offset="1" stop-color="#231F20"/>
</linearGradient>
</defs>
</svg>
