<svg width="17" height="18" viewBox="0 0 17 18" fill="none" xmlns="http://www.w3.org/2000/svg">
<path fill-rule="evenodd" clip-rule="evenodd" d="M12.1971 0.666626C12.7428 0.666626 13.2658 0.884476 13.6478 1.26948L16.2319 3.85356C16.6166 4.23829 16.8327 4.7601 16.8327 5.30419C16.8327 5.84829 16.6166 6.37009 16.2319 6.75482L6.79727 16.1864C6.2152 16.8579 5.3901 17.2704 4.44485 17.3352H0.166016V16.5019L0.168722 12.9894C0.239714 12.1107 0.648238 11.2936 1.27143 10.7445L10.7455 1.27048C11.1297 0.883984 11.6521 0.666626 12.1971 0.666626ZM4.386 15.6706C4.83119 15.6391 5.24559 15.4319 5.57834 15.0513L11.8799 8.74972L8.75129 5.62095L2.41277 11.958C2.07514 12.2566 1.86627 12.6743 1.83268 13.0565V15.6691L4.386 15.6706ZM9.92994 4.44258L13.0584 7.57121L15.0533 5.57631C15.1255 5.50414 15.1661 5.40626 15.1661 5.30419C15.1661 5.20213 15.1255 5.10424 15.0533 5.03207L12.467 2.44567C12.3956 2.37375 12.2985 2.33329 12.1971 2.33329C12.0958 2.33329 11.9987 2.37375 11.9273 2.44567L9.92994 4.44258Z" fill="#2360FF"/>
</svg>
