<svg width="69" height="58" viewBox="0 0 69 58" fill="none" xmlns="http://www.w3.org/2000/svg">
<mask id="path-1-outside-1_714_171032" maskUnits="userSpaceOnUse" x="0.279297" y="0.214844" width="69" height="58" fill="black">
<rect fill="white" x="0.279297" y="0.214844" width="69" height="58"/>
<path fill-rule="evenodd" clip-rule="evenodd" d="M61.8547 13.8899C65.4798 15.2089 68.0131 18.2201 68.0131 21.7237V39.6693C68.0131 49.1083 58.82 56.7602 47.4798 56.7602H25.9198C21.7104 56.7602 18.0927 54.6517 16.5081 51.6343L45.4264 51.6329C54.2237 51.6329 61.4058 45.8768 61.833 38.6426L61.8531 37.9602L61.8547 13.8899ZM43.3726 1.21484C49.0428 1.21484 53.6393 5.04079 53.6393 9.76033V36.2513C53.6393 40.9709 49.0428 44.7968 43.3726 44.7968H11.546C5.87584 44.7968 1.2793 40.9709 1.2793 36.2513V9.76033C1.2793 5.04079 5.87584 1.21484 11.546 1.21484H43.3726Z"/>
</mask>
<path fill-rule="evenodd" clip-rule="evenodd" d="M61.8547 13.8899C65.4798 15.2089 68.0131 18.2201 68.0131 21.7237V39.6693C68.0131 49.1083 58.82 56.7602 47.4798 56.7602H25.9198C21.7104 56.7602 18.0927 54.6517 16.5081 51.6343L45.4264 51.6329C54.2237 51.6329 61.4058 45.8768 61.833 38.6426L61.8531 37.9602L61.8547 13.8899ZM43.3726 1.21484C49.0428 1.21484 53.6393 5.04079 53.6393 9.76033V36.2513C53.6393 40.9709 49.0428 44.7968 43.3726 44.7968H11.546C5.87584 44.7968 1.2793 40.9709 1.2793 36.2513V9.76033C1.2793 5.04079 5.87584 1.21484 11.546 1.21484H43.3726Z" fill="white"/>
<path d="M61.8547 13.8899L62.1304 13.1322L61.0485 12.7386L61.0484 13.8898L61.8547 13.8899ZM16.5081 51.6343L16.508 50.828L15.174 50.828L15.7942 52.0091L16.5081 51.6343ZM45.4264 51.6329V50.8267H45.4264L45.4264 51.6329ZM61.833 38.6426L62.6379 38.6901L62.6386 38.6782L62.6389 38.6663L61.833 38.6426ZM61.8531 37.9602L62.659 37.9839L62.6594 37.9721V37.9602L61.8531 37.9602ZM61.579 14.6476C64.969 15.881 67.2068 18.64 67.2068 21.7237H68.8194C68.8194 17.8001 65.9906 14.5367 62.1304 13.1322L61.579 14.6476ZM67.2068 21.7237V39.6693H68.8194V21.7237H67.2068ZM67.2068 39.6693C67.2068 48.5308 58.5195 55.9539 47.4798 55.9539V57.5665C59.1204 57.5665 68.8194 49.6858 68.8194 39.6693H67.2068ZM47.4798 55.9539H25.9198V57.5665H47.4798V55.9539ZM25.9198 55.9539C21.9624 55.9539 18.6464 53.9719 17.2219 51.2594L15.7942 52.0091C17.539 55.3314 21.4583 57.5665 25.9198 57.5665V55.9539ZM16.5081 52.4405L45.4265 52.4392L45.4264 50.8267L16.508 50.828L16.5081 52.4405ZM45.4264 52.4392C54.5204 52.4392 62.1785 46.4692 62.6379 38.6901L61.0281 38.595C60.6331 45.2844 53.927 50.8267 45.4264 50.8267V52.4392ZM62.6389 38.6663L62.659 37.9839L61.0472 37.9364L61.0271 38.6188L62.6389 38.6663ZM62.6594 37.9602L62.661 13.8899L61.0484 13.8898L61.0468 37.9601L62.6594 37.9602ZM43.3726 2.02113C48.7423 2.02113 52.833 5.61828 52.833 9.76033H54.4456C54.4456 4.46329 49.3432 0.408561 43.3726 0.408561V2.02113ZM52.833 9.76033V36.2513H54.4456V9.76033H52.833ZM52.833 36.2513C52.833 40.3934 48.7423 43.9905 43.3726 43.9905V45.6031C49.3432 45.6031 54.4456 41.5484 54.4456 36.2513H52.833ZM43.3726 43.9905H11.546V45.6031H43.3726V43.9905ZM11.546 43.9905C6.17629 43.9905 2.08558 40.3934 2.08558 36.2513H0.473014C0.473014 41.5484 5.57539 45.6031 11.546 45.6031V43.9905ZM2.08558 36.2513V9.76033H0.473014V36.2513H2.08558ZM2.08558 9.76033C2.08558 5.61828 6.17629 2.02113 11.546 2.02113V0.408561C5.57539 0.408561 0.473014 4.46329 0.473014 9.76033H2.08558ZM11.546 2.02113H43.3726V0.408561H11.546V2.02113Z" fill="black" fill-opacity="0.2" mask="url(#path-1-outside-1_714_171032)"/>
</svg>
