<svg width="89" height="89" viewBox="0 0 89 89" fill="none" xmlns="http://www.w3.org/2000/svg">
<circle cx="44.4998" cy="44.3572" r="38.3331" fill="#FEC424" stroke="url(#paint0_linear_714_149527)" stroke-width="12.0481"/>
<circle cx="44.4998" cy="44.3572" r="43.627" stroke="url(#paint1_linear_714_149527)" stroke-width="1.46038"/>
<circle cx="44.4994" cy="44.5368" r="31.8346" stroke="url(#paint2_linear_714_149527)" stroke-width="1.09529"/>
<path d="M38.125 28.9152H40.0703V40.7511L41.9453 40.9621C41.9922 40.9621 42.0469 40.9699 42.1094 40.9855C42.4844 41.048 42.6719 41.2433 42.6719 41.5714H33.9531V40.9621L36.9297 40.7511V30.6964L33.5547 32.7355L33.1328 32.0793L38.125 28.9152ZM49.7735 28.6808C51.0547 28.6808 52.1563 28.9933 53.0781 29.6183C54.7031 30.7433 55.5156 32.6339 55.5156 35.2902C55.5156 36.8996 55.1485 38.2668 54.4141 39.3918C53.336 41.0011 51.75 41.8058 49.6563 41.8058C48.2813 41.8058 47.1094 41.4386 46.1406 40.7043C44.6094 39.5324 43.8438 37.6964 43.8438 35.1964C43.8438 33.5871 44.2266 32.2121 44.9922 31.0714C46.0703 29.4777 47.6641 28.6808 49.7735 28.6808ZM49.7266 41.173C50.2266 41.173 50.6485 41.0168 50.9922 40.7043C51.7578 40.0011 52.1406 38.1574 52.1406 35.173C52.1406 33.9386 52.0703 32.9074 51.9297 32.0793C51.6172 30.2355 50.875 29.3136 49.7031 29.3136C49.3125 29.3136 48.9766 29.3996 48.6953 29.5714C47.711 30.1964 47.2188 32.1027 47.2188 35.2902C47.2188 37.0246 47.3438 38.3449 47.5938 39.2511C47.9531 40.5324 48.6641 41.173 49.7266 41.173ZM38.2891 49.1418H36.9531V55.6808H38.1953C39.8672 55.6652 40.7188 54.5793 40.75 52.423C40.7344 50.2668 39.9141 49.173 38.2891 49.1418ZM39.2969 62.5714H31.7969V61.9386H33.6719V49.1418H31.7969V48.5089H39.625C40.6563 48.5089 41.5469 48.6886 42.2969 49.048C43.6094 49.6886 44.2656 50.7433 44.2656 52.2121C44.2656 52.8058 44.1641 53.3449 43.961 53.8293C43.2735 55.5324 41.5781 56.3839 38.875 56.3839H36.9531V61.9386H38.6641C38.9922 61.9699 39.2031 62.1808 39.2969 62.5714ZM51.461 49.1418H50.125V55.6808H51.3672C53.0391 55.6652 53.8906 54.5793 53.9219 52.423C53.9063 50.2668 53.086 49.173 51.461 49.1418ZM52.4688 62.5714H44.9688V61.9386H46.8438V49.1418H44.9688V48.5089H52.7969C53.8281 48.5089 54.7188 48.6886 55.4688 49.048C56.7813 49.6886 57.4375 50.7433 57.4375 52.2121C57.4375 52.8058 57.336 53.3449 57.1328 53.8293C56.4453 55.5324 54.75 56.3839 52.0469 56.3839H50.125V61.9386H51.836C52.1641 61.9699 52.375 62.1808 52.4688 62.5714Z" fill="#906A00"/>
<defs>
<linearGradient id="paint0_linear_714_149527" x1="76.3061" y1="11.5977" x2="17.6218" y2="79.272" gradientUnits="userSpaceOnUse">
<stop stop-color="#FED64A"/>
<stop offset="0.123016" stop-color="#FEF14E"/>
<stop offset="0.248796" stop-color="#FFDF6C"/>
<stop offset="0.482583" stop-color="#FCFF67"/>
<stop offset="0.743348" stop-color="#FED545"/>
<stop offset="0.82597" stop-color="#FECA45"/>
<stop offset="1" stop-color="#FEED44"/>
</linearGradient>
<linearGradient id="paint1_linear_714_149527" x1="35.7714" y1="-1.50727e-07" x2="46.5581" y2="88.7144" gradientUnits="userSpaceOnUse">
<stop stop-color="#FFF3C4"/>
<stop offset="0.483894" stop-color="#EDC071"/>
<stop offset="0.961122" stop-color="#BF8147"/>
</linearGradient>
<linearGradient id="paint2_linear_714_149527" x1="36.4173" y1="12.1546" x2="65.6544" y2="69.8581" gradientUnits="userSpaceOnUse">
<stop stop-color="#C8892B"/>
<stop offset="0.979601" stop-color="#FFEDA3"/>
</linearGradient>
</defs>
</svg>
