<svg width="40" height="41" viewBox="0 0 40 41" fill="none" xmlns="http://www.w3.org/2000/svg">
<path d="M20 40.8149C31.0457 40.8149 40 31.8606 40 20.8149C40 9.76925 31.0457 0.814941 20 0.814941C8.95431 0.814941 0 9.76925 0 20.8149C0 31.8606 8.95431 40.8149 20 40.8149Z" fill="#0E0E0E"/>
<path d="M25 27.8149H15.5V17.8149L21.5 11.8149L22.1667 12.2733C22.4167 12.4538 22.6007 12.683 22.7188 12.9608C22.8368 13.2386 22.8611 13.5233 22.7917 13.8149L22 17.8149H27.5C27.9167 17.8149 28.2708 17.9608 28.5625 18.2524C28.8542 18.5441 29 18.8983 29 19.3149V20.5024C29 20.6136 28.9896 20.7142 28.9688 20.8045C28.9479 20.8948 28.9167 20.9886 28.875 21.0858L26.3958 26.8983C26.2708 27.1761 26.0833 27.3983 25.8333 27.5649C25.5833 27.7316 25.3056 27.8149 25 27.8149ZM14 17.8149V27.8149H11V17.8149H14Z" fill="white"/>
</svg>
