<svg width="435" height="360" viewBox="0 0 435 360" fill="none" xmlns="http://www.w3.org/2000/svg">
<path d="M293.812 0C294.651 0.379401 295.095 0.458713 296.034 0.55541C295.195 0.176065 294.751 0.0966969 293.812 0Z" fill="#313131"/>
<path d="M292.713 0.967967C285.743 3.71386 290.714 14.0847 297.678 11.2516C304.382 8.5241 299.561 -1.73133 292.713 0.967967Z" fill="white"/>
<path d="M302.699 7.22012L308.253 27.7703C315.218 26.7458 321.822 23.7117 328.803 22.7716C328.481 15.6925 325.238 8.60164 323.805 1.66602C316.934 2.67675 309.198 4.76926 302.699 7.22012Z" fill="white"/>
<path d="M273.817 3.62649C260.348 6.71291 259.515 27.4042 273.817 29.8111C275.761 30.1383 278.004 30.1416 279.926 29.6984C296.394 25.8982 290.124 -0.110808 273.817 3.62649Z" fill="white"/>
<path d="M288.812 4.99854V7.22018C289.207 6.24288 289.207 5.97583 288.812 4.99854Z" fill="#7E7E7E"/>
<path d="M293.812 11.6636C294.651 12.0429 295.095 12.1223 296.034 12.219C295.195 11.8396 294.751 11.7603 293.812 11.6636Z" fill="#292929"/>
<path d="M245.491 14.4404C242.598 19.1667 239.743 23.9782 237.16 28.8811C241.709 31.882 246.952 35.5649 252.156 37.2122C255.2 32.6018 258.599 27.4105 260.487 22.2162C255.35 20.0029 250.873 16.0232 245.491 14.4404Z" fill="white"/>
<path d="M262.709 15.5513V17.7729C263.103 16.7957 263.103 16.5285 262.709 15.5513Z" fill="#7F7F7F"/>
<path d="M262.892 18.1435C262.864 18.1746 262.831 18.7605 263.081 18.5137C263.109 18.483 263.142 17.8966 262.892 18.1435Z" fill="#C5C5C5"/>
<path d="M334.38 18.6994C328.732 20.3915 331.359 29.2143 337.113 27.4051C342.717 25.6411 339.907 17.0456 334.38 18.6994Z" fill="white"/>
<path d="M298.812 21.1055C295.974 23.2935 293.058 25.469 289.926 27.215C291.125 29.7477 293.48 34.8708 296.202 36.006C298.34 36.8974 305.111 32.2859 305.016 29.9404C304.9 26.9717 300.967 22.8601 298.812 21.1055Z" fill="white"/>
<path d="M328.986 22.0312C328.958 22.0623 328.925 22.6481 329.175 22.4015C329.202 22.3708 329.236 21.7843 328.986 22.0312Z" fill="#878787"/>
<path d="M330.469 22.2163V23.8825C330.858 23.0197 330.858 23.0792 330.469 22.2163Z" fill="#CFCFCF"/>
<path d="M334.912 27.7705C335.606 28.151 335.773 28.1863 336.578 28.3259C335.884 27.9456 335.717 27.91 334.912 27.7705Z" fill="#D1D1D1"/>
<path d="M336.95 29.622C336.7 29.8691 337.289 29.838 337.317 29.8075C337.567 29.5603 336.978 29.5914 336.95 29.622Z" fill="#B9B9B9"/>
<path d="M274.745 30.1771C274.495 30.4237 275.084 30.3938 275.112 30.3627C275.362 30.1155 274.773 30.1466 274.745 30.1771Z" fill="#A8A8A8"/>
<path d="M275.482 29.9922C276.321 30.3715 276.765 30.451 277.704 30.5476C276.865 30.1683 276.421 30.0888 275.482 29.9922Z" fill="#7F7F7F"/>
<path d="M278.077 30.1771C277.827 30.4237 278.416 30.3938 278.444 30.3627C278.694 30.1155 278.105 30.1466 278.077 30.1771Z" fill="#D4D4D4"/>
<path d="M336.579 29.9922C335.773 33.3969 334.329 36.6593 333.246 39.9896C336.579 41.0732 339.839 42.515 343.243 43.322C344.76 40.0801 345.843 36.661 347.131 33.3246C343.654 32.1927 340.2 30.5348 336.579 29.9922Z" fill="white"/>
<path d="M313.624 31.8436C313.374 32.0908 313.963 32.0597 313.991 32.0292C314.241 31.782 313.652 31.8131 313.624 31.8436Z" fill="#333333"/>
<path d="M314.362 31.9522C300.899 33.1763 303.143 53.7354 316.583 52.1052C329.363 50.5556 327.086 30.7953 314.362 31.9522Z" fill="white"/>
<path d="M316.402 31.8436C316.152 32.0908 316.74 32.0597 316.768 32.0292C317.018 31.782 316.429 31.8131 316.402 31.8436Z" fill="#3F3F3F"/>
<path d="M269.93 43.322C272.373 46.3506 275.911 49.3121 279.372 51.0977C281.549 47.9163 284.631 45.2893 286.037 41.6558C283.948 40.0817 280.438 35.7618 277.728 35.7379C275.001 35.7134 271.679 41.4914 269.93 43.322Z" fill="white"/>
<path d="M359.35 41.1001C360.044 41.4806 360.21 41.5161 361.016 41.6555C360.322 41.2751 360.155 41.2395 359.35 41.1001Z" fill="#2D2D2D"/>
<path d="M361.016 41.441C351.885 41.9009 352.435 55.9133 361.572 55.4601C370.453 55.0197 370.058 40.9861 361.016 41.441Z" fill="white"/>
<path d="M261.598 43.3218C262.581 43.7544 263.286 43.8283 264.375 43.8772C263.392 43.4445 262.686 43.3707 261.598 43.3218Z" fill="#797979"/>
<path d="M343.06 43.5072C342.81 43.7538 343.398 43.7238 343.426 43.6927C343.676 43.4456 343.087 43.4767 343.06 43.5072Z" fill="#D7D7D7"/>
<path d="M239.197 44.0624C238.95 44.3096 239.537 44.2785 239.567 44.2479C239.814 44.0007 239.228 44.0319 239.197 44.0624Z" fill="#2C2C2C"/>
<path d="M240.492 43.8774C241.186 44.2579 241.353 44.2934 242.158 44.4329C241.464 44.0524 241.298 44.0168 240.492 43.8774Z" fill="#7C7C7C"/>
<path d="M242.158 43.8774C242.852 44.2579 243.019 44.2934 243.824 44.4329C243.13 44.0524 242.964 44.0168 242.158 43.8774Z" fill="#D3D3D3"/>
<path d="M260.499 44.2897C253.485 47.0535 258.106 58.4549 265.487 55.6007C273.079 52.6603 267.953 41.3527 260.499 44.2897Z" fill="white"/>
<path d="M238.456 44.8033C238.425 44.8338 238.394 45.4203 238.641 45.1732C238.672 45.1426 238.703 44.5561 238.456 44.8033Z" fill="#272727"/>
<path d="M253.266 60.5401L253.822 44.9886C250.267 44.9886 246.796 44.5204 243.269 44.4415C242.058 44.4143 240.253 44.1833 239.238 45.0042C237.691 46.2555 238.339 49.3658 238.221 51.0981C238.074 53.2442 236.764 57.1365 238.286 59.0172C239.267 60.2302 241.342 59.963 242.713 59.9864C246.246 60.0469 249.717 60.5401 253.266 60.5401Z" fill="white"/>
<path d="M246.047 44.4326C246.886 44.812 247.33 44.8914 248.269 44.988C247.43 44.6087 246.986 44.5293 246.047 44.4326Z" fill="#383838"/>
<path d="M248.268 44.4326C248.962 44.8131 249.128 44.8486 249.934 44.988C249.24 44.6076 249.073 44.572 248.268 44.4326Z" fill="#7D7D7D"/>
<path d="M249.934 44.4326C250.628 44.8131 250.794 44.8486 251.6 44.988C250.906 44.6076 250.739 44.572 249.934 44.4326Z" fill="#D4D4D4"/>
<path d="M253.822 45.5435V47.2097C254.211 46.3466 254.211 46.4066 253.822 45.5435Z" fill="#2B2B2B"/>
<path d="M293.812 45.5435C294.651 45.9228 295.095 46.0022 296.034 46.0989C295.195 45.7195 294.751 45.6401 293.812 45.5435Z" fill="#D3D3D3"/>
<path d="M328.247 45.5435C326.503 50.9098 323.993 56.1635 322.693 61.6504C326.37 63.0694 330.08 64.4318 333.802 65.7287C335.123 66.1892 337.14 67.3477 338.523 66.5757C339.878 65.8176 340.361 63.5532 340.833 62.2058C342.138 58.4851 343.488 54.7766 344.91 51.0976C339.3 49.5668 333.979 46.5299 328.247 45.5435Z" fill="white"/>
<path d="M292.701 46.462C283.487 49.3506 288.43 63.4897 297.7 60.3483C306.286 57.438 301.615 43.6671 292.701 46.462Z" fill="white"/>
<path d="M253.822 47.21V48.8762C254.211 48.0131 254.211 48.0731 253.822 47.21Z" fill="#7E7E7E"/>
<path d="M353.797 47.21V49.4316C354.191 48.4541 354.191 48.1875 353.797 47.21Z" fill="#303030"/>
<path d="M368.236 47.21V49.987C368.697 48.8595 368.697 48.3374 368.236 47.21Z" fill="#D1D1D1"/>
<path d="M237.715 47.7651V49.4314C238.101 48.5683 238.101 48.6282 237.715 47.7651Z" fill="#C5C5C5"/>
<path d="M253.822 48.876V51.0976C254.217 50.1201 254.217 49.8535 253.822 48.876Z" fill="#CFCFCF"/>
<path d="M256.6 48.876V51.0976C256.994 50.1201 256.994 49.8535 256.6 48.876Z" fill="#2B2B2B"/>
<path d="M237.715 49.4316V51.6533C238.109 50.6758 238.109 50.4086 237.715 49.4316Z" fill="#818181"/>
<path d="M269.558 49.8018C269.53 49.8329 269.497 50.4183 269.747 50.1717C269.775 50.1412 269.808 49.5547 269.558 49.8018Z" fill="#D3D3D3"/>
<path d="M237.715 51.6528V53.3191C238.101 52.456 238.101 52.5159 237.715 51.6528Z" fill="#202020"/>
<path d="M287.146 52.2085V54.9855C287.607 53.8581 287.607 53.336 287.146 52.2085Z" fill="#ADADAD"/>
<path d="M302.143 52.2085V54.9855C302.604 53.8581 302.604 53.336 302.143 52.2085Z" fill="#2F2F2F"/>
<path d="M313.807 52.2085C314.645 52.5878 315.09 52.6673 316.028 52.7639C315.19 52.3846 314.74 52.3051 313.807 52.2085Z" fill="#CBCBCB"/>
<path d="M253.266 53.3193V54.9856C253.654 54.1225 253.654 54.1824 253.266 53.3193Z" fill="#2B2B2B"/>
<path d="M253.266 54.9854V57.207C253.66 56.23 253.66 55.9623 253.266 54.9854Z" fill="#898989"/>
<path d="M237.16 55.541V57.7627C237.554 56.7851 237.554 56.518 237.16 55.541Z" fill="#CCCCCC"/>
<path d="M360.461 55.541C361.155 55.9215 361.322 55.957 362.127 56.0964C361.433 55.716 361.266 55.6804 360.461 55.541Z" fill="#C6C6C6"/>
<path d="M261.598 56.0962C262.581 56.5289 263.286 56.6027 264.375 56.6516C263.392 56.2189 262.686 56.1451 261.598 56.0962Z" fill="#CBCBCB"/>
<path d="M353.796 56.0962C351.319 59.5047 348.586 63.2343 347.131 67.2044C350.741 69.2061 354.196 72.3636 358.239 73.3139C359.983 69.6326 362.621 66.4607 364.349 62.7611C360.916 60.4467 357.412 58.1101 353.796 56.0962Z" fill="white"/>
<path d="M253.266 57.207V58.8733C253.654 58.0107 253.654 58.0701 253.266 57.207Z" fill="#CFCFCF"/>
<path d="M277.705 57.207C274.345 59.7975 270.862 62.3618 267.152 64.4274C267.891 67.5749 270.024 70.1797 271.918 72.7557C272.584 73.6611 273.329 74.9924 274.473 75.3517C275.456 75.6589 276.339 75.099 277.15 74.6191C279.11 73.4572 284.642 70.7874 284.864 68.2636C284.981 66.8867 283.781 65.4976 283.076 64.4274C281.432 61.9347 279.782 59.3565 277.705 57.207Z" fill="white"/>
<path d="M224.385 58.0209C221.774 58.4874 219.188 59.4244 217.189 61.2139C207.375 69.9994 215.061 87.2421 228.273 85.1832C230.465 84.8416 232.558 84.1562 234.381 82.8671C245.713 74.8559 238.432 55.5104 224.385 58.0209Z" fill="white"/>
<path d="M237.16 57.7627V59.4289C237.547 58.5658 237.547 58.6258 237.16 57.7627Z" fill="#808080"/>
<path d="M237.16 59.4287C237.853 59.8092 238.02 59.8447 238.826 59.9841C238.133 59.6037 237.967 59.5681 237.16 59.4287Z" fill="#2E2E2E"/>
<path d="M241.047 59.9844C241.741 60.3648 241.908 60.4004 242.713 60.5398C242.019 60.1593 241.852 60.1238 241.047 59.9844Z" fill="#D7D7D7"/>
<path d="M242.715 59.9844C243.554 60.3637 243.998 60.4431 244.936 60.5398C244.098 60.1604 243.653 60.081 242.715 59.9844Z" fill="#747474"/>
<path d="M244.936 59.9844C245.63 60.3648 245.796 60.4004 246.602 60.5398C245.908 60.1593 245.741 60.1238 244.936 59.9844Z" fill="#333333"/>
<path d="M248.822 60.5396C249.517 60.92 249.683 60.9556 250.488 61.095C249.794 60.7145 249.628 60.679 248.822 60.5396Z" fill="#D6D6D6"/>
<path d="M250.49 60.5396C251.329 60.9189 251.773 60.9983 252.712 61.095C251.873 60.7156 251.429 60.6362 250.49 60.5396Z" fill="#757575"/>
<path d="M295.851 60.7245C295.601 60.9711 296.189 60.9406 296.217 60.91C296.467 60.6629 295.879 60.694 295.851 60.7245Z" fill="#353535"/>
<path d="M303.992 63.1319C303.964 63.1625 303.931 63.749 304.18 63.5018C304.208 63.4713 304.242 62.8847 303.992 63.1319Z" fill="#2D2D2D"/>
<path d="M285.665 63.6871C285.638 63.7182 285.604 64.3036 285.854 64.057C285.882 64.0264 285.915 63.4399 285.665 63.6871Z" fill="#D7D7D7"/>
<path d="M303.254 63.8721C295.889 81.5902 294.2 100.04 301.137 118.302C302.937 123.033 305.17 130.871 309.918 133.298C306.308 117.7 300.938 101.56 311.451 87.1993C313.44 84.4806 315.673 82.0084 318.25 79.8423C321.188 77.3746 324.215 74.9597 327.692 73.314C325.331 72.4759 322.193 73.7917 319.916 74.6826C316.2 76.1355 312.401 78.11 309.363 80.7015C306.792 82.8926 304.759 85.6464 302.143 87.7547C301.943 83.127 301.143 78.5238 301.748 73.8695C302.143 70.8275 304.12 66.8024 303.254 63.8721Z" fill="white"/>
<path d="M286.036 64.4272C287.93 71.1738 287.691 77.536 287.147 84.422C278.005 78.3925 267.452 76.0909 256.6 76.0909C262.143 79.1084 268.047 80.6613 273.262 84.5087C275.628 86.256 277.805 88.2438 279.666 90.5315C289.819 103.018 284.82 117.676 281.593 131.632C283.865 130.911 288.369 130.813 290.008 129.077C290.985 128.042 291.185 126.292 291.518 124.967C292.351 121.654 293.035 118.32 293.701 114.97C296.134 102.709 295.234 90.947 292.218 78.8679C291.046 74.1886 289.458 67.9535 286.036 64.4272Z" fill="white"/>
<path d="M307.153 68.0865C301.333 69.6216 303.782 79.2885 309.908 77.3924C315.729 75.5934 312.974 66.5502 307.153 68.0865Z" fill="white"/>
<path d="M286.775 68.6856C286.747 68.7167 286.714 69.3021 286.964 69.0555C286.991 69.025 287.025 68.4385 286.775 68.6856Z" fill="#CBCBCB"/>
<path d="M239.938 69.4263V73.8696C240.582 72.3311 240.582 70.9648 239.938 69.4263Z" fill="#686868"/>
<path d="M212.166 69.9814V73.3139C212.694 72.0448 212.694 71.2506 212.166 69.9814Z" fill="#CCCCCC"/>
<path d="M337.134 70.2419C325.526 72.4125 323.26 88.8715 334.357 93.6608C336.662 94.6561 339.684 94.6683 342.133 94.2373C357.296 91.573 352.269 67.411 337.134 70.2419Z" fill="white"/>
<path d="M287.146 71.0923V73.3139C287.541 72.3364 287.541 72.0698 287.146 71.0923Z" fill="#343434"/>
<path d="M303.254 72.2031V73.8694C303.643 73.0062 303.643 73.0662 303.254 72.2031Z" fill="#343434"/>
<path d="M313.435 72.5738C313.407 72.6049 313.374 73.1903 313.624 72.9437C313.652 72.9131 313.685 72.3266 313.435 72.5738Z" fill="#353535"/>
<path d="M301.771 73.129C301.743 73.1601 301.71 73.7455 301.96 73.4989C301.988 73.4683 302.021 72.8818 301.771 73.129Z" fill="#3F3F3F"/>
<path d="M287.146 73.314V80.5343C288.03 78.4287 288.03 75.4195 287.146 73.314Z" fill="#7F7F7F"/>
<path d="M301.771 74.2401C301.743 74.2712 301.71 74.8566 301.96 74.61C301.988 74.5794 302.021 73.9929 301.771 74.2401Z" fill="#939393"/>
<path d="M301.771 75.3507C301.743 75.3818 301.71 75.9672 301.96 75.7206C301.988 75.69 302.021 75.1035 301.771 75.3507Z" fill="#CFCFCF"/>
<path d="M255.488 75.5356C256.183 75.9161 256.349 75.9516 257.155 76.0911C256.46 75.7106 256.294 75.6751 255.488 75.5356Z" fill="#181818"/>
<path d="M257.154 75.5356C257.993 75.915 258.437 75.9944 259.376 76.0911C258.537 75.7117 258.087 75.6323 257.154 75.5356Z" fill="#828282"/>
<path d="M259.377 75.5356C260.071 75.9161 260.238 75.9516 261.043 76.0911C260.349 75.7106 260.182 75.6751 259.377 75.5356Z" fill="#CACACA"/>
<path d="M244.381 81.0898C245.88 83.7796 247.658 86.3134 249.38 88.8655C252.173 87.5386 254.606 85.6025 257.155 83.8668C256.372 81.8312 254.112 76.9148 251.551 76.8164C249.196 76.7259 246.142 79.7385 244.381 81.0898Z" fill="white"/>
<path d="M263.081 76.2763C262.831 76.5229 263.42 76.4923 263.448 76.4618C263.698 76.2146 263.109 76.2457 263.081 76.2763Z" fill="#2E2E2E"/>
<path d="M264.191 76.2763C263.941 76.5229 264.529 76.4923 264.557 76.4618C264.807 76.2146 264.218 76.2457 264.191 76.2763Z" fill="#777777"/>
<path d="M265.302 76.2763C265.052 76.5229 265.641 76.4923 265.668 76.4618C265.918 76.2146 265.33 76.2457 265.302 76.2763Z" fill="#CECECE"/>
<path d="M268.079 76.8314C267.829 77.0786 268.418 77.0475 268.446 77.017C268.696 76.7698 268.107 76.8009 268.079 76.8314Z" fill="#959595"/>
<path d="M307.697 77.7573C308.392 78.1378 308.558 78.1733 309.363 78.3127C308.669 77.9323 308.503 77.8967 307.697 77.7573Z" fill="#C8C8C8"/>
<path d="M287.146 80.5342V82.2004C287.535 81.3373 287.535 81.3973 287.146 80.5342Z" fill="#2A2A2A"/>
<path d="M326.765 80.9049C326.737 80.9354 326.704 81.5219 326.954 81.2748C326.982 81.2442 327.015 80.6577 326.765 80.9049Z" fill="#737373"/>
<path d="M326.765 82.0157C326.737 82.0462 326.704 82.6327 326.954 82.3856C326.982 82.355 327.015 81.7685 326.765 82.0157Z" fill="#3D3D3D"/>
<path d="M351.574 81.645V83.3112C351.963 82.4481 351.963 82.5081 351.574 81.645Z" fill="#C4C4C4"/>
<path d="M301.588 82.2007V83.8669C301.977 83.0038 301.977 83.0638 301.588 82.2007Z" fill="#C8C8C8"/>
<path d="M326.582 82.7559V84.4221C326.971 83.559 326.971 83.619 326.582 82.7559Z" fill="#7D7D7D"/>
<path d="M224.756 85.1625C224.509 85.4097 225.095 85.3786 225.126 85.348C225.373 85.1009 224.786 85.1319 224.756 85.1625Z" fill="#1E1E1E"/>
<path d="M228.088 85.1625C227.841 85.4097 228.427 85.3786 228.458 85.348C228.705 85.1009 228.119 85.1319 228.088 85.1625Z" fill="#505050"/>
<path d="M296.773 85.3482C296.745 85.3788 296.712 85.9653 296.962 85.7181C296.989 85.6876 297.023 85.1011 296.773 85.3482Z" fill="#7D7D7D"/>
<path d="M302.515 87.3842C302.265 87.6308 302.854 87.6002 302.881 87.5697C303.131 87.3225 302.543 87.3536 302.515 87.3842Z" fill="#8E8E8E"/>
<path d="M242.53 88.495C242.28 88.7422 242.869 88.7111 242.897 88.6805C243.147 88.4334 242.558 88.4645 242.53 88.495Z" fill="#808080"/>
<path d="M243.27 88.3101C243.964 88.6905 244.13 88.7261 244.936 88.8655C244.241 88.485 244.075 88.4495 243.27 88.3101Z" fill="#2E2E2E"/>
<path d="M245.308 88.495C245.058 88.7422 245.647 88.7111 245.674 88.6805C245.924 88.4334 245.336 88.4645 245.308 88.495Z" fill="#7B7B7B"/>
<path d="M241.048 89.1755C234.35 90.9328 232.006 99.5844 235.94 104.949C238.463 108.388 243.103 109.615 247.158 108.55C254.506 106.622 256.461 96.9734 251.485 91.7026C248.896 88.965 244.625 88.2363 241.048 89.1755Z" fill="white"/>
<path d="M294.367 88.8652V90.5315C294.756 89.6684 294.756 89.7283 294.367 88.8652Z" fill="#A4A4A4"/>
<path d="M296.033 89.4209V92.1979C296.494 91.0705 296.494 90.5484 296.033 89.4209Z" fill="#D0D0D0"/>
<path d="M322.138 89.4209L310.475 95.5304C312.152 99.5582 314.179 103.551 316.584 107.194C320.633 106.028 324.615 103.758 328.248 101.64C327.087 97.6021 324.821 92.6601 322.138 89.4209Z" fill="white"/>
<path d="M294.55 90.9024C294.522 90.9335 294.489 91.5189 294.739 91.2723C294.767 91.2418 294.8 90.6553 294.55 90.9024Z" fill="#232323"/>
<path d="M296.033 92.1978V94.9748C296.494 93.8473 296.494 93.3252 296.033 92.1978Z" fill="#7F7F7F"/>
<path d="M294.922 92.7534V94.4196C295.311 93.5565 295.311 93.6165 294.922 92.7534Z" fill="#C8C8C8"/>
<path d="M259.932 93.8643C258.266 98.7857 255.695 103.702 254.934 108.86C259.882 110.006 264.57 112.233 269.374 113.859C271.529 109.026 273.29 103.893 274.928 98.8629C269.841 97.475 265.081 95.0545 259.932 93.8643Z" fill="white"/>
<path d="M294.922 94.4194V96.0857C295.311 95.2226 295.311 95.2825 294.922 94.4194Z" fill="#797979"/>
<path d="M337.507 94.6049C337.257 94.8515 337.846 94.8215 337.874 94.7904C338.123 94.5432 337.535 94.5743 337.507 94.6049Z" fill="#7F7F7F"/>
<path d="M338.244 94.4194C338.938 94.7999 339.105 94.8354 339.91 94.9748C339.216 94.5944 339.049 94.5588 338.244 94.4194Z" fill="#252525"/>
<path d="M339.912 94.4194C340.606 94.7999 340.773 94.8354 341.578 94.9748C340.884 94.5944 340.717 94.5588 339.912 94.4194Z" fill="#7B7B7B"/>
<path d="M296.033 94.9751V97.7521C296.494 96.6247 296.494 96.1026 296.033 94.9751Z" fill="#CECECE"/>
<path d="M294.922 96.0859V98.3076C295.316 97.3301 295.316 97.0635 294.922 96.0859Z" fill="#2D2D2D"/>
<path d="M234.013 97.0118C233.982 97.0423 233.951 97.6288 234.198 97.3817C234.229 97.3511 234.26 96.7646 234.013 97.0118Z" fill="#1D1D1D"/>
<path d="M254.562 98.6778C254.534 98.7089 254.501 99.2943 254.751 99.0477C254.779 99.0172 254.812 98.4306 254.562 98.6778Z" fill="#CDCDCD"/>
<path d="M296.773 100.899C296.745 100.93 296.712 101.517 296.962 101.269C296.989 101.239 297.023 100.652 296.773 100.899Z" fill="#8C8C8C"/>
<path d="M305.477 101.084V102.751C305.865 101.888 305.865 101.948 305.477 101.084Z" fill="#CACACA"/>
<path d="M296.773 102.01C296.745 102.041 296.712 102.627 296.962 102.38C296.989 102.35 297.023 101.763 296.773 102.01Z" fill="#E7E7E7"/>
<path d="M285.109 102.566C285.081 102.597 285.048 103.182 285.298 102.936C285.325 102.905 285.359 102.319 285.109 102.566Z" fill="#CFCFCF"/>
<path d="M297.328 103.677C297.3 103.707 297.266 104.293 297.516 104.047C297.544 104.016 297.577 103.43 297.328 103.677Z" fill="#373737"/>
<path d="M294.922 103.861V105.528C295.311 104.664 295.311 104.724 294.922 103.861Z" fill="#2D2D2D"/>
<path d="M285.48 104.417V106.083C285.869 105.22 285.869 105.28 285.48 104.417Z" fill="#343434"/>
<path d="M304.92 104.972V111.082C305.714 109.188 305.714 106.866 304.92 104.972Z" fill="#2E2E2E"/>
<path d="M295.105 105.898C295.077 105.929 295.044 106.515 295.294 106.268C295.322 106.237 295.355 105.651 295.105 105.898Z" fill="#7E7E7E"/>
<path d="M285.48 106.083V108.86C285.941 107.733 285.941 107.21 285.48 106.083Z" fill="#808080"/>
<path d="M296.034 106.083C296.034 114.139 293.207 121.528 292.146 129.41C296.734 129.413 301.111 130.244 305.476 131.632C303.888 127.271 301.433 123.29 299.922 118.857C298.534 114.772 298.056 109.859 296.034 106.083Z" fill="white"/>
<path d="M295.105 107.009C295.077 107.039 295.044 107.625 295.294 107.379C295.322 107.348 295.355 106.762 295.105 107.009Z" fill="#E7E7E7"/>
<path d="M254.562 108.12C254.534 108.151 254.501 108.736 254.751 108.49C254.779 108.459 254.812 107.873 254.562 108.12Z" fill="#BCBCBC"/>
<path d="M295.479 108.305V109.971C295.867 109.108 295.867 109.168 295.479 108.305Z" fill="#C5C5C5"/>
<path d="M242.715 108.86C243.698 109.293 244.403 109.367 245.492 109.416C244.509 108.983 243.803 108.909 242.715 108.86Z" fill="#7F7F7F"/>
<path d="M285.48 108.86V111.082C285.875 110.104 285.875 109.837 285.48 108.86Z" fill="#2E2E2E"/>
<path d="M294.55 110.341C294.522 110.372 294.489 110.958 294.739 110.711C294.767 110.681 294.8 110.094 294.55 110.341Z" fill="#CCCCCC"/>
<path d="M295.661 110.341C295.634 110.372 295.6 110.958 295.85 110.711C295.878 110.681 295.911 110.094 295.661 110.341Z" fill="#7F7F7F"/>
<path d="M295.661 111.452C295.634 111.483 295.6 112.069 295.85 111.822C295.878 111.792 295.911 111.205 295.661 111.452Z" fill="#333333"/>
<path d="M293.811 112.748V114.414C294.2 113.551 294.2 113.611 293.811 112.748Z" fill="#A8A8A8"/>
<path d="M285.109 113.674C285.081 113.705 285.048 114.29 285.298 114.044C285.325 114.013 285.359 113.427 285.109 113.674Z" fill="#C0C0C0"/>
<path d="M305.477 113.859V115.525C305.865 114.662 305.865 114.722 305.477 113.859Z" fill="#A0A0A0"/>
<path d="M285.109 114.785C285.081 114.816 285.048 115.401 285.298 115.155C285.325 115.124 285.359 114.538 285.109 114.785Z" fill="#787878"/>
<path d="M285.109 115.896C285.081 115.927 285.048 116.512 285.298 116.265C285.325 116.235 285.359 115.648 285.109 115.896Z" fill="#272727"/>
<path d="M184.396 130.521C189.656 133.202 188.284 138.692 188.284 143.851V166.067C188.284 169.215 189.069 173.637 187.872 176.596C187.177 178.313 185.425 179.076 184.396 180.508C187.95 180.508 196.904 182.995 198.282 178.842C203.579 180.353 208.208 182.395 213.833 181.041C232.828 176.471 229.464 139.087 207.724 142.998C204.483 143.581 201.577 144.838 198.837 146.628C198.837 142.565 198.681 138.468 198.859 134.409C198.979 131.671 199.631 129.324 198.837 126.633C194.394 127.55 188.272 128.185 184.396 130.521Z" fill="white"/>
<path d="M0 129.41C1.19302 131.063 3.23637 131.844 4.03116 133.862C5.1542 136.715 4.44328 140.829 4.44328 143.851V166.067C4.44328 171.794 5.62075 177.239 0 180.508C2.19887 181.431 4.85428 181.063 7.22033 181.063H19.9948C18.7123 179.757 16.704 178.867 15.9636 177.117C15.146 175.184 15.5515 172.562 15.5515 170.511V156.625C17.0955 156.626 19.0422 156.364 20.4252 157.196C22.212 158.272 22.8762 160.964 23.7471 162.735C25.7399 166.787 27.58 170.902 29.5723 174.954C30.3648 176.566 30.9308 178.88 32.2105 180.173C33.3363 181.311 35.1969 181.061 36.6571 181.063H46.6544C45.1876 179.673 43.362 178.744 42.094 177.123C37.0797 170.716 34.6459 161.981 30.5476 154.959C33.4074 153.768 36.4877 152.413 38.4405 149.909C43.4242 143.518 41.0787 134.889 33.88 131.519C29.2568 129.355 23.8793 129.41 18.8839 129.41H0Z" fill="white"/>
<path d="M26.4747 129.596C26.2275 129.843 26.814 129.812 26.8446 129.781C27.0917 129.534 26.5052 129.565 26.4747 129.596Z" fill="#353535"/>
<path d="M291.59 129.41C293.039 130.02 294.456 129.962 296.033 129.966C294.584 129.356 293.167 129.414 291.59 129.41Z" fill="#7F7F7F"/>
<path d="M296.033 129.41C296.727 129.791 296.894 129.826 297.699 129.966C297.005 129.585 296.839 129.55 296.033 129.41Z" fill="#2B2B2B"/>
<path d="M286.964 130.151C286.714 130.397 287.303 130.367 287.331 130.336C287.58 130.089 286.992 130.12 286.964 130.151Z" fill="#9F9F9F"/>
<path d="M299.737 130.151C299.488 130.397 300.076 130.367 300.104 130.336C300.354 130.089 299.765 130.12 299.737 130.151Z" fill="#707070"/>
<path d="M15.5508 131.077V154.959C16.4128 152.905 16.1062 150.507 16.1062 148.294C16.1062 143.262 17.4986 135.718 15.5508 131.077Z" fill="#D0D0D0"/>
<path d="M16.1074 131.077V154.959C19.416 154.891 23.9704 154.865 26.5414 152.519C30.7414 148.685 31.1018 136.824 26.5414 133.106C23.7626 130.84 19.4732 131.077 16.1074 131.077Z" fill="black"/>
<path d="M22.0313 131.262C21.7842 131.509 22.3707 131.478 22.4012 131.447C22.6484 131.2 22.0619 131.231 22.0313 131.262Z" fill="#BFBFBF"/>
<path d="M198.836 131.632V136.631C199.534 134.968 199.534 133.295 198.836 131.632Z" fill="#2F2F2F"/>
<path d="M3.88867 133.298V134.965C4.27524 134.101 4.27524 134.161 3.88867 133.298Z" fill="#2E2E2E"/>
<path d="M187.729 133.298V176.62C189.059 173.451 188.284 168.93 188.284 165.512V143.851C188.284 140.581 189.002 136.332 187.729 133.298Z" fill="#CFCFCF"/>
<path d="M309.735 133.483C309.486 133.73 310.074 133.7 310.102 133.669C310.352 133.422 309.763 133.453 309.735 133.483Z" fill="#C9C9C9"/>
<path d="M3.88867 134.965V175.51C5.10446 172.613 4.44408 168.633 4.44408 165.512V145.518C4.44408 142.248 5.16167 137.998 3.88867 134.965Z" fill="#7F7F7F"/>
<path d="M287.703 148.295H300.478C299.8 144.816 298.834 137.681 294.873 136.302C293.213 135.724 291.835 137.109 290.925 138.322C288.875 141.058 287.859 144.931 287.703 148.295Z" fill="white"/>
<path d="M198.836 136.63V146.072C199.882 143.581 199.882 139.122 198.836 136.63Z" fill="#7F7F7F"/>
<path d="M284.925 137.186C280.11 140.026 275.367 142.82 273.262 148.294C275.639 148.294 279.249 148.971 281.437 147.959C283.931 146.808 285.631 139.572 284.925 137.186Z" fill="white"/>
<path d="M302.515 137.371C302.265 137.618 302.854 137.587 302.881 137.556C303.131 137.309 302.543 137.34 302.515 137.371Z" fill="#5B5B5B"/>
<path d="M302.699 137.741C303.06 140.18 303.86 146.756 306.271 147.959C308.487 149.064 312.48 148.294 314.918 148.294C312.536 143.283 308.053 139.287 302.699 137.741Z" fill="white"/>
<path d="M29.622 139.778C29.5914 139.809 29.5603 140.395 29.8075 140.148C29.838 140.118 29.8691 139.531 29.622 139.778Z" fill="#A2A2A2"/>
<path d="M29.4355 140.519V145.517C30.1331 143.854 30.1331 142.181 29.4355 140.519Z" fill="#CCCCCC"/>
<path d="M41.286 140.889C41.2555 140.92 41.2244 141.506 41.4715 141.259C41.5021 141.229 41.5332 140.642 41.286 140.889Z" fill="#C1C1C1"/>
<path d="M41.0996 141.629V143.296C41.4862 142.433 41.4862 142.493 41.0996 141.629Z" fill="#7D7D7D"/>
<path d="M48.877 148.85C50.6465 149.466 51.9784 150.256 52.5238 152.191C53.2391 154.728 52.7648 157.897 52.7648 160.513C52.7648 165.459 53.8357 171.851 52.4466 176.617C51.8762 178.576 50.5432 179.518 48.877 180.508C50.9314 181.37 53.3297 181.064 55.5419 181.064H67.2055C66.1247 179.991 64.7639 179.085 64.0491 177.701C61.9197 173.577 63.3176 166.176 63.3176 161.624C63.3176 158.831 62.8089 155.459 63.4942 152.738C64.3296 149.421 68.8217 146.582 72.2014 147.432C76.1004 148.414 76.0871 152.837 76.0921 156.07V169.955C76.0921 172.194 76.5336 175.033 75.6799 177.152C75.0279 178.769 73.5955 179.602 72.2042 180.508C74.2586 181.37 76.6569 181.064 78.8691 181.064H89.9773C89.0803 179.714 87.6618 178.719 87.057 177.166C86.3366 175.317 86.6448 173.01 86.6448 171.066V159.958C86.6448 157.511 85.9284 154.055 86.5832 151.723C87.4618 148.595 92.6288 146.643 95.5214 147.548C99.3187 148.738 98.8639 152.865 98.8639 156.07V169.4C98.8639 173.983 99.4309 177.437 95.5314 180.508C97.5859 181.37 99.9841 181.064 102.196 181.064H113.305C112.008 179.136 110.11 177.956 109.608 175.509C109.204 173.546 109.417 171.393 109.417 169.4C109.417 161.164 112.948 144.588 101.641 142.907C100.364 142.717 99.0366 142.699 97.7531 142.837C95.798 143.046 93.9552 143.693 92.1989 144.558C89.6557 145.812 87.574 147.458 85.534 149.405C85.0314 148.054 84.5287 146.736 83.5579 145.635C77.6744 138.961 68.1236 144.702 63.3176 149.405C63.2199 147.13 62.8927 144.91 62.2068 142.74C58.4017 144.208 51.2186 145.418 48.877 148.85Z" fill="white"/>
<path d="M116.637 148.85C118.406 149.466 119.738 150.255 120.284 152.191C120.999 154.728 120.525 157.897 120.525 160.513C120.525 165.459 121.595 171.851 120.206 176.617C119.636 178.576 118.303 179.518 116.637 180.508C118.691 181.37 121.089 181.064 123.302 181.064H134.965C133.906 179.992 132.646 179.076 131.951 177.701C129.775 173.403 131.077 166.329 131.077 161.624C131.077 158.831 130.569 155.459 131.254 152.738C132.087 149.432 136.58 146.572 139.956 147.432C143.551 148.349 143.836 152.464 143.851 155.515C143.875 160.328 143.852 165.142 143.852 169.955C143.852 174.499 144.291 177.953 139.964 180.508C142.018 181.37 144.417 181.064 146.629 181.064H157.737C156.84 179.714 155.422 178.719 154.817 177.166C153.868 174.73 154.405 171.414 154.405 168.845C154.405 162.799 154.956 156.476 153.849 150.516C156.935 149.22 160.26 145.957 163.822 147.839C167.126 149.583 166.624 153.473 166.624 156.625V169.955C166.624 174.397 167.054 177.546 163.291 180.508C165.346 181.37 167.744 181.064 169.956 181.064H181.064C179.767 179.136 177.87 177.956 177.367 175.509C176.964 173.545 177.176 171.393 177.176 169.4C177.176 161.134 180.708 144.574 169.401 142.907C168.123 142.719 166.797 142.699 165.513 142.837C163.558 143.046 161.715 143.693 159.959 144.558C157.415 145.812 155.334 147.458 153.294 149.405C149.21 138.427 137.224 143.39 131.077 149.405C130.98 147.13 130.652 144.91 129.967 142.74C126.161 144.208 118.978 145.418 116.637 148.85Z" fill="white"/>
<path d="M146.443 142.925C146.196 143.172 146.783 143.141 146.813 143.111C147.06 142.864 146.474 142.895 146.443 142.925Z" fill="#4C4C4C"/>
<path d="M243.825 149.961L243.27 143.296C239.443 143.63 231.641 144.998 229.385 148.295C231.377 148.989 232.737 149.972 233.146 152.185C233.731 155.352 233.273 158.966 233.273 162.18C233.273 166.55 233.699 171.167 233.212 175.51C232.936 177.975 231.681 179.293 229.385 179.953V181.064H249.38C247.824 179.684 245.708 179.105 244.697 177.146C243.575 174.971 243.825 172.321 243.825 169.956C243.825 165.302 243.181 160.102 244.009 155.515C244.364 153.545 245.581 150.817 247.563 149.982C249.124 149.326 250.496 151.154 251.601 151.973C254.056 153.788 257.394 154.643 259.693 152.056C263.165 148.144 259.716 142.7 254.934 142.817C249.968 142.937 247.219 147.024 243.825 149.961Z" fill="white"/>
<path d="M331.58 148.85C333.352 149.466 334.679 150.256 335.229 152.191C335.94 154.728 335.468 157.897 335.468 160.513C335.468 165.459 336.54 171.851 335.151 176.617C334.579 178.576 333.246 179.518 331.58 180.508C333.635 181.37 336.034 181.064 338.245 181.064H349.909C348.826 179.991 347.465 179.085 346.754 177.701C344.621 173.577 346.021 166.176 346.021 161.624C346.021 158.831 345.51 155.459 346.198 152.738C347.032 149.421 351.525 146.583 354.907 147.432C358.906 148.439 358.795 152.777 358.795 156.07V169.955C358.795 174.499 359.234 177.953 354.907 180.508C356.962 181.37 359.362 181.064 361.572 181.064H372.68C371.786 179.714 370.364 178.719 369.759 177.166C368.809 174.73 369.348 171.414 369.348 168.845C369.348 162.799 369.898 156.476 368.793 150.516C371.881 149.22 375.202 145.957 378.768 147.839C382.067 149.583 381.567 153.473 381.567 156.626V169.955C381.567 174.397 381.995 177.546 378.235 180.508C380.29 181.37 382.689 181.064 384.899 181.064H396.008C394.808 179.651 393.297 178.391 392.614 176.618C391.709 174.266 392.12 171.317 392.12 168.845C392.12 162.713 393.208 155.4 391.903 149.405C390.215 141.662 380.612 141.743 374.902 144.558C372.358 145.812 370.276 147.458 368.237 149.405C367.737 148.055 367.232 146.736 366.26 145.635C360.378 138.961 350.825 144.702 346.021 149.405C345.921 147.13 345.599 144.91 344.91 142.74C341.105 144.208 333.924 145.418 331.58 148.85Z" fill="white"/>
<path d="M434.33 172.177C431.247 173.481 428.864 175.863 425.443 176.439C415.573 178.103 411.369 169.555 411.002 161.069H434.33C434.885 156.598 434.58 152.068 431.753 148.317C423.138 136.87 403.182 143.949 400.272 156.626C398.533 164.211 400.205 173.08 406.559 177.993C414.735 184.312 430.308 182.559 434.33 172.177Z" fill="white"/>
<path d="M421.929 142.925C421.679 143.172 422.268 143.141 422.295 143.111C422.545 142.864 421.957 142.895 421.929 142.925Z" fill="#5C5C5C"/>
<path d="M41.286 143.666C41.2555 143.697 41.2244 144.283 41.4715 144.036C41.5021 144.005 41.5332 143.419 41.286 143.666Z" fill="#D3D3D3"/>
<path d="M130.521 143.852V145.518C130.908 144.655 130.908 144.715 130.521 143.852Z" fill="#878787"/>
<path d="M243.453 144.221C243.425 144.252 243.391 144.838 243.641 144.591C243.669 144.561 243.702 143.974 243.453 144.221Z" fill="#5A5A5A"/>
<path d="M62.9462 144.777C62.9156 144.807 62.8845 145.394 63.1317 145.147C63.1622 145.116 63.1933 144.53 62.9462 144.777Z" fill="#606060"/>
<path d="M345.648 144.777C345.62 144.808 345.587 145.393 345.837 145.147C345.864 145.116 345.898 144.53 345.648 144.777Z" fill="#727272"/>
<path d="M411.559 159.403H424.333C424.333 155.869 425.2 150.974 423.522 147.749C421.44 143.743 416.185 143.629 413.614 147.215C411.209 150.574 411.559 155.494 411.559 159.403Z" fill="black"/>
<path d="M243.453 145.332C243.425 145.363 243.391 145.949 243.641 145.702C243.669 145.671 243.702 145.085 243.453 145.332Z" fill="#373737"/>
<path d="M29.622 145.888C29.5914 145.918 29.5603 146.505 29.8075 146.258C29.838 146.227 29.8691 145.641 29.622 145.888Z" fill="#656565"/>
<path d="M62.9462 145.888C62.9156 145.918 62.8845 146.505 63.1317 146.258C63.1622 146.227 63.1933 145.641 62.9462 145.888Z" fill="#2D2D2D"/>
<path d="M130.706 145.888C130.675 145.918 130.644 146.505 130.891 146.258C130.922 146.227 130.953 145.641 130.706 145.888Z" fill="#353535"/>
<path d="M345.648 145.888C345.62 145.919 345.587 146.504 345.837 146.258C345.864 146.227 345.898 145.641 345.648 145.888Z" fill="#2A2A2A"/>
<path d="M203.65 146.258C203.403 146.505 203.99 146.474 204.02 146.443C204.268 146.196 203.681 146.227 203.65 146.258Z" fill="#808080"/>
<path d="M204.391 146.073C205.53 146.559 206.472 146.603 207.723 146.629C206.583 146.143 205.642 146.099 204.391 146.073Z" fill="#CFCFCF"/>
<path d="M202.18 146.991C198.161 148.308 199.393 153.858 199.393 157.181V171.066C199.393 172.707 198.907 175.387 199.964 176.785C201.459 178.764 206.149 178.636 208.277 178.045C211.98 177.019 213.065 172.733 213.589 169.4C214.849 161.4 215.288 142.695 202.18 146.991Z" fill="black"/>
<path d="M69.4277 147.184C70.5674 147.669 71.5089 147.713 72.7602 147.739C71.6205 147.254 70.6791 147.21 69.4277 147.184Z" fill="#CFCFCF"/>
<path d="M92.7539 147.184C93.7364 147.616 94.4401 147.69 95.531 147.739C94.5484 147.306 93.8447 147.232 92.7539 147.184Z" fill="#D0D0D0"/>
<path d="M137.188 147.184C138.327 147.669 139.269 147.713 140.52 147.739C139.38 147.254 138.439 147.21 137.188 147.184Z" fill="#CECECE"/>
<path d="M160.514 147.184C161.496 147.616 162.2 147.69 163.291 147.739C162.308 147.306 161.604 147.232 160.514 147.184Z" fill="#CFCFCF"/>
<path d="M229.015 147.554C228.984 147.584 228.953 148.171 229.2 147.924C229.231 147.893 229.262 147.307 229.015 147.554Z" fill="#D3D3D3"/>
<path d="M244.009 147.554C243.981 147.584 243.948 148.171 244.198 147.924C244.226 147.893 244.259 147.307 244.009 147.554Z" fill="#CACACA"/>
<path d="M261.043 147.184V149.405C261.437 148.428 261.437 148.161 261.043 147.184Z" fill="#C7C7C7"/>
<path d="M352.131 147.184C353.114 147.616 353.819 147.69 354.908 147.739C353.925 147.306 353.219 147.232 352.131 147.184Z" fill="#D6D6D6"/>
<path d="M375.457 147.184C376.44 147.616 377.145 147.69 378.234 147.739C377.251 147.306 376.546 147.232 375.457 147.184Z" fill="#D2D2D2"/>
<path d="M48.5048 148.109C48.4742 148.14 48.4431 148.727 48.6903 148.479C48.7208 148.449 48.7519 147.862 48.5048 148.109Z" fill="#D4D4D4"/>
<path d="M116.267 148.109C116.236 148.14 116.205 148.727 116.452 148.479C116.483 148.449 116.514 147.862 116.267 148.109Z" fill="#D9D9D9"/>
<path d="M272.707 147.739C274.357 149.627 278.117 148.85 280.483 148.85C278.106 147.852 275.251 148.345 272.707 147.739Z" fill="#7E7E7E"/>
<path d="M331.208 148.109C331.181 148.141 331.147 148.726 331.397 148.479C331.425 148.449 331.458 147.862 331.208 148.109Z" fill="#D3D3D3"/>
<path d="M243.824 148.294C244.052 149.456 243.946 149.416 244.935 149.96C244.552 149.189 244.391 148.927 243.824 148.294Z" fill="#8C8C8C"/>
<path d="M280.855 148.479C280.605 148.727 281.193 148.695 281.221 148.665C281.471 148.418 280.882 148.449 280.855 148.479Z" fill="#414141"/>
<path d="M287.146 148.295C290.862 149.853 296.461 148.85 300.476 148.85C296.761 147.292 291.162 148.295 287.146 148.295Z" fill="#7E7E7E"/>
<path d="M306.031 148.294C308.653 149.395 312.091 148.85 314.918 148.85C312.296 147.749 308.858 148.294 306.031 148.294Z" fill="#7E7E7E"/>
<path d="M49.8009 149.035C49.5537 149.282 50.1402 149.251 50.1708 149.22C50.4179 148.973 49.8314 149.004 49.8009 149.035Z" fill="#9E9E9E"/>
<path d="M424.517 150.331C424.489 150.362 424.456 150.948 424.706 150.701C424.734 150.67 424.767 150.084 424.517 150.331Z" fill="#2E2E2E"/>
<path d="M98.4931 150.886C98.4625 150.917 98.4314 151.503 98.6786 151.256C98.7091 151.226 98.7402 150.639 98.4931 150.886Z" fill="#D5D5D5"/>
<path d="M166.253 150.886C166.222 150.917 166.191 151.503 166.438 151.256C166.469 151.226 166.5 150.639 166.253 150.886Z" fill="#D6D6D6"/>
<path d="M381.195 150.886C381.167 150.917 381.134 151.503 381.384 151.256C381.411 151.226 381.445 150.639 381.195 150.886Z" fill="#D5D5D5"/>
<path d="M52.209 151.071V177.176C53.1315 174.977 52.7644 172.321 52.7644 169.955V157.736C52.7644 155.524 53.071 153.126 52.209 151.071Z" fill="#7E7E7E"/>
<path d="M63.3164 151.071V177.176C64.2389 174.977 63.8718 172.321 63.8718 169.955V157.736C63.8718 155.524 64.1784 153.126 63.3164 151.071Z" fill="#2F2F2F"/>
<path d="M75.5352 151.071V177.176C76.3972 175.121 76.0906 172.723 76.0906 170.511V158.292C76.0906 155.926 76.4577 153.27 75.5352 151.071Z" fill="#7F7F7F"/>
<path d="M109.416 151.071V176.62C110.278 174.566 109.971 172.167 109.971 169.955V158.292C109.971 155.926 110.339 153.27 109.416 151.071Z" fill="#2E2E2E"/>
<path d="M119.969 151.071V177.176C120.891 174.977 120.524 172.321 120.524 169.955V157.736C120.524 155.524 120.831 153.126 119.969 151.071Z" fill="#7F7F7F"/>
<path d="M131.076 151.071V176.62C131.938 174.566 131.632 172.167 131.632 169.955V158.292C131.632 155.926 131.999 153.27 131.076 151.071Z" fill="#2F2F2F"/>
<path d="M143.295 151.071V177.176C144.157 175.121 143.85 172.723 143.85 170.511V158.292C143.85 155.926 144.217 153.27 143.295 151.071Z" fill="#7F7F7F"/>
<path d="M177.176 151.071V176.62C178.038 174.566 177.731 172.167 177.731 169.955V158.292C177.731 155.926 178.098 153.27 177.176 151.071Z" fill="#2F2F2F"/>
<path d="M232.717 151.071V176.62C233.639 174.421 233.272 171.766 233.272 169.4V157.736C233.272 155.524 233.579 153.126 232.717 151.071Z" fill="#D0D0D0"/>
<path d="M334.912 151.071V177.176C335.773 175.122 335.468 172.723 335.468 170.511V158.292C335.468 155.926 335.834 153.27 334.912 151.071Z" fill="#7F7F7F"/>
<path d="M346.02 151.071V177.176C346.942 174.977 346.575 172.321 346.575 169.955V157.736C346.575 155.524 346.88 153.126 346.02 151.071Z" fill="#2F2F2F"/>
<path d="M358.24 151.071V177.176C359.101 175.122 358.796 172.723 358.796 170.511V158.292C358.796 155.926 359.162 153.27 358.24 151.071Z" fill="#7F7F7F"/>
<path d="M392.119 151.071V176.62C392.98 174.566 392.675 172.167 392.675 169.955V158.292C392.675 155.926 393.041 153.27 392.119 151.071Z" fill="#2F2F2F"/>
<path d="M424.334 151.071V152.738C424.723 151.874 424.723 151.934 424.334 151.071Z" fill="#7A7A7A"/>
<path d="M424.334 152.738V155.515C424.795 154.388 424.795 153.866 424.334 152.738Z" fill="#CFCFCF"/>
<path d="M281.594 166.068V153.293C279.055 153.293 273.446 152.237 271.374 153.864C269.236 155.546 269.147 164.449 271.774 165.733C274.268 166.953 278.844 166.068 281.594 166.068Z" fill="white"/>
<path d="M281.594 153.293V166.068C282.86 163.045 282.86 156.317 281.594 153.293Z" fill="#CFCFCF"/>
<path d="M286.593 153.293C286.593 161.188 286.132 169.08 288.942 176.62C289.692 178.64 290.925 182.739 293.358 183.301C296.39 184.003 298.112 179.274 298.917 177.176C301.805 169.639 301.655 161.173 301.033 153.293H286.593Z" fill="white"/>
<path d="M306.031 166.067C307.475 162.623 306.587 157.571 306.587 153.848H317.14C315.09 152.988 307.553 152.169 306.365 154.58C304.965 157.433 306.031 162.915 306.031 166.067Z" fill="#2F2F2F"/>
<path d="M286.037 153.849V156.626C286.498 155.499 286.498 154.977 286.037 153.849Z" fill="#CCCCCC"/>
<path d="M301.031 153.849V156.071C301.426 155.093 301.426 154.827 301.031 153.849Z" fill="#2E2E2E"/>
<path d="M306.588 153.849V166.068H317.141C317.896 162.003 317.896 157.915 317.141 153.849H306.588Z" fill="white"/>
<path d="M19.4395 154.404C20.2759 154.784 20.7252 154.863 21.6611 154.96C20.8246 154.58 20.3753 154.501 19.4395 154.404Z" fill="#CBCBCB"/>
<path d="M86.6445 154.404V177.176C87.5065 175.122 87.1999 172.723 87.1999 170.511C87.1999 165.771 88.4807 158.78 86.6445 154.404Z" fill="#D0D0D0"/>
<path d="M154.404 154.404V177.176C155.266 175.122 154.96 172.723 154.96 170.511C154.96 165.771 156.24 158.78 154.404 154.404Z" fill="#CFCFCF"/>
<path d="M243.824 154.404V176.065C245.607 171.823 244.38 165.108 244.38 160.514C244.38 158.457 244.624 156.312 243.824 154.404Z" fill="#2F2F2F"/>
<path d="M369.348 154.404V177.176C371.186 172.8 369.903 165.809 369.903 161.069C369.903 158.857 370.209 156.459 369.348 154.404Z" fill="#CFCFCF"/>
<path d="M434.515 154.774C434.487 154.806 434.454 155.391 434.704 155.144C434.732 155.114 434.765 154.527 434.515 154.774Z" fill="#585858"/>
<path d="M411.004 154.959V156.625C411.393 155.763 411.393 155.822 411.004 154.959Z" fill="#2B2B2B"/>
<path d="M213.834 155.515V157.181C214.221 156.318 214.221 156.378 213.834 155.515Z" fill="#1D1D1D"/>
<path d="M270.113 155.885C270.085 155.916 270.052 156.501 270.302 156.255C270.329 156.224 270.363 155.638 270.113 155.885Z" fill="#6E6E6E"/>
<path d="M424.334 155.515V158.292C424.795 157.164 424.795 156.642 424.334 155.515Z" fill="#7E7E7E"/>
<path d="M434.515 155.885C434.487 155.916 434.454 156.501 434.704 156.255C434.732 156.224 434.765 155.638 434.515 155.885Z" fill="#2B2B2B"/>
<path d="M225.683 156.44C225.652 156.471 225.621 157.058 225.868 156.81C225.899 156.78 225.93 156.193 225.683 156.44Z" fill="#737373"/>
<path d="M15.5508 156.625V176.065C17.107 172.356 16.1062 166.743 16.1062 162.735C16.1062 160.678 16.3511 158.533 15.5508 156.625Z" fill="#D0D0D0"/>
<path d="M270.113 156.996C270.085 157.027 270.052 157.612 270.302 157.366C270.329 157.335 270.363 156.749 270.113 156.996Z" fill="#1A1A1A"/>
<path d="M286.037 156.625V163.846C286.92 161.74 286.92 158.731 286.037 156.625Z" fill="#7C7C7C"/>
<path d="M317.878 156.996C317.851 157.027 317.817 157.612 318.067 157.366C318.095 157.335 318.128 156.749 317.878 156.996Z" fill="#C2C2C2"/>
<path d="M411.004 156.625V159.403C411.465 158.275 411.465 157.753 411.004 156.625Z" fill="#838383"/>
<path d="M213.834 157.181V159.402C214.228 158.425 214.228 158.158 213.834 157.181Z" fill="#818181"/>
<path d="M225.683 157.551C225.652 157.582 225.621 158.168 225.868 157.921C225.899 157.891 225.93 157.304 225.683 157.551Z" fill="#292929"/>
<path d="M317.693 157.736V161.624C318.282 160.217 318.282 159.144 317.693 157.736Z" fill="#7F7F7F"/>
<path d="M424.517 158.662C424.489 158.693 424.456 159.279 424.706 159.032C424.734 159.002 424.767 158.415 424.517 158.662Z" fill="#444444"/>
<path d="M399.523 159.217C399.495 159.248 399.462 159.834 399.712 159.587C399.739 159.557 399.773 158.97 399.523 159.217Z" fill="#7E7E7E"/>
<path d="M434.515 159.217C434.487 159.248 434.454 159.834 434.704 159.587C434.732 159.557 434.765 158.97 434.515 159.217Z" fill="#313131"/>
<path d="M213.834 159.403V164.402C214.532 162.739 214.532 161.066 213.834 159.403Z" fill="#CFCFCF"/>
<path d="M399.34 159.958V164.402C399.984 162.863 399.984 161.497 399.34 159.958Z" fill="#303030"/>
<path d="M434.515 160.328C434.487 160.359 434.454 160.945 434.704 160.698C434.732 160.668 434.765 160.081 434.515 160.328Z" fill="#868686"/>
<path d="M411.004 161.069V163.291C411.398 162.313 411.398 162.047 411.004 161.069Z" fill="#797979"/>
<path d="M317.878 161.995C317.851 162.026 317.817 162.611 318.067 162.365C318.095 162.334 318.128 161.748 317.878 161.995Z" fill="#D4D4D4"/>
<path d="M270.113 162.55C270.085 162.581 270.052 163.166 270.302 162.92C270.329 162.889 270.363 162.303 270.113 162.55Z" fill="#575757"/>
<path d="M301.031 163.291V165.513C301.426 164.535 301.426 164.269 301.031 163.291Z" fill="#272727"/>
<path d="M411.187 163.661C411.159 163.691 411.126 164.278 411.376 164.031C411.404 164 411.437 163.414 411.187 163.661Z" fill="#2A2A2A"/>
<path d="M286.037 163.846V166.068C286.431 165.09 286.431 164.824 286.037 163.846Z" fill="#D0D0D0"/>
<path d="M399.34 164.402V166.068C399.729 165.205 399.729 165.265 399.34 164.402Z" fill="#7F7F7F"/>
<path d="M213.834 164.957V166.623C214.221 165.76 214.221 165.82 213.834 164.957Z" fill="#7B7B7B"/>
<path d="M225.683 165.327C225.652 165.358 225.621 165.944 225.868 165.697C225.899 165.667 225.93 165.08 225.683 165.327Z" fill="#383838"/>
<path d="M301.031 165.512V167.178C301.42 166.315 301.42 166.375 301.031 165.512Z" fill="#737373"/>
<path d="M225.683 166.438C225.652 166.469 225.621 167.055 225.868 166.808C225.899 166.777 225.93 166.191 225.683 166.438Z" fill="#858585"/>
<path d="M213.834 166.623V168.289C214.221 167.426 214.221 167.486 213.834 166.623Z" fill="#373737"/>
<path d="M301.216 167.549C301.188 167.58 301.155 168.166 301.405 167.919C301.433 167.889 301.466 167.302 301.216 167.549Z" fill="#CFCFCF"/>
<path d="M286.775 168.66C286.747 168.691 286.714 169.277 286.964 169.03C286.991 169 287.025 168.413 286.775 168.66Z" fill="#858585"/>
<path d="M300.66 170.326C300.632 170.357 300.598 170.942 300.848 170.696C300.876 170.665 300.909 170.079 300.66 170.326Z" fill="#8C8C8C"/>
<path d="M272.707 170.511C275.467 171.67 279.172 171.067 282.149 171.067C279.389 169.907 275.684 170.511 272.707 170.511ZM305.476 170.511C308.498 171.779 312.236 170.852 315.474 171.622C313.58 169.453 308.214 170.511 305.476 170.511Z" fill="#D0D0D0"/>
<path d="M273.262 171.066C275.089 176.577 280.343 180.024 285.481 182.174C284.87 179.502 284.142 173.331 281.837 171.637C279.921 170.227 275.544 171.066 273.262 171.066Z" fill="white"/>
<path d="M305.476 171.066C304.665 174.606 303.227 178.028 302.699 181.619C308.003 180.593 312.663 175.805 314.918 171.066H305.476Z" fill="white"/>
<path d="M3.88867 175.509V177.176C4.27524 176.312 4.27524 176.372 3.88867 175.509Z" fill="#313131"/>
<path d="M421.002 176.065C422.452 176.675 423.868 176.617 425.445 176.621C423.996 176.011 422.579 176.069 421.002 176.065Z" fill="#D0D0D0"/>
<path d="M203.836 178.287C204.976 178.773 205.917 178.816 207.168 178.843C206.029 178.357 205.087 178.313 203.836 178.287Z" fill="#CECECE"/>
<path d="M186.062 180.509C186.756 180.889 186.923 180.925 187.729 181.064C187.036 180.684 186.869 180.648 186.062 180.509Z" fill="#CACACA"/>
<path d="M187.729 180.509C188.422 180.889 188.589 180.925 189.395 181.064C188.702 180.684 188.535 180.648 187.729 180.509Z" fill="#838383"/>
<path d="M189.395 180.509C190.088 180.889 190.254 180.925 191.061 181.064C190.368 180.684 190.201 180.648 189.395 180.509Z" fill="#252525"/>
<path d="M193.283 181.064C193.976 181.444 194.143 181.48 194.949 181.619C194.256 181.239 194.09 181.203 193.283 181.064Z" fill="#D0D0D0"/>
<path d="M194.949 181.064C195.642 181.444 195.809 181.48 196.615 181.619C195.922 181.239 195.755 181.203 194.949 181.064Z" fill="#7D7D7D"/>
<path d="M196.984 181.248C196.737 181.496 197.324 181.464 197.354 181.434C197.602 181.187 197.015 181.218 196.984 181.248Z" fill="#1F1F1F"/>
<path d="M206.428 181.248C206.181 181.496 206.767 181.464 206.798 181.434C207.045 181.187 206.458 181.218 206.428 181.248Z" fill="#2B2B2B"/>
<path d="M413.597 181.248C413.347 181.495 413.936 181.464 413.963 181.434C414.213 181.187 413.625 181.218 413.597 181.248Z" fill="#A1A1A1"/>
<path d="M422.484 181.248C422.234 181.495 422.822 181.464 422.85 181.434C423.1 181.187 422.511 181.218 422.484 181.248Z" fill="#A7A7A7"/>
<path d="M62.4041 235.003C61.7853 233.702 60.8892 232.699 59.7157 231.995C58.5423 231.269 57.1768 230.907 55.6192 230.907C54.0617 230.907 52.6535 231.269 51.3947 231.995C50.1572 232.699 49.1757 233.723 48.4503 235.067C47.7462 236.39 47.3942 237.926 47.3942 239.676C47.3942 241.425 47.7462 242.962 48.4503 244.284C49.1757 245.607 50.1572 246.631 51.3947 247.357C52.6535 248.061 54.0617 248.413 55.6192 248.413C57.7955 248.413 59.5877 247.762 60.9959 246.461C62.4041 245.159 63.2255 243.399 63.4602 241.18H54.5631V238.812H66.5646V241.052C66.3939 242.887 65.8178 244.572 64.8364 246.109C63.8549 247.623 62.5641 248.829 60.9639 249.725C59.3637 250.6 57.5821 251.037 55.6192 251.037C53.5496 251.037 51.6614 250.557 49.9545 249.597C48.2476 248.616 46.8928 247.261 45.89 245.533C44.9085 243.804 44.4178 241.852 44.4178 239.676C44.4178 237.5 44.9085 235.547 45.89 233.819C46.8928 232.069 48.2476 230.715 49.9545 229.755C51.6614 228.773 53.5496 228.282 55.6192 228.282C57.9875 228.282 60.0785 228.869 61.892 230.043C63.7269 231.216 65.0604 232.87 65.8925 235.003H62.4041ZM73.3277 236.155C73.8398 235.153 74.5652 234.374 75.504 233.819C76.4641 233.264 77.6269 232.987 78.9924 232.987V235.995H78.2243C74.9599 235.995 73.3277 237.766 73.3277 241.308V250.845H70.4153V233.307H73.3277V236.155ZM90.0033 251.133C88.3605 251.133 86.8669 250.76 85.5228 250.013C84.1999 249.266 83.1545 248.21 82.3864 246.845C81.6396 245.458 81.2662 243.858 81.2662 242.044C81.2662 240.252 81.6503 238.673 82.4184 237.307C83.2078 235.921 84.2746 234.865 85.6188 234.139C86.9629 233.392 88.4671 233.019 90.1313 233.019C91.7956 233.019 93.2997 233.392 94.6439 234.139C95.9881 234.865 97.0442 235.91 97.8123 237.275C98.6018 238.641 98.9965 240.231 98.9965 242.044C98.9965 243.858 98.5911 245.458 97.7803 246.845C96.9909 248.21 95.9134 249.266 94.5479 250.013C93.1824 250.76 91.6675 251.133 90.0033 251.133ZM90.0033 248.573C91.0488 248.573 92.0303 248.328 92.9477 247.837C93.8652 247.346 94.6012 246.61 95.156 245.629C95.7321 244.647 96.0201 243.452 96.0201 242.044C96.0201 240.636 95.7427 239.441 95.188 238.46C94.6332 237.478 93.9078 236.753 93.0117 236.283C92.1156 235.793 91.1448 235.547 90.0993 235.547C89.0325 235.547 88.0511 235.793 87.155 236.283C86.2802 236.753 85.5761 237.478 85.0427 238.46C84.5093 239.441 84.2426 240.636 84.2426 242.044C84.2426 243.474 84.4986 244.679 85.0107 245.661C85.5441 246.642 86.2482 247.378 87.123 247.869C87.9977 248.338 88.9579 248.573 90.0033 248.573ZM126.189 233.307L120.716 250.845H117.708L113.483 236.923L109.259 250.845H106.25L100.745 233.307H103.722L107.754 248.029L112.107 233.307H115.083L119.34 248.061L123.308 233.307H126.189ZM152.717 233.307L142.156 259.102H139.148L142.604 250.653L135.531 233.307H138.764L144.268 247.517L149.709 233.307H152.717ZM163.294 251.133C161.651 251.133 160.157 250.76 158.813 250.013C157.49 249.266 156.445 248.21 155.677 246.845C154.93 245.458 154.557 243.858 154.557 242.044C154.557 240.252 154.941 238.673 155.709 237.307C156.498 235.921 157.565 234.865 158.909 234.139C160.254 233.392 161.758 233.019 163.422 233.019C165.086 233.019 166.59 233.392 167.934 234.139C169.279 234.865 170.335 235.91 171.103 237.275C171.892 238.641 172.287 240.231 172.287 242.044C172.287 243.858 171.882 245.458 171.071 246.845C170.281 248.21 169.204 249.266 167.838 250.013C166.473 250.76 164.958 251.133 163.294 251.133ZM163.294 248.573C164.339 248.573 165.321 248.328 166.238 247.837C167.156 247.346 167.892 246.61 168.447 245.629C169.023 244.647 169.311 243.452 169.311 242.044C169.311 240.636 169.033 239.441 168.479 238.46C167.924 237.478 167.198 236.753 166.302 236.283C165.406 235.793 164.435 235.547 163.39 235.547C162.323 235.547 161.342 235.793 160.446 236.283C159.571 236.753 158.867 237.478 158.333 238.46C157.8 239.441 157.533 240.636 157.533 242.044C157.533 243.474 157.789 244.679 158.301 245.661C158.835 246.642 159.539 247.378 160.414 247.869C161.288 248.338 162.248 248.573 163.294 248.573ZM191.67 233.307V250.845H188.758V248.253C188.203 249.149 187.424 249.853 186.422 250.365C185.44 250.856 184.352 251.101 183.157 251.101C181.792 251.101 180.565 250.824 179.477 250.269C178.389 249.693 177.524 248.84 176.884 247.709C176.266 246.578 175.956 245.202 175.956 243.58V233.307H178.837V243.196C178.837 244.924 179.274 246.258 180.149 247.197C181.024 248.114 182.218 248.573 183.733 248.573C185.291 248.573 186.518 248.093 187.414 247.133C188.31 246.173 188.758 244.775 188.758 242.94V233.307H191.67ZM199.5 236.155C200.012 235.153 200.737 234.374 201.676 233.819C202.636 233.264 203.799 232.987 205.165 232.987V235.995H204.397C201.132 235.995 199.5 237.766 199.5 241.308V250.845H196.588V233.307H199.5V236.155ZM224.196 235.707H220.515V250.845H217.603V235.707H215.331V233.307H217.603V232.059C217.603 230.096 218.104 228.666 219.107 227.77C220.131 226.853 221.764 226.394 224.004 226.394V228.826C222.724 228.826 221.817 229.082 221.283 229.595C220.771 230.085 220.515 230.907 220.515 232.059V233.307H224.196V235.707ZM226.503 242.012C226.503 240.22 226.866 238.652 227.592 237.307C228.317 235.942 229.309 234.886 230.568 234.139C231.848 233.392 233.267 233.019 234.824 233.019C236.361 233.019 237.694 233.35 238.825 234.011C239.956 234.672 240.799 235.505 241.353 236.507V233.307H244.298V250.845H241.353V247.581C240.777 248.605 239.913 249.458 238.761 250.141C237.63 250.803 236.307 251.133 234.792 251.133C233.235 251.133 231.827 250.749 230.568 249.981C229.309 249.213 228.317 248.136 227.592 246.749C226.866 245.362 226.503 243.783 226.503 242.012ZM241.353 242.044C241.353 240.721 241.087 239.569 240.553 238.588C240.02 237.606 239.294 236.859 238.377 236.347C237.481 235.814 236.489 235.547 235.401 235.547C234.312 235.547 233.32 235.803 232.424 236.315C231.528 236.827 230.813 237.574 230.28 238.556C229.746 239.537 229.48 240.689 229.48 242.012C229.48 243.356 229.746 244.53 230.28 245.533C230.813 246.514 231.528 247.271 232.424 247.805C233.32 248.317 234.312 248.573 235.401 248.573C236.489 248.573 237.481 248.317 238.377 247.805C239.294 247.271 240.02 246.514 240.553 245.533C241.087 244.53 241.353 243.367 241.353 242.044ZM270.31 232.987C271.675 232.987 272.892 233.275 273.958 233.851C275.025 234.406 275.868 235.249 276.487 236.379C277.105 237.51 277.415 238.886 277.415 240.508V250.845H274.534V240.924C274.534 239.174 274.097 237.841 273.222 236.923C272.369 235.985 271.206 235.515 269.734 235.515C268.219 235.515 267.014 236.006 266.117 236.987C265.221 237.948 264.773 239.345 264.773 241.18V250.845H261.893V240.924C261.893 239.174 261.455 237.841 260.581 236.923C259.727 235.985 258.564 235.515 257.092 235.515C255.577 235.515 254.372 236.006 253.476 236.987C252.58 237.948 252.132 239.345 252.132 241.18V250.845H249.219V233.307H252.132V235.835C252.708 234.918 253.476 234.214 254.436 233.723C255.417 233.232 256.495 232.987 257.668 232.987C259.141 232.987 260.442 233.318 261.573 233.979C262.704 234.64 263.546 235.611 264.101 236.891C264.592 235.654 265.403 234.694 266.533 234.011C267.664 233.328 268.923 232.987 270.31 232.987ZM283.696 230.459C283.142 230.459 282.672 230.267 282.288 229.883C281.904 229.499 281.712 229.029 281.712 228.474C281.712 227.92 281.904 227.45 282.288 227.066C282.672 226.682 283.142 226.49 283.696 226.49C284.23 226.49 284.678 226.682 285.041 227.066C285.425 227.45 285.617 227.92 285.617 228.474C285.617 229.029 285.425 229.499 285.041 229.883C284.678 230.267 284.23 230.459 283.696 230.459ZM285.105 233.307V250.845H282.192V233.307H285.105ZM292.981 227.162V250.845H290.068V227.162H292.981ZM313.05 233.307L302.489 259.102H299.48L302.937 250.653L295.864 233.307H299.096L304.601 247.517L310.042 233.307H313.05ZM328.063 235.707V246.045C328.063 246.898 328.244 247.506 328.607 247.869C328.969 248.21 329.599 248.381 330.495 248.381H332.639V250.845H330.015C328.393 250.845 327.177 250.472 326.366 249.725C325.556 248.978 325.15 247.751 325.15 246.045V235.707H322.878V233.307H325.15V228.89H328.063V233.307H332.639V235.707H328.063ZM339.08 236.155C339.592 235.153 340.318 234.374 341.256 233.819C342.217 233.264 343.379 232.987 344.745 232.987V235.995H343.977C340.712 235.995 339.08 237.766 339.08 241.308V250.845H336.168V233.307H339.08V236.155ZM364.109 241.404C364.109 241.959 364.077 242.545 364.013 243.164H349.995C350.102 244.892 350.688 246.247 351.755 247.229C352.843 248.189 354.156 248.669 355.692 248.669C356.951 248.669 357.996 248.381 358.828 247.805C359.682 247.207 360.279 246.418 360.62 245.437H363.757C363.287 247.122 362.349 248.498 360.94 249.565C359.532 250.611 357.783 251.133 355.692 251.133C354.028 251.133 352.534 250.76 351.211 250.013C349.91 249.266 348.886 248.21 348.139 246.845C347.392 245.458 347.019 243.858 347.019 242.044C347.019 240.231 347.381 238.641 348.107 237.275C348.832 235.91 349.846 234.865 351.147 234.139C352.47 233.392 353.985 233.019 355.692 233.019C357.356 233.019 358.828 233.382 360.108 234.107C361.389 234.833 362.37 235.835 363.053 237.115C363.757 238.374 364.109 239.804 364.109 241.404ZM361.1 240.796C361.1 239.686 360.855 238.737 360.364 237.948C359.874 237.137 359.202 236.529 358.348 236.123C357.516 235.697 356.588 235.483 355.564 235.483C354.092 235.483 352.833 235.953 351.787 236.891C350.763 237.83 350.176 239.132 350.027 240.796H361.1ZM383.955 241.404C383.955 241.959 383.923 242.545 383.859 243.164H369.841C369.948 244.892 370.535 246.247 371.602 247.229C372.69 248.189 374.002 248.669 375.538 248.669C376.797 248.669 377.842 248.381 378.674 247.805C379.528 247.207 380.125 246.418 380.467 245.437H383.603C383.134 247.122 382.195 248.498 380.787 249.565C379.379 250.611 377.629 251.133 375.538 251.133C373.874 251.133 372.38 250.76 371.057 250.013C369.756 249.266 368.732 248.21 367.985 246.845C367.238 245.458 366.865 243.858 366.865 242.044C366.865 240.231 367.228 238.641 367.953 237.275C368.679 235.91 369.692 234.865 370.993 234.139C372.316 233.392 373.831 233.019 375.538 233.019C377.202 233.019 378.674 233.382 379.955 234.107C381.235 234.833 382.216 235.835 382.899 237.115C383.603 238.374 383.955 239.804 383.955 241.404ZM380.947 240.796C380.947 239.686 380.701 238.737 380.211 237.948C379.72 237.137 379.048 236.529 378.194 236.123C377.362 235.697 376.434 235.483 375.41 235.483C373.938 235.483 372.679 235.953 371.634 236.891C370.609 237.83 370.023 239.132 369.873 240.796H380.947ZM390.808 246.813L387.223 255.422H385.271L387.607 246.813H390.808ZM40.9279 281.307L35.4552 298.845H32.4468L28.2223 284.923L23.9977 298.845H20.9893L15.4846 281.307H18.461L22.4935 296.029L26.8461 281.307H29.8225L34.079 296.061L38.0475 281.307H40.9279ZM46.7306 284.155C47.2427 283.153 47.9681 282.374 48.9069 281.819C49.867 281.264 51.0298 280.987 52.3953 280.987V283.995H51.6272C48.3628 283.995 46.7306 285.766 46.7306 289.308V298.845H43.8182V281.307H46.7306V284.155ZM57.2614 278.459C56.7067 278.459 56.2373 278.267 55.8533 277.883C55.4692 277.499 55.2772 277.029 55.2772 276.474C55.2772 275.92 55.4692 275.45 55.8533 275.066C56.2373 274.682 56.7067 274.49 57.2614 274.49C57.7948 274.49 58.2429 274.682 58.6056 275.066C58.9897 275.45 59.1817 275.92 59.1817 276.474C59.1817 277.029 58.9897 277.499 58.6056 277.883C58.2429 278.267 57.7948 278.459 57.2614 278.459ZM58.6696 281.307V298.845H55.7572V281.307H58.6696ZM67.1857 283.707V294.045C67.1857 294.898 67.367 295.506 67.7298 295.869C68.0925 296.21 68.7219 296.381 69.618 296.381H71.7623V298.845H69.1379C67.5164 298.845 66.3002 298.472 65.4895 297.725C64.6787 296.978 64.2733 295.751 64.2733 294.045V283.707H62.001V281.307H64.2733V276.89H67.1857V281.307H71.7623V283.707H67.1857ZM91.293 289.404C91.293 289.959 91.261 290.545 91.197 291.164H77.1792C77.2859 292.892 77.8726 294.247 78.9394 295.229C80.0276 296.189 81.3397 296.669 82.8759 296.669C84.1348 296.669 85.1802 296.381 86.0123 295.805C86.8658 295.207 87.4632 294.418 87.8046 293.437H90.941C90.4716 295.122 89.5328 296.498 88.1246 297.565C86.7164 298.611 84.9669 299.133 82.8759 299.133C81.2117 299.133 79.7182 298.76 78.3954 298.013C77.0939 297.266 76.0697 296.21 75.323 294.845C74.5762 293.458 74.2028 291.858 74.2028 290.044C74.2028 288.231 74.5655 286.641 75.291 285.275C76.0164 283.91 77.0299 282.865 78.3314 282.139C79.6542 281.392 81.1691 281.019 82.8759 281.019C84.5401 281.019 86.0123 281.382 87.2925 282.107C88.5727 282.833 89.5541 283.835 90.2369 285.115C90.941 286.374 91.293 287.804 91.293 289.404ZM88.2846 288.796C88.2846 287.686 88.0393 286.737 87.5485 285.948C87.0578 285.137 86.3857 284.529 85.5323 284.123C84.7002 283.697 83.772 283.483 82.7479 283.483C81.2757 283.483 80.0169 283.953 78.9714 284.891C77.9473 285.83 77.3606 287.132 77.2112 288.796H88.2846ZM118.775 281.307L108.214 307.102H105.206L108.662 298.653L101.589 281.307H104.822L110.326 295.517L115.767 281.307H118.775ZM129.352 299.133C127.709 299.133 126.216 298.76 124.872 298.013C123.549 297.266 122.503 296.21 121.735 294.845C120.988 293.458 120.615 291.858 120.615 290.044C120.615 288.252 120.999 286.673 121.767 285.307C122.557 283.921 123.623 282.865 124.968 282.139C126.312 281.392 127.816 281.019 129.48 281.019C131.144 281.019 132.648 281.392 133.993 282.139C135.337 282.865 136.393 283.91 137.161 285.275C137.95 286.641 138.345 288.231 138.345 290.044C138.345 291.858 137.94 293.458 137.129 294.845C136.34 296.21 135.262 297.266 133.897 298.013C132.531 298.76 131.016 299.133 129.352 299.133ZM129.352 296.573C130.398 296.573 131.379 296.328 132.296 295.837C133.214 295.346 133.95 294.61 134.505 293.629C135.081 292.647 135.369 291.452 135.369 290.044C135.369 288.636 135.091 287.441 134.537 286.46C133.982 285.478 133.257 284.753 132.36 284.283C131.464 283.793 130.494 283.547 129.448 283.547C128.381 283.547 127.4 283.793 126.504 284.283C125.629 284.753 124.925 285.478 124.391 286.46C123.858 287.441 123.591 288.636 123.591 290.044C123.591 291.474 123.847 292.679 124.359 293.661C124.893 294.642 125.597 295.378 126.472 295.869C127.346 296.338 128.307 296.573 129.352 296.573ZM157.728 281.307V298.845H154.816V296.253C154.261 297.149 153.483 297.853 152.48 298.365C151.498 298.856 150.41 299.101 149.215 299.101C147.85 299.101 146.623 298.824 145.535 298.269C144.447 297.693 143.583 296.84 142.943 295.709C142.324 294.578 142.014 293.202 142.014 291.58V281.307H144.895V291.196C144.895 292.924 145.332 294.258 146.207 295.197C147.082 296.114 148.277 296.573 149.791 296.573C151.349 296.573 152.576 296.093 153.472 295.133C154.368 294.173 154.816 292.775 154.816 290.94V281.307H157.728ZM165.558 284.155C166.07 283.153 166.796 282.374 167.734 281.819C168.695 281.264 169.857 280.987 171.223 280.987V283.995H170.455C167.19 283.995 165.558 285.766 165.558 289.308V298.845H162.646V281.307H165.558V284.155ZM186.03 275.162V298.845H183.117V275.162H186.03ZM192.497 278.459C191.943 278.459 191.473 278.267 191.089 277.883C190.705 277.499 190.513 277.029 190.513 276.474C190.513 275.92 190.705 275.45 191.089 275.066C191.473 274.682 191.943 274.49 192.497 274.49C193.031 274.49 193.479 274.682 193.842 275.066C194.226 275.45 194.418 275.92 194.418 276.474C194.418 277.029 194.226 277.499 193.842 277.883C193.479 278.267 193.031 278.459 192.497 278.459ZM193.906 281.307V298.845H190.993V281.307H193.906ZM206.006 283.707H202.326V298.845H199.413V283.707H197.141V281.307H199.413V280.059C199.413 278.096 199.915 276.666 200.917 275.77C201.942 274.853 203.574 274.394 205.814 274.394V276.826C204.534 276.826 203.627 277.082 203.094 277.595C202.582 278.085 202.326 278.907 202.326 280.059V281.307H206.006V283.707ZM225.404 289.404C225.404 289.959 225.372 290.545 225.308 291.164H211.29C211.397 292.892 211.983 294.247 213.05 295.229C214.138 296.189 215.451 296.669 216.987 296.669C218.246 296.669 219.291 296.381 220.123 295.805C220.977 295.207 221.574 294.418 221.915 293.437H225.052C224.582 295.122 223.644 296.498 222.235 297.565C220.827 298.611 219.078 299.133 216.987 299.133C215.322 299.133 213.829 298.76 212.506 298.013C211.205 297.266 210.181 296.21 209.434 294.845C208.687 293.458 208.314 291.858 208.314 290.044C208.314 288.231 208.676 286.641 209.402 285.275C210.127 283.91 211.141 282.865 212.442 282.139C213.765 281.392 215.28 281.019 216.987 281.019C218.651 281.019 220.123 281.382 221.403 282.107C222.683 282.833 223.665 283.835 224.348 285.115C225.052 286.374 225.404 287.804 225.404 289.404ZM222.395 288.796C222.395 287.686 222.15 286.737 221.659 285.948C221.169 285.137 220.496 284.529 219.643 284.123C218.811 283.697 217.883 283.483 216.859 283.483C215.386 283.483 214.128 283.953 213.082 284.891C212.058 285.83 211.471 287.132 211.322 288.796H222.395ZM243.989 299.133C242.645 299.133 241.439 298.909 240.373 298.461C239.306 297.992 238.463 297.352 237.844 296.541C237.226 295.709 236.884 294.759 236.82 293.693H239.829C239.914 294.567 240.319 295.282 241.045 295.837C241.792 296.392 242.762 296.669 243.957 296.669C245.067 296.669 245.941 296.424 246.581 295.933C247.222 295.442 247.542 294.823 247.542 294.077C247.542 293.309 247.2 292.743 246.517 292.38C245.835 291.996 244.779 291.623 243.349 291.26C242.048 290.919 240.981 290.577 240.149 290.236C239.338 289.873 238.634 289.351 238.036 288.668C237.46 287.964 237.172 287.046 237.172 285.916C237.172 285.019 237.439 284.198 237.972 283.451C238.506 282.705 239.263 282.118 240.245 281.691C241.226 281.243 242.346 281.019 243.605 281.019C245.547 281.019 247.115 281.51 248.31 282.491C249.504 283.473 250.145 284.817 250.23 286.524H247.318C247.254 285.606 246.88 284.87 246.197 284.315C245.536 283.761 244.64 283.483 243.509 283.483C242.464 283.483 241.631 283.707 241.013 284.155C240.394 284.603 240.085 285.19 240.085 285.916C240.085 286.492 240.266 286.972 240.629 287.356C241.013 287.718 241.482 288.017 242.037 288.252C242.613 288.465 243.402 288.711 244.405 288.988C245.664 289.329 246.688 289.671 247.478 290.012C248.267 290.332 248.939 290.823 249.494 291.484C250.07 292.146 250.369 293.01 250.39 294.077C250.39 295.037 250.123 295.901 249.59 296.669C249.056 297.437 248.299 298.045 247.318 298.493C246.357 298.92 245.248 299.133 243.989 299.133ZM258.054 283.707V294.045C258.054 294.898 258.235 295.506 258.598 295.869C258.96 296.21 259.59 296.381 260.486 296.381H262.63V298.845H260.006C258.384 298.845 257.168 298.472 256.357 297.725C255.547 296.978 255.141 295.751 255.141 294.045V283.707H252.869V281.307H255.141V276.89H258.054V281.307H262.63V283.707H258.054ZM273.808 299.133C272.165 299.133 270.671 298.76 269.327 298.013C268.004 297.266 266.959 296.21 266.191 294.845C265.444 293.458 265.071 291.858 265.071 290.044C265.071 288.252 265.455 286.673 266.223 285.307C267.012 283.921 268.079 282.865 269.423 282.139C270.768 281.392 272.272 281.019 273.936 281.019C275.6 281.019 277.104 281.392 278.448 282.139C279.793 282.865 280.849 283.91 281.617 285.275C282.406 286.641 282.801 288.231 282.801 290.044C282.801 291.858 282.396 293.458 281.585 294.845C280.795 296.21 279.718 297.266 278.352 298.013C276.987 298.76 275.472 299.133 273.808 299.133ZM273.808 296.573C274.853 296.573 275.835 296.328 276.752 295.837C277.67 295.346 278.406 294.61 278.961 293.629C279.537 292.647 279.825 291.452 279.825 290.044C279.825 288.636 279.547 287.441 278.993 286.46C278.438 285.478 277.712 284.753 276.816 284.283C275.92 283.793 274.949 283.547 273.904 283.547C272.837 283.547 271.856 283.793 270.96 284.283C270.085 284.753 269.381 285.478 268.847 286.46C268.314 287.441 268.047 288.636 268.047 290.044C268.047 291.474 268.303 292.679 268.815 293.661C269.349 294.642 270.053 295.378 270.928 295.869C271.802 296.338 272.762 296.573 273.808 296.573ZM289.543 284.155C290.055 283.153 290.78 282.374 291.719 281.819C292.679 281.264 293.842 280.987 295.207 280.987V283.995H294.439C291.175 283.995 289.543 285.766 289.543 289.308V298.845H286.63V281.307H289.543V284.155ZM313.675 281.307L303.114 307.102H300.105L303.562 298.653L296.489 281.307H299.721L305.226 295.517L310.667 281.307H313.675ZM319.611 294.813L316.027 303.422H314.075L316.411 294.813H319.611ZM337.689 299.133C336.344 299.133 335.139 298.909 334.072 298.461C333.005 297.992 332.162 297.352 331.544 296.541C330.925 295.709 330.584 294.759 330.52 293.693H333.528C333.613 294.567 334.019 295.282 334.744 295.837C335.491 296.392 336.462 296.669 337.657 296.669C338.766 296.669 339.641 296.424 340.281 295.933C340.921 295.442 341.241 294.823 341.241 294.077C341.241 293.309 340.9 292.743 340.217 292.38C339.534 291.996 338.478 291.623 337.048 291.26C335.747 290.919 334.68 290.577 333.848 290.236C333.037 289.873 332.333 289.351 331.736 288.668C331.16 287.964 330.872 287.046 330.872 285.916C330.872 285.019 331.138 284.198 331.672 283.451C332.205 282.705 332.963 282.118 333.944 281.691C334.925 281.243 336.046 281.019 337.304 281.019C339.246 281.019 340.814 281.51 342.009 282.491C343.204 283.473 343.844 284.817 343.929 286.524H341.017C340.953 285.606 340.58 284.87 339.897 284.315C339.235 283.761 338.339 283.483 337.208 283.483C336.163 283.483 335.331 283.707 334.712 284.155C334.093 284.603 333.784 285.19 333.784 285.916C333.784 286.492 333.965 286.972 334.328 287.356C334.712 287.718 335.182 288.017 335.736 288.252C336.312 288.465 337.102 288.711 338.105 288.988C339.363 289.329 340.388 289.671 341.177 290.012C341.966 290.332 342.638 290.823 343.193 291.484C343.769 292.146 344.068 293.01 344.089 294.077C344.089 295.037 343.823 295.901 343.289 296.669C342.756 297.437 341.998 298.045 341.017 298.493C340.057 298.92 338.947 299.133 337.689 299.133ZM356.906 280.987C358.229 280.987 359.423 281.275 360.49 281.851C361.557 282.406 362.389 283.249 362.986 284.379C363.605 285.51 363.915 286.886 363.915 288.508V298.845H361.034V288.924C361.034 287.174 360.597 285.841 359.722 284.923C358.847 283.985 357.652 283.515 356.138 283.515C354.601 283.515 353.375 283.995 352.457 284.955C351.561 285.916 351.113 287.313 351.113 289.148V298.845H348.201V275.162H351.113V283.803C351.689 282.907 352.478 282.214 353.481 281.723C354.505 281.232 355.647 280.987 356.906 280.987ZM367.584 290.012C367.584 288.22 367.946 286.652 368.672 285.307C369.397 283.942 370.389 282.886 371.648 282.139C372.928 281.392 374.347 281.019 375.905 281.019C377.441 281.019 378.775 281.35 379.905 282.011C381.036 282.672 381.879 283.505 382.434 284.507V281.307H385.378V298.845H382.434V295.581C381.858 296.605 380.993 297.458 379.841 298.141C378.711 298.803 377.388 299.133 375.873 299.133C374.315 299.133 372.907 298.749 371.648 297.981C370.389 297.213 369.397 296.136 368.672 294.749C367.946 293.362 367.584 291.783 367.584 290.012ZM382.434 290.044C382.434 288.721 382.167 287.569 381.634 286.588C381.1 285.606 380.375 284.859 379.457 284.347C378.561 283.814 377.569 283.547 376.481 283.547C375.393 283.547 374.401 283.803 373.505 284.315C372.608 284.827 371.894 285.574 371.36 286.556C370.827 287.537 370.56 288.689 370.56 290.012C370.56 291.356 370.827 292.53 371.36 293.533C371.894 294.514 372.608 295.271 373.505 295.805C374.401 296.317 375.393 296.573 376.481 296.573C377.569 296.573 378.561 296.317 379.457 295.805C380.375 295.271 381.1 294.514 381.634 293.533C382.167 292.53 382.434 291.367 382.434 290.044ZM393.212 284.155C393.724 283.153 394.45 282.374 395.388 281.819C396.348 281.264 397.511 280.987 398.877 280.987V283.995H398.109C394.844 283.995 393.212 285.766 393.212 289.308V298.845H390.3V281.307H393.212V284.155ZM418.241 289.404C418.241 289.959 418.209 290.545 418.145 291.164H404.127C404.234 292.892 404.82 294.247 405.887 295.229C406.975 296.189 408.287 296.669 409.824 296.669C411.082 296.669 412.128 296.381 412.96 295.805C413.813 295.207 414.411 294.418 414.752 293.437H417.889C417.419 295.122 416.481 296.498 415.072 297.565C413.664 298.611 411.915 299.133 409.824 299.133C408.159 299.133 406.666 298.76 405.343 298.013C404.042 297.266 403.017 296.21 402.271 294.845C401.524 293.458 401.151 291.858 401.151 290.044C401.151 288.231 401.513 286.641 402.239 285.275C402.964 283.91 403.978 282.865 405.279 282.139C406.602 281.392 408.117 281.019 409.824 281.019C411.488 281.019 412.96 281.382 414.24 282.107C415.52 282.833 416.502 283.835 417.185 285.115C417.889 286.374 418.241 287.804 418.241 289.404ZM415.232 288.796C415.232 287.686 414.987 286.737 414.496 285.948C414.006 285.137 413.333 284.529 412.48 284.123C411.648 283.697 410.72 283.483 409.696 283.483C408.223 283.483 406.965 283.953 405.919 284.891C404.895 285.83 404.308 287.132 404.159 288.796H415.232ZM104.946 331.707H101.266V346.845H98.3535V331.707H96.0812V329.307H98.3535V328.059C98.3535 326.096 98.8549 324.666 99.8577 323.77C100.882 322.853 102.514 322.394 104.754 322.394V324.826C103.474 324.826 102.567 325.082 102.034 325.595C101.522 326.085 101.266 326.907 101.266 328.059V329.307H104.946V331.707ZM115.991 347.133C114.348 347.133 112.855 346.76 111.51 346.013C110.188 345.266 109.142 344.21 108.374 342.845C107.627 341.458 107.254 339.858 107.254 338.044C107.254 336.252 107.638 334.673 108.406 333.307C109.195 331.921 110.262 330.865 111.606 330.139C112.951 329.392 114.455 329.019 116.119 329.019C117.783 329.019 119.287 329.392 120.632 330.139C121.976 330.865 123.032 331.91 123.8 333.275C124.589 334.641 124.984 336.231 124.984 338.044C124.984 339.858 124.579 341.458 123.768 342.845C122.979 344.21 121.901 345.266 120.536 346.013C119.17 346.76 117.655 347.133 115.991 347.133ZM115.991 344.573C117.036 344.573 118.018 344.328 118.935 343.837C119.853 343.346 120.589 342.61 121.144 341.629C121.72 340.647 122.008 339.452 122.008 338.044C122.008 336.636 121.73 335.441 121.176 334.46C120.621 333.478 119.896 332.753 118.999 332.283C118.103 331.793 117.132 331.547 116.087 331.547C115.02 331.547 114.039 331.793 113.143 332.283C112.268 332.753 111.564 333.478 111.03 334.46C110.497 335.441 110.23 336.636 110.23 338.044C110.23 339.474 110.486 340.679 110.998 341.661C111.532 342.642 112.236 343.378 113.111 343.869C113.985 344.338 114.946 344.573 115.991 344.573ZM131.726 332.155C132.238 331.153 132.963 330.374 133.902 329.819C134.862 329.264 136.025 328.987 137.39 328.987V331.995H136.622C133.358 331.995 131.726 333.766 131.726 337.308V346.845H128.813V329.307H131.726V332.155ZM156.518 329.019C158.033 329.019 159.355 329.35 160.486 330.011C161.638 330.672 162.492 331.505 163.046 332.507V329.307H165.991V347.229C165.991 348.829 165.649 350.248 164.967 351.486C164.284 352.745 163.303 353.726 162.022 354.43C160.764 355.134 159.291 355.486 157.606 355.486C155.301 355.486 153.381 354.942 151.845 353.854C150.309 352.766 149.402 351.283 149.125 349.406H152.005C152.325 350.472 152.987 351.326 153.989 351.966C154.992 352.627 156.198 352.958 157.606 352.958C159.206 352.958 160.507 352.457 161.51 351.454C162.534 350.451 163.046 349.043 163.046 347.229V343.549C162.47 344.573 161.617 345.426 160.486 346.109C159.355 346.792 158.033 347.133 156.518 347.133C154.96 347.133 153.541 346.749 152.261 345.981C151.002 345.213 150.01 344.136 149.285 342.749C148.559 341.362 148.197 339.783 148.197 338.012C148.197 336.22 148.559 334.652 149.285 333.307C150.01 331.942 151.002 330.886 152.261 330.139C153.541 329.392 154.96 329.019 156.518 329.019ZM163.046 338.044C163.046 336.721 162.78 335.569 162.246 334.588C161.713 333.606 160.988 332.859 160.07 332.347C159.174 331.814 158.182 331.547 157.094 331.547C156.006 331.547 155.013 331.803 154.117 332.315C153.221 332.827 152.506 333.574 151.973 334.556C151.44 335.537 151.173 336.689 151.173 338.012C151.173 339.356 151.44 340.53 151.973 341.533C152.506 342.514 153.221 343.271 154.117 343.805C155.013 344.317 156.006 344.573 157.094 344.573C158.182 344.573 159.174 344.317 160.07 343.805C160.988 343.271 161.713 342.514 162.246 341.533C162.78 340.53 163.046 339.367 163.046 338.044ZM186.914 337.404C186.914 337.959 186.882 338.545 186.818 339.164H172.801C172.907 340.892 173.494 342.247 174.561 343.229C175.649 344.189 176.961 344.669 178.497 344.669C179.756 344.669 180.802 344.381 181.634 343.805C182.487 343.207 183.085 342.418 183.426 341.437H186.562C186.093 343.122 185.154 344.498 183.746 345.565C182.338 346.611 180.588 347.133 178.497 347.133C176.833 347.133 175.34 346.76 174.017 346.013C172.715 345.266 171.691 344.21 170.944 342.845C170.198 341.458 169.824 339.858 169.824 338.044C169.824 336.231 170.187 334.641 170.912 333.275C171.638 331.91 172.651 330.865 173.953 330.139C175.276 329.392 176.791 329.019 178.497 329.019C180.162 329.019 181.634 329.382 182.914 330.107C184.194 330.833 185.176 331.835 185.858 333.115C186.562 334.374 186.914 335.804 186.914 337.404ZM183.906 336.796C183.906 335.686 183.661 334.737 183.17 333.948C182.679 333.137 182.007 332.529 181.154 332.123C180.322 331.697 179.394 331.483 178.369 331.483C176.897 331.483 175.638 331.953 174.593 332.891C173.569 333.83 172.982 335.132 172.833 336.796H183.906ZM199.304 328.987C201.437 328.987 203.166 329.638 204.488 330.939C205.811 332.219 206.473 334.076 206.473 336.508V346.845H203.592V336.924C203.592 335.174 203.155 333.841 202.28 332.923C201.405 331.985 200.211 331.515 198.696 331.515C197.16 331.515 195.933 331.995 195.015 332.955C194.119 333.916 193.671 335.313 193.671 337.148V346.845H190.759V329.307H193.671V331.803C194.247 330.907 195.026 330.214 196.007 329.723C197.01 329.232 198.109 328.987 199.304 328.987ZM227.232 337.404C227.232 337.959 227.2 338.545 227.136 339.164H213.118C213.225 340.892 213.812 342.247 214.879 343.229C215.967 344.189 217.279 344.669 218.815 344.669C220.074 344.669 221.119 344.381 221.951 343.805C222.805 343.207 223.402 342.418 223.744 341.437H226.88C226.411 343.122 225.472 344.498 224.064 345.565C222.656 346.611 220.906 347.133 218.815 347.133C217.151 347.133 215.657 346.76 214.334 346.013C213.033 345.266 212.009 344.21 211.262 342.845C210.515 341.458 210.142 339.858 210.142 338.044C210.142 336.231 210.505 334.641 211.23 333.275C211.956 331.91 212.969 330.865 214.27 330.139C215.593 329.392 217.108 329.019 218.815 329.019C220.479 329.019 221.951 329.382 223.232 330.107C224.512 330.833 225.493 331.835 226.176 333.115C226.88 334.374 227.232 335.804 227.232 337.404ZM224.224 336.796C224.224 335.686 223.978 334.737 223.488 333.948C222.997 333.137 222.325 332.529 221.471 332.123C220.639 331.697 219.711 331.483 218.687 331.483C217.215 331.483 215.956 331.953 214.911 332.891C213.886 333.83 213.3 335.132 213.15 336.796H224.224ZM233.989 332.155C234.501 331.153 235.226 330.374 236.165 329.819C237.125 329.264 238.288 328.987 239.653 328.987V331.995H238.885C235.621 331.995 233.989 333.766 233.989 337.308V346.845H231.076V329.307H233.989V332.155ZM241.927 338.012C241.927 336.22 242.29 334.652 243.015 333.307C243.741 331.942 244.733 330.886 245.992 330.139C247.272 329.392 248.691 329.019 250.248 329.019C251.784 329.019 253.118 329.35 254.249 330.011C255.38 330.672 256.222 331.505 256.777 332.507V329.307H259.721V346.845H256.777V343.581C256.201 344.605 255.337 345.458 254.185 346.141C253.054 346.803 251.731 347.133 250.216 347.133C248.659 347.133 247.251 346.749 245.992 345.981C244.733 345.213 243.741 344.136 243.015 342.749C242.29 341.362 241.927 339.783 241.927 338.012ZM256.777 338.044C256.777 336.721 256.51 335.569 255.977 334.588C255.444 333.606 254.718 332.859 253.801 332.347C252.905 331.814 251.912 331.547 250.824 331.547C249.736 331.547 248.744 331.803 247.848 332.315C246.952 332.827 246.237 333.574 245.704 334.556C245.17 335.537 244.904 336.689 244.904 338.012C244.904 339.356 245.17 340.53 245.704 341.533C246.237 342.514 246.952 343.271 247.848 343.805C248.744 344.317 249.736 344.573 250.824 344.573C251.912 344.573 252.905 344.317 253.801 343.805C254.718 343.271 255.444 342.514 255.977 341.533C256.51 340.53 256.777 339.367 256.777 338.044ZM268.196 331.707V342.045C268.196 342.898 268.377 343.506 268.74 343.869C269.102 344.21 269.732 344.381 270.628 344.381H272.772V346.845H270.148C268.526 346.845 267.31 346.472 266.499 345.725C265.689 344.978 265.283 343.751 265.283 342.045V331.707H263.011V329.307H265.283V324.89H268.196V329.307H272.772V331.707H268.196ZM277.805 326.459C277.25 326.459 276.781 326.267 276.397 325.883C276.013 325.499 275.821 325.029 275.821 324.474C275.821 323.92 276.013 323.45 276.397 323.066C276.781 322.682 277.25 322.49 277.805 322.49C278.338 322.49 278.787 322.682 279.149 323.066C279.533 323.45 279.725 323.92 279.725 324.474C279.725 325.029 279.533 325.499 279.149 325.883C278.787 326.267 278.338 326.459 277.805 326.459ZM279.213 329.307V346.845H276.301V329.307H279.213ZM291.826 347.133C290.183 347.133 288.689 346.76 287.345 346.013C286.022 345.266 284.977 344.21 284.209 342.845C283.462 341.458 283.089 339.858 283.089 338.044C283.089 336.252 283.473 334.673 284.241 333.307C285.03 331.921 286.097 330.865 287.441 330.139C288.785 329.392 290.29 329.019 291.954 329.019C293.618 329.019 295.122 329.392 296.466 330.139C297.811 330.865 298.867 331.91 299.635 333.275C300.424 334.641 300.819 336.231 300.819 338.044C300.819 339.858 300.414 341.458 299.603 342.845C298.813 344.21 297.736 345.266 296.37 346.013C295.005 346.76 293.49 347.133 291.826 347.133ZM291.826 344.573C292.871 344.573 293.853 344.328 294.77 343.837C295.688 343.346 296.424 342.61 296.978 341.629C297.555 340.647 297.843 339.452 297.843 338.044C297.843 336.636 297.565 335.441 297.01 334.46C296.456 333.478 295.73 332.753 294.834 332.283C293.938 331.793 292.967 331.547 291.922 331.547C290.855 331.547 289.874 331.793 288.977 332.283C288.103 332.753 287.399 333.478 286.865 334.46C286.332 335.441 286.065 336.636 286.065 338.044C286.065 339.474 286.321 340.679 286.833 341.661C287.367 342.642 288.071 343.378 288.945 343.869C289.82 344.338 290.78 344.573 291.826 344.573ZM313.193 328.987C315.327 328.987 317.055 329.638 318.378 330.939C319.701 332.219 320.362 334.076 320.362 336.508V346.845H317.482V336.924C317.482 335.174 317.044 333.841 316.17 332.923C315.295 331.985 314.1 331.515 312.585 331.515C311.049 331.515 309.822 331.995 308.905 332.955C308.009 333.916 307.561 335.313 307.561 337.148V346.845H304.648V329.307H307.561V331.803C308.137 330.907 308.915 330.214 309.897 329.723C310.9 329.232 311.998 328.987 313.193 328.987ZM331.328 347.133C329.984 347.133 328.779 346.909 327.712 346.461C326.645 345.992 325.802 345.352 325.184 344.541C324.565 343.709 324.223 342.759 324.159 341.693H327.168C327.253 342.567 327.659 343.282 328.384 343.837C329.131 344.392 330.101 344.669 331.296 344.669C332.406 344.669 333.281 344.424 333.921 343.933C334.561 343.442 334.881 342.823 334.881 342.077C334.881 341.309 334.539 340.743 333.857 340.38C333.174 339.996 332.118 339.623 330.688 339.26C329.387 338.919 328.32 338.577 327.488 338.236C326.677 337.873 325.973 337.351 325.376 336.668C324.799 335.964 324.511 335.046 324.511 333.916C324.511 333.019 324.778 332.198 325.312 331.451C325.845 330.705 326.602 330.118 327.584 329.691C328.565 329.243 329.685 329.019 330.944 329.019C332.886 329.019 334.454 329.51 335.649 330.491C336.844 331.473 337.484 332.817 337.569 334.524H334.657C334.593 333.606 334.219 332.87 333.537 332.315C332.875 331.761 331.979 331.483 330.848 331.483C329.803 331.483 328.971 331.707 328.352 332.155C327.733 332.603 327.424 333.19 327.424 333.916C327.424 334.492 327.605 334.972 327.968 335.356C328.352 335.718 328.821 336.017 329.376 336.252C329.952 336.465 330.742 336.711 331.744 336.988C333.003 337.329 334.027 337.671 334.817 338.012C335.606 338.332 336.278 338.823 336.833 339.484C337.409 340.146 337.708 341.01 337.729 342.077C337.729 343.037 337.462 343.901 336.929 344.669C336.396 345.437 335.638 346.045 334.657 346.493C333.697 346.92 332.587 347.133 331.328 347.133Z" fill="white"/>
</svg>
