<svg width="1920" height="464" viewBox="0 0 1920 464" fill="none" xmlns="http://www.w3.org/2000/svg">
<path d="M0 0V464H1920V0H0Z" fill="white"/>
<path d="M992 67C993.51 67.6831 994.31 67.8259 996 68C994.49 67.317 993.69 67.1741 992 67Z" fill="#313131"/>
<path d="M990.02 68.7422C977.47 73.6861 986.42 92.3585 998.96 87.2576C1011.03 82.3468 1002.35 63.8822 990.02 68.7422Z" fill="black"/>
<path d="M1008 80L1018 117C1030.54 115.155 1042.43 109.693 1055 108C1054.42 95.2543 1048.58 82.4874 1046 70C1033.63 71.8198 1019.7 75.5873 1008 80Z" fill="black"/>
<path d="M956 73.5293C931.75 79.0863 930.25 116.34 956 120.674C959.5 121.263 963.54 121.269 967 120.471C996.65 113.629 985.36 66.8004 956 73.5293Z" fill="black"/>
<path d="M983 76V80C983.71 78.2404 983.71 77.7596 983 76Z" fill="#7E7E7E"/>
<path d="M992 88C993.51 88.683 994.31 88.8259 996 89C994.49 88.3169 993.69 88.1741 992 88Z" fill="#292929"/>
<path d="M905 93C899.79 101.51 894.65 110.173 890 119C898.19 124.403 907.63 131.034 917 134C922.48 125.699 928.6 116.352 932 107C922.75 103.015 914.69 95.8497 905 93Z" fill="black"/>
<path d="M936 95V99C936.71 97.2405 936.71 96.7595 936 95Z" fill="#7F7F7F"/>
<path d="M936.33 99.6668C936.28 99.7227 936.22 100.778 936.67 100.333C936.72 100.278 936.78 99.2223 936.33 99.6668Z" fill="#C5C5C5"/>
<path d="M1065.04 100.668C1054.87 103.715 1059.6 119.6 1069.96 116.343C1080.05 113.166 1074.99 97.6906 1065.04 100.668Z" fill="black"/>
<path d="M1001 105C995.89 108.939 990.64 112.856 985 116C987.16 120.56 991.4 129.784 996.3 131.828C1000.15 133.433 1012.34 125.13 1012.17 120.907C1011.96 115.562 1004.88 108.159 1001 105Z" fill="black"/>
<path d="M1055.33 106.667C1055.28 106.723 1055.22 107.777 1055.67 107.333C1055.72 107.278 1055.78 106.222 1055.33 106.667Z" fill="#878787"/>
<path d="M1058 107V110C1058.7 108.446 1058.7 108.554 1058 107Z" fill="#CFCFCF"/>
<path d="M1066 117C1067.25 117.685 1067.55 117.749 1069 118C1067.75 117.315 1067.45 117.251 1066 117Z" fill="#D1D1D1"/>
<path d="M1069.67 120.333C1069.22 120.778 1070.28 120.722 1070.33 120.667C1070.78 120.222 1069.72 120.278 1069.67 120.333Z" fill="#B9B9B9"/>
<path d="M957.67 121.333C957.22 121.777 958.28 121.723 958.33 121.667C958.78 121.222 957.72 121.278 957.67 121.333Z" fill="#A8A8A8"/>
<path d="M959 121C960.51 121.683 961.31 121.826 963 122C961.49 121.317 960.69 121.174 959 121Z" fill="#7F7F7F"/>
<path d="M963.67 121.333C963.22 121.777 964.28 121.723 964.33 121.667C964.78 121.222 963.72 121.278 963.67 121.333Z" fill="#D4D4D4"/>
<path d="M1069 121C1067.55 127.13 1064.95 133.004 1063 139C1069 140.951 1074.87 143.547 1081 145C1083.73 139.163 1085.68 133.007 1088 127C1081.74 124.962 1075.52 121.977 1069 121Z" fill="black"/>
<path d="M1027.67 124.333C1027.22 124.778 1028.28 124.722 1028.33 124.667C1028.78 124.222 1027.72 124.278 1027.67 124.333Z" fill="#333333"/>
<path d="M1029 124.529C1004.76 126.733 1008.8 163.749 1033 160.814C1056.01 158.024 1051.91 122.446 1029 124.529Z" fill="black"/>
<path d="M1032.67 124.333C1032.22 124.778 1033.28 124.722 1033.33 124.667C1033.78 124.222 1032.72 124.278 1032.67 124.333Z" fill="#3F3F3F"/>
<path d="M949 145C953.4 150.453 959.77 155.785 966 159C969.92 153.272 975.47 148.542 978 142C974.24 139.166 967.92 131.388 963.04 131.345C958.13 131.301 952.15 141.704 949 145Z" fill="black"/>
<path d="M1110 141C1111.25 141.685 1111.55 141.749 1113 142C1111.75 141.315 1111.45 141.251 1110 141Z" fill="#2D2D2D"/>
<path d="M1113 141.614C1096.56 142.442 1097.55 167.671 1114 166.855C1129.99 166.062 1129.28 140.795 1113 141.614Z" fill="black"/>
<path d="M934 145C935.77 145.779 937.04 145.912 939 146C937.23 145.221 935.96 145.088 934 145Z" fill="#797979"/>
<path d="M1080.67 145.333C1080.22 145.777 1081.28 145.723 1081.33 145.667C1081.78 145.222 1080.72 145.278 1080.67 145.333Z" fill="#D7D7D7"/>
<path d="M893.667 146.333C893.222 146.778 894.278 146.722 894.333 146.667C894.778 146.222 893.722 146.278 893.667 146.333Z" fill="#2C2C2C"/>
<path d="M896 146C897.25 146.685 897.55 146.749 899 147C897.75 146.315 897.45 146.251 896 146Z" fill="#7C7C7C"/>
<path d="M899 146C900.25 146.685 900.55 146.749 902 147C900.75 146.315 900.45 146.251 899 146Z" fill="#D3D3D3"/>
<path d="M932.02 146.742C919.39 151.718 927.71 172.246 941 167.107C954.67 161.813 945.44 141.454 932.02 146.742Z" fill="black"/>
<path d="M892.333 147.667C892.278 147.722 892.222 148.778 892.667 148.333C892.722 148.278 892.778 147.222 892.333 147.667Z" fill="#272727"/>
<path d="M919 176L920 148C913.6 148 907.35 147.157 901 147.015C898.82 146.966 895.57 146.55 893.742 148.028C890.958 150.281 892.124 155.881 891.911 159C891.646 162.864 889.288 169.872 892.028 173.258C893.795 175.442 897.53 174.961 900 175.003C906.36 175.112 912.61 176 919 176Z" fill="black"/>
<path d="M906 147C907.51 147.683 908.31 147.826 910 148C908.49 147.317 907.69 147.174 906 147Z" fill="#383838"/>
<path d="M910 147C911.25 147.685 911.55 147.749 913 148C911.75 147.315 911.45 147.251 910 147Z" fill="#7D7D7D"/>
<path d="M913 147C914.25 147.685 914.55 147.749 916 148C914.75 147.315 914.45 147.251 913 147Z" fill="#D4D4D4"/>
<path d="M920 149V152C920.7 150.446 920.7 150.554 920 149Z" fill="#2B2B2B"/>
<path d="M992 149C993.51 149.683 994.31 149.826 996 150C994.49 149.317 993.69 149.174 992 149Z" fill="#D3D3D3"/>
<path d="M1054 149C1050.86 158.662 1046.34 168.121 1044 178C1050.62 180.555 1057.3 183.008 1064 185.343C1066.38 186.172 1070.01 188.258 1072.5 186.868C1074.94 185.503 1075.81 181.426 1076.66 179C1079.01 172.301 1081.44 165.624 1084 159C1073.9 156.244 1064.32 150.776 1054 149Z" fill="black"/>
<path d="M990 150.653C973.41 155.854 982.31 181.311 999 175.655C1014.46 170.415 1006.05 145.621 990 150.653Z" fill="black"/>
<path d="M920 152V155C920.7 153.446 920.7 153.554 920 152Z" fill="#7E7E7E"/>
<path d="M1100 152V156C1100.71 154.24 1100.71 153.76 1100 152Z" fill="#303030"/>
<path d="M1126 152V157C1126.83 154.97 1126.83 154.03 1126 152Z" fill="#D1D1D1"/>
<path d="M891 153V156C891.696 154.446 891.696 154.554 891 153Z" fill="#C5C5C5"/>
<path d="M920 155V159C920.71 157.24 920.71 156.76 920 155Z" fill="#CFCFCF"/>
<path d="M925 155V159C925.71 157.24 925.71 156.76 925 155Z" fill="#2B2B2B"/>
<path d="M891 156V160C891.71 158.24 891.71 157.759 891 156Z" fill="#818181"/>
<path d="M948.33 156.667C948.28 156.723 948.22 157.777 948.67 157.333C948.72 157.278 948.78 156.222 948.33 156.667Z" fill="#D3D3D3"/>
<path d="M891 160V163C891.696 161.446 891.696 161.554 891 160Z" fill="#202020"/>
<path d="M980 161V166C980.83 163.97 980.83 163.03 980 161Z" fill="#ADADAD"/>
<path d="M1007 161V166C1007.83 163.97 1007.83 163.03 1007 161Z" fill="#2F2F2F"/>
<path d="M1028 161C1029.51 161.683 1030.31 161.826 1032 162C1030.49 161.317 1029.68 161.174 1028 161Z" fill="#CBCBCB"/>
<path d="M919 163V166C919.7 164.446 919.7 164.554 919 163Z" fill="#2B2B2B"/>
<path d="M919 166V170C919.71 168.241 919.71 167.759 919 166Z" fill="#898989"/>
<path d="M890 167V171C890.71 169.24 890.71 168.759 890 167Z" fill="#CCCCCC"/>
<path d="M1112 167C1113.25 167.685 1113.55 167.749 1115 168C1113.75 167.315 1113.45 167.251 1112 167Z" fill="#C6C6C6"/>
<path d="M934 168C935.77 168.779 937.04 168.912 939 169C937.23 168.221 935.96 168.088 934 168Z" fill="#CBCBCB"/>
<path d="M1100 168C1095.54 174.137 1090.62 180.852 1088 188C1094.5 191.604 1100.72 197.289 1108 199C1111.14 192.372 1115.89 186.661 1119 180C1112.82 175.833 1106.51 171.626 1100 168Z" fill="black"/>
<path d="M919 170V173C919.7 171.447 919.7 171.554 919 170Z" fill="#CFCFCF"/>
<path d="M963 170C956.95 174.664 950.68 179.281 944 183C945.33 188.667 949.17 193.357 952.58 197.995C953.78 199.625 955.12 202.022 957.18 202.669C958.95 203.222 960.54 202.214 962 201.35C965.53 199.258 975.49 194.451 975.89 189.907C976.1 187.428 973.94 184.927 972.67 183C969.71 178.512 966.74 173.87 963 170Z" fill="black"/>
<path d="M867 171.465C862.298 172.305 857.642 173.992 854.043 177.214C836.374 193.032 850.212 224.077 874 220.37C877.946 219.755 881.714 218.521 884.996 216.2C905.4 201.776 892.291 166.945 867 171.465Z" fill="black"/>
<path d="M890 171V174C890.696 172.446 890.696 172.554 890 171Z" fill="#808080"/>
<path d="M890 174C891.248 174.685 891.549 174.749 893 175C891.752 174.315 891.452 174.251 890 174Z" fill="#2E2E2E"/>
<path d="M897 175C898.25 175.685 898.55 175.749 900 176C898.75 175.315 898.45 175.251 897 175Z" fill="#D7D7D7"/>
<path d="M900 175C901.51 175.683 902.31 175.826 904 176C902.49 175.317 901.69 175.174 900 175Z" fill="#747474"/>
<path d="M904 175C905.25 175.685 905.55 175.749 907 176C905.75 175.315 905.45 175.251 904 175Z" fill="#333333"/>
<path d="M911 176C912.25 176.685 912.55 176.749 914 177C912.75 176.315 912.45 176.251 911 176Z" fill="#D6D6D6"/>
<path d="M914 176C915.51 176.683 916.31 176.826 918 177C916.49 176.317 915.69 176.174 914 176Z" fill="#757575"/>
<path d="M995.67 176.333C995.22 176.777 996.28 176.722 996.33 176.667C996.78 176.222 995.72 176.278 995.67 176.333Z" fill="#353535"/>
<path d="M1010.33 180.667C1010.28 180.722 1010.22 181.778 1010.67 181.333C1010.72 181.278 1010.78 180.222 1010.33 180.667Z" fill="#2D2D2D"/>
<path d="M977.33 181.667C977.28 181.723 977.22 182.777 977.67 182.333C977.72 182.278 977.78 181.222 977.33 181.667Z" fill="#D7D7D7"/>
<path d="M1009 182C995.74 213.901 992.7 247.119 1005.19 280C1008.43 288.518 1012.45 302.63 1021 307C1014.5 278.916 1004.83 249.856 1023.76 224C1027.34 219.105 1031.36 214.654 1036 210.754C1041.29 206.311 1046.74 201.963 1053 199C1048.75 197.491 1043.1 199.86 1039 201.464C1032.31 204.08 1025.47 207.635 1020 212.301C1015.37 216.246 1011.71 221.204 1007 225C1006.64 216.668 1005.2 208.38 1006.29 200C1007 194.523 1010.56 187.276 1009 182Z" fill="black"/>
<path d="M978 183C981.41 195.147 980.98 206.602 980 219C963.54 208.144 944.54 204 925 204C934.98 209.433 945.61 212.229 955 219.156C959.26 222.302 963.18 225.881 966.53 230C984.81 252.481 975.81 278.873 970 304C974.09 302.702 982.2 302.526 985.15 299.4C986.91 297.536 987.27 294.385 987.87 292C989.37 286.036 990.6 280.032 991.8 274C996.18 251.925 994.56 230.748 989.13 209C987.02 200.575 984.16 189.349 978 183Z" fill="black"/>
<path d="M1016.02 189.588C1005.54 192.352 1009.95 209.757 1020.98 206.343C1031.46 203.104 1026.5 186.822 1016.02 189.588Z" fill="black"/>
<path d="M979.33 190.667C979.28 190.723 979.22 191.777 979.67 191.333C979.72 191.278 979.78 190.222 979.33 190.667Z" fill="#CBCBCB"/>
<path d="M895 192V200C896.16 197.23 896.16 194.77 895 192Z" fill="#686868"/>
<path d="M845 193V199C845.951 196.715 845.951 195.285 845 193Z" fill="#CCCCCC"/>
<path d="M1070 193.468C1049.1 197.376 1045.02 227.01 1065 235.633C1069.15 237.425 1074.59 237.447 1079 236.671C1106.3 231.874 1097.25 188.371 1070 193.468Z" fill="black"/>
<path d="M980 195V199C980.71 197.24 980.71 196.76 980 195Z" fill="#343434"/>
<path d="M1009 197V200C1009.7 198.446 1009.7 198.554 1009 197Z" fill="#343434"/>
<path d="M1027.33 197.667C1027.28 197.723 1027.22 198.777 1027.67 198.333C1027.72 198.278 1027.78 197.222 1027.33 197.667Z" fill="#353535"/>
<path d="M1006.33 198.667C1006.28 198.723 1006.22 199.777 1006.67 199.333C1006.72 199.278 1006.78 198.222 1006.33 198.667Z" fill="#3F3F3F"/>
<path d="M980 199V212C981.59 208.209 981.59 202.791 980 199Z" fill="#7F7F7F"/>
<path d="M1006.33 200.667C1006.28 200.723 1006.22 201.777 1006.67 201.333C1006.72 201.278 1006.78 200.222 1006.33 200.667Z" fill="#939393"/>
<path d="M1006.33 202.667C1006.28 202.723 1006.22 203.777 1006.67 203.333C1006.72 203.278 1006.78 202.222 1006.33 202.667Z" fill="#CFCFCF"/>
<path d="M923 203C924.25 203.685 924.55 203.749 926 204C924.75 203.315 924.45 203.251 923 203Z" fill="#181818"/>
<path d="M926 203C927.51 203.683 928.31 203.826 930 204C928.49 203.317 927.68 203.174 926 203Z" fill="#828282"/>
<path d="M930 203C931.25 203.685 931.55 203.749 933 204C931.75 203.315 931.45 203.251 930 203Z" fill="#CACACA"/>
<path d="M903 213C905.7 217.843 908.9 222.405 912 227C917.03 224.611 921.41 221.125 926 218C924.59 214.335 920.52 205.483 915.91 205.306C911.67 205.143 906.17 210.567 903 213Z" fill="black"/>
<path d="M936.67 204.333C936.22 204.777 937.28 204.722 937.33 204.667C937.78 204.222 936.72 204.278 936.67 204.333Z" fill="#2E2E2E"/>
<path d="M938.67 204.333C938.22 204.777 939.28 204.722 939.33 204.667C939.78 204.222 938.72 204.278 938.67 204.333Z" fill="#777777"/>
<path d="M940.67 204.333C940.22 204.777 941.28 204.722 941.33 204.667C941.78 204.222 940.72 204.278 940.67 204.333Z" fill="#CECECE"/>
<path d="M945.67 205.333C945.22 205.778 946.28 205.722 946.33 205.667C946.78 205.222 945.72 205.278 945.67 205.333Z" fill="#959595"/>
<path d="M1017 207C1018.25 207.685 1018.55 207.749 1020 208C1018.75 207.315 1018.45 207.251 1017 207Z" fill="#C8C8C8"/>
<path d="M980 212V215C980.7 213.446 980.7 213.554 980 212Z" fill="#2A2A2A"/>
<path d="M1051.33 212.667C1051.28 212.722 1051.22 213.778 1051.67 213.333C1051.72 213.278 1051.78 212.222 1051.33 212.667Z" fill="#737373"/>
<path d="M1051.33 214.667C1051.28 214.722 1051.22 215.778 1051.67 215.333C1051.72 215.278 1051.78 214.222 1051.33 214.667Z" fill="#3D3D3D"/>
<path d="M1096 214V217C1096.7 215.446 1096.7 215.554 1096 214Z" fill="#C4C4C4"/>
<path d="M1006 215V218C1006.7 216.446 1006.7 216.554 1006 215Z" fill="#C8C8C8"/>
<path d="M1051 216V219C1051.7 217.446 1051.7 217.554 1051 216Z" fill="#7D7D7D"/>
<path d="M867.667 220.333C867.222 220.778 868.278 220.722 868.333 220.667C868.778 220.222 867.722 220.278 867.667 220.333Z" fill="#1E1E1E"/>
<path d="M873.667 220.333C873.222 220.778 874.278 220.722 874.333 220.667C874.778 220.222 873.722 220.278 873.667 220.333Z" fill="#505050"/>
<path d="M997.33 220.667C997.28 220.722 997.22 221.778 997.67 221.333C997.72 221.278 997.78 220.222 997.33 220.667Z" fill="#7D7D7D"/>
<path d="M1007.67 224.333C1007.22 224.777 1008.28 224.722 1008.33 224.667C1008.78 224.222 1007.72 224.278 1007.67 224.333Z" fill="#8E8E8E"/>
<path d="M899.67 226.333C899.22 226.778 900.28 226.722 900.33 226.667C900.78 226.222 899.72 226.278 899.67 226.333Z" fill="#808080"/>
<path d="M901 226C902.25 226.685 902.55 226.749 904 227C902.75 226.315 902.45 226.251 901 226Z" fill="#2E2E2E"/>
<path d="M904.67 226.333C904.22 226.778 905.28 226.722 905.33 226.667C905.78 226.222 904.72 226.278 904.67 226.333Z" fill="#7B7B7B"/>
<path d="M897 227.558C884.939 230.722 880.72 246.299 887.803 255.957C892.345 262.15 900.7 264.358 908 262.442C921.23 258.97 924.75 241.598 915.79 232.108C911.13 227.179 903.44 225.867 897 227.558Z" fill="black"/>
<path d="M993 227V230C993.7 228.446 993.7 228.554 993 227Z" fill="#A4A4A4"/>
<path d="M996 228V233C996.83 230.97 996.83 230.03 996 228Z" fill="#D0D0D0"/>
<path d="M1043 228L1022 239C1025.02 246.252 1028.67 253.441 1033 260C1040.29 257.901 1047.46 253.814 1054 250C1051.91 242.73 1047.83 233.832 1043 228Z" fill="black"/>
<path d="M993.33 230.667C993.28 230.723 993.22 231.777 993.67 231.333C993.72 231.278 993.78 230.222 993.33 230.667Z" fill="#232323"/>
<path d="M996 233V238C996.83 235.97 996.83 235.03 996 233Z" fill="#7F7F7F"/>
<path d="M994 234V237C994.7 235.446 994.7 235.554 994 234Z" fill="#C8C8C8"/>
<path d="M931 236C928 244.861 923.37 253.713 922 263C930.91 265.063 939.35 269.073 948 272C951.88 263.299 955.05 254.057 958 245C948.84 242.501 940.27 238.143 931 236Z" fill="black"/>
<path d="M994 237V240C994.7 238.446 994.7 238.554 994 237Z" fill="#797979"/>
<path d="M1070.67 237.333C1070.22 237.777 1071.28 237.723 1071.33 237.667C1071.78 237.222 1070.72 237.278 1070.67 237.333Z" fill="#7F7F7F"/>
<path d="M1072 237C1073.25 237.685 1073.55 237.749 1075 238C1073.75 237.315 1073.45 237.251 1072 237Z" fill="#252525"/>
<path d="M1075 237C1076.25 237.685 1076.55 237.749 1078 238C1076.75 237.315 1076.45 237.251 1075 237Z" fill="#7B7B7B"/>
<path d="M996 238V243C996.83 240.97 996.83 240.03 996 238Z" fill="#CECECE"/>
<path d="M994 240V244C994.71 242.24 994.71 241.76 994 240Z" fill="#2D2D2D"/>
<path d="M884.333 241.667C884.278 241.722 884.222 242.778 884.667 242.333C884.722 242.278 884.778 241.222 884.333 241.667Z" fill="#1D1D1D"/>
<path d="M921.33 244.667C921.28 244.723 921.22 245.777 921.67 245.333C921.72 245.278 921.78 244.222 921.33 244.667Z" fill="#CDCDCD"/>
<path d="M997.33 248.667C997.28 248.722 997.22 249.778 997.67 249.333C997.72 249.278 997.78 248.222 997.33 248.667Z" fill="#8C8C8C"/>
<path d="M1013 249V252C1013.7 250.446 1013.7 250.554 1013 249Z" fill="#CACACA"/>
<path d="M997.33 250.667C997.28 250.722 997.22 251.778 997.67 251.333C997.72 251.278 997.78 250.222 997.33 250.667Z" fill="#E7E7E7"/>
<path d="M976.33 251.667C976.28 251.723 976.22 252.777 976.67 252.333C976.72 252.278 976.78 251.222 976.33 251.667Z" fill="#CFCFCF"/>
<path d="M998.33 253.667C998.28 253.722 998.22 254.777 998.67 254.333C998.72 254.278 998.78 253.222 998.33 253.667Z" fill="#373737"/>
<path d="M994 254V257C994.7 255.446 994.7 255.554 994 254Z" fill="#2D2D2D"/>
<path d="M977 255V258C977.7 256.446 977.7 256.554 977 255Z" fill="#343434"/>
<path d="M1012 256V267C1013.43 263.59 1013.43 259.41 1012 256Z" fill="#2E2E2E"/>
<path d="M994.33 257.667C994.28 257.722 994.22 258.777 994.67 258.333C994.72 258.278 994.78 257.222 994.33 257.667Z" fill="#7E7E7E"/>
<path d="M977 258V263C977.83 260.97 977.83 260.03 977 258Z" fill="#808080"/>
<path d="M996 258C996 272.504 990.91 285.809 989 300C997.26 300.005 1005.14 301.502 1013 304C1010.14 296.149 1005.72 288.981 1003 281C1000.5 273.644 999.64 264.799 996 258Z" fill="black"/>
<path d="M994.33 259.667C994.28 259.722 994.22 260.777 994.67 260.333C994.72 260.278 994.78 259.222 994.33 259.667Z" fill="#E7E7E7"/>
<path d="M921.33 261.667C921.28 261.723 921.22 262.777 921.67 262.333C921.72 262.278 921.78 261.222 921.33 261.667Z" fill="#BCBCBC"/>
<path d="M995 262V265C995.7 263.447 995.7 263.554 995 262Z" fill="#C5C5C5"/>
<path d="M900 263C901.77 263.779 903.04 263.912 905 264C903.23 263.221 901.96 263.088 900 263Z" fill="#7F7F7F"/>
<path d="M977 263V267C977.71 265.24 977.71 264.759 977 263Z" fill="#2E2E2E"/>
<path d="M993.33 265.667C993.28 265.722 993.22 266.777 993.67 266.333C993.72 266.278 993.78 265.222 993.33 265.667Z" fill="#CCCCCC"/>
<path d="M995.33 265.667C995.28 265.722 995.22 266.778 995.67 266.333C995.72 266.278 995.78 265.222 995.33 265.667Z" fill="#7F7F7F"/>
<path d="M995.33 267.667C995.28 267.722 995.22 268.778 995.67 268.333C995.72 268.278 995.78 267.222 995.33 267.667Z" fill="#333333"/>
<path d="M992 270V273C992.7 271.446 992.7 271.554 992 270Z" fill="#A8A8A8"/>
<path d="M976.33 271.667C976.28 271.723 976.22 272.777 976.67 272.333C976.72 272.278 976.78 271.222 976.33 271.667Z" fill="#C0C0C0"/>
<path d="M1013 272V275C1013.7 273.446 1013.7 273.554 1013 272Z" fill="#A0A0A0"/>
<path d="M976.33 273.667C976.28 273.723 976.22 274.777 976.67 274.333C976.72 274.278 976.78 273.222 976.33 273.667Z" fill="#787878"/>
<path d="M976.33 275.667C976.28 275.723 976.22 276.777 976.67 276.333C976.72 276.278 976.78 275.222 976.33 275.667Z" fill="#272727"/>
<path d="M795 302C804.469 306.826 802 316.712 802 326V366C802 371.667 803.413 379.628 801.258 384.956C800.007 388.047 796.852 389.422 795 392C801.398 392 817.519 396.477 820 389C829.537 391.721 837.872 395.397 848 392.96C882.199 384.731 876.143 317.422 837 324.465C831.165 325.514 825.933 327.777 821 331C821 323.685 820.719 316.308 821.039 309C821.255 304.071 822.429 299.845 821 295C813 296.651 801.977 297.793 795 302Z" fill="black"/>
<path d="M463 300C465.148 302.975 468.827 304.382 470.258 308.015C472.28 313.152 471 320.559 471 326V366C471 376.31 473.12 386.115 463 392C466.959 393.661 471.74 393 476 393H499C496.691 390.648 493.075 389.046 491.742 385.895C490.27 382.415 491 377.694 491 374V349C493.78 349.002 497.285 348.529 499.775 350.028C502.992 351.964 504.188 356.811 505.756 360C509.344 367.296 512.657 374.704 516.244 382C517.671 384.903 518.69 389.069 520.994 391.397C523.021 393.445 526.371 392.995 529 393H547C544.359 390.496 541.072 388.824 538.789 385.906C529.761 374.37 525.379 358.642 518 346C523.149 343.855 528.695 341.416 532.211 336.907C541.184 325.4 536.961 309.864 524 303.796C515.676 299.9 505.994 300 497 300H463Z" fill="black"/>
<path d="M510.667 300.333C510.222 300.778 511.278 300.722 511.333 300.667C511.778 300.222 510.722 300.278 510.667 300.333Z" fill="#353535"/>
<path d="M988 300C990.61 301.098 993.16 300.993 996 301C993.39 299.902 990.84 300.007 988 300Z" fill="#7F7F7F"/>
<path d="M996 300C997.25 300.685 997.55 300.749 999 301C997.75 300.315 997.45 300.251 996 300Z" fill="#2B2B2B"/>
<path d="M979.67 301.333C979.22 301.777 980.28 301.722 980.33 301.667C980.78 301.222 979.72 301.278 979.67 301.333Z" fill="#9F9F9F"/>
<path d="M1002.67 301.333C1002.22 301.777 1003.28 301.722 1003.33 301.667C1003.78 301.222 1002.72 301.278 1002.67 301.333Z" fill="#707070"/>
<path d="M491 303V346C492.552 342.301 492 337.983 492 334C492 324.94 494.507 311.357 491 303Z" fill="#D0D0D0"/>
<path d="M492 303V346C497.957 345.877 506.157 345.831 510.786 341.606C518.348 334.704 518.997 313.348 510.786 306.653C505.783 302.573 498.06 303.001 492 303Z" fill="white"/>
<path d="M502.667 303.333C502.222 303.778 503.278 303.722 503.333 303.667C503.778 303.222 502.722 303.278 502.667 303.333Z" fill="#BFBFBF"/>
<path d="M821 304V313C822.256 310.006 822.256 306.994 821 304Z" fill="#2F2F2F"/>
<path d="M801 307V385C803.395 379.293 802 371.154 802 365V326C802 320.113 803.292 312.462 801 307Z" fill="#CFCFCF"/>
<path d="M1020.67 307.333C1020.22 307.777 1021.28 307.723 1021.33 307.667C1021.78 307.222 1020.72 307.278 1020.67 307.333Z" fill="#C9C9C9"/>
<path d="M981 334H1004C1002.78 327.737 1001.04 314.89 993.91 312.407C990.92 311.367 988.44 313.861 986.8 316.045C983.11 320.971 981.28 327.943 981 334Z" fill="black"/>
<path d="M821 313V330C822.883 325.514 822.883 317.486 821 313Z" fill="#7F7F7F"/>
<path d="M976 314C967.33 319.113 958.79 324.143 955 334C959.28 334 965.78 335.219 969.72 333.397C974.21 331.324 977.27 318.296 976 314Z" fill="black"/>
<path d="M1007.67 314.333C1007.22 314.778 1008.28 314.722 1008.33 314.667C1008.78 314.222 1007.72 314.278 1007.67 314.333Z" fill="#5B5B5B"/>
<path d="M1008 315C1008.65 319.391 1010.09 331.23 1014.43 333.397C1018.42 335.386 1025.61 334 1030 334C1025.71 324.977 1017.64 317.783 1008 315Z" fill="black"/>
<path d="M516.333 318.667C516.278 318.722 516.222 319.778 516.667 319.333C516.722 319.278 516.778 318.222 516.333 318.667Z" fill="#A2A2A2"/>
<path d="M516 320V329C517.256 326.006 517.256 322.994 516 320Z" fill="#CCCCCC"/>
<path d="M537.333 320.667C537.278 320.722 537.222 321.778 537.667 321.333C537.722 321.278 537.778 320.222 537.333 320.667Z" fill="#C1C1C1"/>
<path d="M537 322V325C537.696 323.446 537.696 323.554 537 322Z" fill="#7D7D7D"/>
<path d="M551 335C554.186 336.11 556.584 337.531 557.566 341.015C558.854 345.583 558 351.29 558 356C558 364.904 559.928 376.413 557.427 384.995C556.4 388.522 554 390.218 551 392C554.699 393.552 559.017 393 563 393H584C582.054 391.069 579.604 389.438 578.317 386.946C574.483 379.521 577 366.195 577 358C577 352.971 576.084 346.899 577.318 342.001C578.822 336.029 586.91 330.917 592.995 332.448C600.015 334.215 599.991 342.179 600 348V373C600 377.031 600.795 382.143 599.258 385.957C598.084 388.869 595.505 390.369 593 392C596.699 393.552 601.017 393 605 393H625C623.385 390.571 620.831 388.779 619.742 385.982C618.445 382.654 619 378.499 619 375V355C619 350.595 617.71 344.372 618.889 340.174C620.471 334.542 629.774 331.026 634.982 332.657C641.819 334.798 641 342.229 641 348V372C641 380.252 642.021 386.471 635 392C638.699 393.552 643.017 393 647 393H667C664.665 389.53 661.249 387.405 660.344 383C659.618 379.464 660 375.589 660 372C660 357.172 666.358 327.326 646 324.301C643.701 323.959 641.311 323.926 639 324.174C635.48 324.551 632.162 325.715 629 327.273C624.421 329.53 620.673 332.495 617 336C616.095 333.568 615.19 331.195 613.442 329.212C602.849 317.196 585.653 327.532 577 336C576.824 331.903 576.235 327.906 575 324C568.149 326.643 555.216 328.821 551 335Z" fill="black"/>
<path d="M673 335C676.186 336.11 678.584 337.531 679.566 341.015C680.854 345.583 680 351.29 680 356C680 364.904 681.928 376.413 679.427 384.995C678.4 388.522 676 390.218 673 392C676.699 393.552 681.017 393 685 393H706C704.092 391.071 701.825 389.422 700.572 386.946C696.655 379.208 699 366.471 699 358C699 352.971 698.084 346.899 699.318 342.001C700.817 336.049 708.908 330.899 714.985 332.448C721.458 334.099 721.972 341.508 721.999 347C722.042 355.666 722 364.334 722 373C722 381.181 722.79 387.4 715 392C718.699 393.552 723.017 393 727 393H747C745.385 390.571 742.831 388.779 741.742 385.982C740.034 381.597 741 375.627 741 371C741 360.116 741.992 348.73 740 338C745.555 335.667 751.543 329.792 757.956 333.18C763.904 336.321 763 343.324 763 349V373C763 380.997 763.774 386.666 757 392C760.699 393.552 765.017 393 769 393H789C786.665 389.53 783.249 387.405 782.344 383C781.618 379.464 782 375.589 782 372C782 357.117 788.358 327.301 768 324.301C765.699 323.962 763.312 323.926 761 324.174C757.48 324.551 754.162 325.715 751 327.273C746.421 329.53 742.673 332.495 739 336C731.647 316.234 710.067 325.169 699 336C698.824 331.903 698.235 327.906 697 324C690.149 326.643 677.216 328.821 673 335Z" fill="black"/>
<path d="M726.667 324.333C726.222 324.778 727.278 324.722 727.333 324.667C727.778 324.222 726.722 324.278 726.667 324.333Z" fill="#4C4C4C"/>
<path d="M902 337L901 325C894.109 325.601 880.062 328.065 876 334C879.587 335.25 882.036 337.02 882.772 341.004C883.825 346.706 883 353.213 883 359C883 366.868 883.767 375.18 882.891 383C882.394 387.439 880.134 389.811 876 391V393H912C909.2 390.516 905.39 389.473 903.57 385.945C901.55 382.029 902 377.258 902 373C902 364.621 900.84 355.258 902.33 347C902.97 343.453 905.16 338.541 908.73 337.037C911.54 335.856 914.01 339.148 916 340.622C920.42 343.89 926.43 345.43 930.57 340.772C936.82 333.729 930.61 323.927 922 324.137C913.06 324.354 908.11 331.712 902 337Z" fill="black"/>
<path d="M1060 335C1063.19 336.11 1065.58 337.531 1066.57 341.015C1067.85 345.583 1067 351.29 1067 356C1067 364.904 1068.93 376.413 1066.43 384.995C1065.4 388.522 1063 390.218 1060 392C1063.7 393.552 1068.02 393 1072 393H1093C1091.05 391.069 1088.6 389.438 1087.32 386.946C1083.48 379.521 1086 366.195 1086 358C1086 352.971 1085.08 346.899 1086.32 342.001C1087.82 336.028 1095.91 330.919 1102 332.448C1109.2 334.26 1109 342.07 1109 348V373C1109 381.181 1109.79 387.399 1102 392C1105.7 393.552 1110.02 393 1114 393H1134C1132.39 390.571 1129.83 388.779 1128.74 385.982C1127.03 381.597 1128 375.627 1128 371C1128 360.116 1128.99 348.73 1127 338C1132.56 335.667 1138.54 329.792 1144.96 333.18C1150.9 336.321 1150 343.324 1150 349V373C1150 380.997 1150.77 386.666 1144 392C1147.7 393.552 1152.02 393 1156 393H1176C1173.84 390.457 1171.12 388.188 1169.89 384.996C1168.26 380.761 1169 375.451 1169 371C1169 359.96 1170.96 346.794 1168.61 336C1165.57 322.058 1148.28 322.204 1138 327.273C1133.42 329.53 1129.67 332.495 1126 336C1125.1 333.569 1124.19 331.195 1122.44 329.212C1111.85 317.196 1094.65 327.532 1086 336C1085.82 331.903 1085.24 327.907 1084 324C1077.15 326.643 1064.22 328.821 1060 335Z" fill="black"/>
<path d="M1245 377C1239.45 379.348 1235.16 383.636 1229 384.674C1211.23 387.669 1203.66 372.279 1203 357H1245C1246 348.95 1245.45 340.794 1240.36 334.04C1224.85 313.43 1188.92 326.177 1183.68 349C1180.55 362.657 1183.56 378.625 1195 387.471C1209.72 398.849 1237.76 395.693 1245 377Z" fill="black"/>
<path d="M1222.67 324.333C1222.22 324.778 1223.28 324.722 1223.33 324.667C1223.78 324.222 1222.72 324.278 1222.67 324.333Z" fill="#5C5C5C"/>
<path d="M537.333 325.667C537.278 325.722 537.222 326.778 537.667 326.333C537.722 326.278 537.778 325.222 537.333 325.667Z" fill="#D3D3D3"/>
<path d="M698 326V329C698.696 327.446 698.696 327.554 698 326Z" fill="#878787"/>
<path d="M901.33 326.667C901.28 326.722 901.22 327.778 901.67 327.333C901.72 327.278 901.78 326.222 901.33 326.667Z" fill="#5A5A5A"/>
<path d="M576.333 327.667C576.278 327.722 576.222 328.778 576.667 328.333C576.722 328.278 576.778 327.222 576.333 327.667Z" fill="#606060"/>
<path d="M1085.33 327.667C1085.28 327.723 1085.22 328.777 1085.67 328.333C1085.72 328.278 1085.78 327.222 1085.33 327.667Z" fill="#727272"/>
<path d="M1204 354H1227C1227 347.637 1228.56 338.823 1225.54 333.018C1221.79 325.805 1212.33 325.599 1207.7 332.055C1203.37 338.103 1204 346.961 1204 354Z" fill="white"/>
<path d="M901.33 328.667C901.28 328.722 901.22 329.778 901.67 329.333C901.72 329.278 901.78 328.222 901.33 328.667Z" fill="#373737"/>
<path d="M516.333 329.667C516.278 329.722 516.222 330.778 516.667 330.333C516.722 330.278 516.778 329.222 516.333 329.667Z" fill="#656565"/>
<path d="M576.333 329.667C576.278 329.722 576.222 330.778 576.667 330.333C576.722 330.278 576.778 329.222 576.333 329.667Z" fill="#2D2D2D"/>
<path d="M698.333 329.667C698.278 329.722 698.222 330.778 698.667 330.333C698.722 330.278 698.778 329.222 698.333 329.667Z" fill="#353535"/>
<path d="M1085.33 329.667C1085.28 329.723 1085.22 330.777 1085.67 330.333C1085.72 330.278 1085.78 329.222 1085.33 329.667Z" fill="#2A2A2A"/>
<path d="M829.667 330.333C829.222 330.778 830.278 330.722 830.333 330.667C830.778 330.222 829.722 330.278 829.667 330.333Z" fill="#808080"/>
<path d="M831 330C833.052 330.874 834.747 330.953 837 331C834.948 330.126 833.253 330.047 831 330Z" fill="#CFCFCF"/>
<path d="M827.019 331.653C819.783 334.024 822 344.018 822 350V375C822 377.954 821.125 382.779 823.028 385.297C825.72 388.86 834.164 388.629 837.996 387.566C844.663 385.718 846.616 378.002 847.561 372C849.829 357.596 850.62 323.919 827.019 331.653Z" fill="white"/>
<path d="M588 332C590.052 332.874 591.747 332.953 594 333C591.948 332.126 590.253 332.047 588 332Z" fill="#CFCFCF"/>
<path d="M630 332C631.769 332.779 633.036 332.912 635 333C633.231 332.221 631.964 332.088 630 332Z" fill="#D0D0D0"/>
<path d="M710 332C712.052 332.874 713.747 332.953 716 333C713.948 332.126 712.253 332.047 710 332Z" fill="#CECECE"/>
<path d="M752 332C753.769 332.779 755.036 332.912 757 333C755.231 332.221 753.964 332.088 752 332Z" fill="#CFCFCF"/>
<path d="M875.333 332.667C875.278 332.722 875.222 333.778 875.667 333.333C875.722 333.278 875.778 332.222 875.333 332.667Z" fill="#D3D3D3"/>
<path d="M902.33 332.667C902.28 332.722 902.22 333.778 902.67 333.333C902.72 333.278 902.78 332.222 902.33 332.667Z" fill="#CACACA"/>
<path d="M933 332V336C933.71 334.24 933.71 333.76 933 332Z" fill="#C7C7C7"/>
<path d="M1097 332C1098.77 332.779 1100.04 332.912 1102 333C1100.23 332.221 1098.96 332.088 1097 332Z" fill="#D6D6D6"/>
<path d="M1139 332C1140.77 332.779 1142.04 332.912 1144 333C1142.23 332.221 1140.96 332.088 1139 332Z" fill="#D2D2D2"/>
<path d="M550.333 333.667C550.278 333.722 550.222 334.778 550.667 334.333C550.722 334.278 550.778 333.222 550.333 333.667Z" fill="#D4D4D4"/>
<path d="M672.333 333.667C672.278 333.722 672.222 334.778 672.667 334.333C672.722 334.278 672.778 333.222 672.333 333.667Z" fill="#D9D9D9"/>
<path d="M954 333C956.97 336.4 963.74 335 968 335C963.72 333.204 958.58 334.091 954 333Z" fill="#7E7E7E"/>
<path d="M1059.33 333.667C1059.28 333.723 1059.22 334.777 1059.67 334.333C1059.72 334.278 1059.78 333.222 1059.33 333.667Z" fill="#D3D3D3"/>
<path d="M902 334C902.41 336.093 902.22 336.02 904 337C903.31 335.612 903.02 335.139 902 334Z" fill="#8C8C8C"/>
<path d="M968.67 334.333C968.22 334.778 969.28 334.722 969.33 334.667C969.78 334.222 968.72 334.278 968.67 334.333Z" fill="#414141"/>
<path d="M980 334C986.69 336.806 996.77 335 1004 335C997.31 332.194 987.23 334 980 334Z" fill="#7E7E7E"/>
<path d="M1014 334C1018.72 335.982 1024.91 335 1030 335C1025.28 333.018 1019.09 334 1014 334Z" fill="#7E7E7E"/>
<path d="M552.667 335.333C552.222 335.778 553.278 335.722 553.333 335.667C553.778 335.222 552.722 335.278 552.667 335.333Z" fill="#9E9E9E"/>
<path d="M1227.33 337.667C1227.28 337.723 1227.22 338.777 1227.67 338.333C1227.72 338.278 1227.78 337.222 1227.33 337.667Z" fill="#2E2E2E"/>
<path d="M640.333 338.667C640.278 338.722 640.222 339.778 640.667 339.333C640.722 339.278 640.778 338.222 640.333 338.667Z" fill="#D5D5D5"/>
<path d="M762.333 338.667C762.278 338.722 762.222 339.777 762.667 339.333C762.722 339.278 762.778 338.222 762.333 338.667Z" fill="#D6D6D6"/>
<path d="M1149.33 338.667C1149.28 338.723 1149.22 339.777 1149.67 339.333C1149.72 339.278 1149.78 338.222 1149.33 338.667Z" fill="#D5D5D5"/>
<path d="M557 339V386C558.661 382.041 558 377.26 558 373V351C558 347.017 558.552 342.699 557 339Z" fill="#7E7E7E"/>
<path d="M577 339V386C578.661 382.041 578 377.26 578 373V351C578 347.017 578.552 342.699 577 339Z" fill="#2F2F2F"/>
<path d="M599 339V386C600.552 382.301 600 377.983 600 374V352C600 347.74 600.661 342.959 599 339Z" fill="#7F7F7F"/>
<path d="M660 339V385C661.552 381.302 661 376.983 661 373V352C661 347.74 661.661 342.958 660 339Z" fill="#2E2E2E"/>
<path d="M679 339V386C680.661 382.041 680 377.26 680 373V351C680 347.017 680.552 342.699 679 339Z" fill="#7F7F7F"/>
<path d="M699 339V385C700.552 381.301 700 376.983 700 373V352C700 347.74 700.661 342.959 699 339Z" fill="#2F2F2F"/>
<path d="M721 339V386C722.552 382.301 722 377.983 722 374V352C722 347.74 722.661 342.959 721 339Z" fill="#7F7F7F"/>
<path d="M782 339V385C783.552 381.301 783 376.983 783 373V352C783 347.74 783.661 342.959 782 339Z" fill="#2F2F2F"/>
<path d="M882 339V385C883.661 381.041 883 376.26 883 372V351C883 347.017 883.552 342.699 882 339Z" fill="#D0D0D0"/>
<path d="M1066 339V386C1067.55 382.302 1067 377.983 1067 374V352C1067 347.74 1067.66 342.958 1066 339Z" fill="#7F7F7F"/>
<path d="M1086 339V386C1087.66 382.041 1087 377.26 1087 373V351C1087 347.017 1087.55 342.699 1086 339Z" fill="#2F2F2F"/>
<path d="M1108 339V386C1109.55 382.302 1109 377.983 1109 374V352C1109 347.74 1109.66 342.958 1108 339Z" fill="#7F7F7F"/>
<path d="M1169 339V385C1170.55 381.302 1170 376.983 1170 373V352C1170 347.74 1170.66 342.958 1169 339Z" fill="#2F2F2F"/>
<path d="M1227 339V342C1227.7 340.446 1227.7 340.554 1227 339Z" fill="#7A7A7A"/>
<path d="M1227 342V347C1227.83 344.97 1227.83 344.03 1227 342Z" fill="#CFCFCF"/>
<path d="M970 366V343C965.43 343 955.33 341.098 951.6 344.028C947.75 347.057 947.59 363.086 952.32 365.397C956.81 367.595 965.05 366 970 366Z" fill="black"/>
<path d="M970 343V366C972.28 360.557 972.28 348.443 970 343Z" fill="#CFCFCF"/>
<path d="M979 343C979 357.214 978.17 371.424 983.23 385C984.58 388.636 986.8 396.016 991.18 397.029C996.64 398.293 999.74 389.779 1001.19 386C1006.39 372.431 1006.12 357.187 1005 343H979Z" fill="black"/>
<path d="M1014 366C1016.6 359.798 1015 350.702 1015 344H1034C1030.31 342.452 1016.74 340.976 1014.6 345.318C1012.08 350.454 1014 360.324 1014 366Z" fill="#2F2F2F"/>
<path d="M978 344V349C978.83 346.97 978.83 346.03 978 344Z" fill="#CCCCCC"/>
<path d="M1005 344V348C1005.71 346.24 1005.71 345.76 1005 344Z" fill="#2E2E2E"/>
<path d="M1015 344V366H1034C1035.36 358.68 1035.36 351.32 1034 344H1015Z" fill="black"/>
<path d="M498 345C499.506 345.683 500.315 345.826 502 346C500.494 345.317 499.685 345.174 498 345Z" fill="#CBCBCB"/>
<path d="M619 345V386C620.552 382.301 620 377.983 620 374C620 365.466 622.306 352.879 619 345Z" fill="#D0D0D0"/>
<path d="M741 345V386C742.552 382.301 742 377.983 742 374C742 365.466 744.306 352.879 741 345Z" fill="#CFCFCF"/>
<path d="M902 345V384C905.21 376.361 903 364.271 903 356C903 352.297 903.44 348.435 902 345Z" fill="#2F2F2F"/>
<path d="M1128 345V386C1131.31 378.121 1129 365.534 1129 357C1129 353.017 1129.55 348.699 1128 345Z" fill="#CFCFCF"/>
<path d="M1245.33 345.667C1245.28 345.723 1245.22 346.777 1245.67 346.333C1245.72 346.278 1245.78 345.222 1245.33 345.667Z" fill="#585858"/>
<path d="M1203 346V349C1203.7 347.447 1203.7 347.554 1203 346Z" fill="#2B2B2B"/>
<path d="M848 347V350C848.696 348.446 848.696 348.554 848 347Z" fill="#1D1D1D"/>
<path d="M949.33 347.667C949.28 347.723 949.22 348.777 949.67 348.333C949.72 348.278 949.78 347.222 949.33 347.667Z" fill="#6E6E6E"/>
<path d="M1227 347V352C1227.83 349.97 1227.83 349.03 1227 347Z" fill="#7E7E7E"/>
<path d="M1245.33 347.667C1245.28 347.723 1245.22 348.777 1245.67 348.333C1245.72 348.278 1245.78 347.222 1245.33 347.667Z" fill="#2B2B2B"/>
<path d="M869.333 348.667C869.278 348.722 869.222 349.778 869.667 349.333C869.722 349.278 869.778 348.222 869.333 348.667Z" fill="#737373"/>
<path d="M491 349V384C493.802 377.322 492 367.216 492 360C492 356.297 492.441 352.435 491 349Z" fill="#D0D0D0"/>
<path d="M949.33 349.667C949.28 349.723 949.22 350.777 949.67 350.333C949.72 350.278 949.78 349.222 949.33 349.667Z" fill="#1A1A1A"/>
<path d="M978 349V362C979.59 358.209 979.59 352.791 978 349Z" fill="#7C7C7C"/>
<path d="M1035.33 349.667C1035.28 349.723 1035.22 350.777 1035.67 350.333C1035.72 350.278 1035.78 349.222 1035.33 349.667Z" fill="#C2C2C2"/>
<path d="M1203 349V354C1203.83 351.97 1203.83 351.03 1203 349Z" fill="#838383"/>
<path d="M848 350V354C848.71 352.241 848.71 351.759 848 350Z" fill="#818181"/>
<path d="M869.333 350.667C869.278 350.722 869.222 351.778 869.667 351.333C869.722 351.278 869.778 350.222 869.333 350.667Z" fill="#292929"/>
<path d="M1035 351V358C1036.06 355.466 1036.06 353.534 1035 351Z" fill="#7F7F7F"/>
<path d="M1227.33 352.667C1227.28 352.723 1227.22 353.777 1227.67 353.333C1227.72 353.278 1227.78 352.222 1227.33 352.667Z" fill="#444444"/>
<path d="M1182.33 353.667C1182.28 353.722 1182.22 354.778 1182.67 354.333C1182.72 354.278 1182.78 353.222 1182.33 353.667Z" fill="#7E7E7E"/>
<path d="M1245.33 353.667C1245.28 353.723 1245.22 354.777 1245.67 354.333C1245.72 354.278 1245.78 353.222 1245.33 353.667Z" fill="#313131"/>
<path d="M848 354V363C849.256 360.006 849.256 356.994 848 354Z" fill="#CFCFCF"/>
<path d="M1182 355V363C1183.16 360.23 1183.16 357.77 1182 355Z" fill="#303030"/>
<path d="M1245.33 355.667C1245.28 355.723 1245.22 356.777 1245.67 356.333C1245.72 356.278 1245.78 355.222 1245.33 355.667Z" fill="#868686"/>
<path d="M1203 357V361C1203.71 359.24 1203.71 358.76 1203 357Z" fill="#797979"/>
<path d="M1035.33 358.667C1035.28 358.723 1035.22 359.777 1035.67 359.333C1035.72 359.278 1035.78 358.222 1035.33 358.667Z" fill="#D4D4D4"/>
<path d="M949.33 359.667C949.28 359.723 949.22 360.777 949.67 360.333C949.72 360.278 949.78 359.222 949.33 359.667Z" fill="#575757"/>
<path d="M1005 361V365C1005.71 363.24 1005.71 362.76 1005 361Z" fill="#272727"/>
<path d="M1203.33 361.667C1203.28 361.722 1203.22 362.778 1203.67 362.333C1203.72 362.278 1203.78 361.222 1203.33 361.667Z" fill="#2A2A2A"/>
<path d="M978 362V366C978.71 364.24 978.71 363.76 978 362Z" fill="#D0D0D0"/>
<path d="M1182 363V366C1182.7 364.446 1182.7 364.554 1182 363Z" fill="#7F7F7F"/>
<path d="M848 364V367C848.696 365.446 848.696 365.554 848 364Z" fill="#7B7B7B"/>
<path d="M869.333 364.667C869.278 364.722 869.222 365.778 869.667 365.333C869.722 365.278 869.778 364.222 869.333 364.667Z" fill="#383838"/>
<path d="M1005 365V368C1005.7 366.446 1005.7 366.554 1005 365Z" fill="#737373"/>
<path d="M869.333 366.667C869.278 366.722 869.222 367.778 869.667 367.333C869.722 367.278 869.778 366.222 869.333 366.667Z" fill="#858585"/>
<path d="M848 367V370C848.696 368.446 848.696 368.554 848 367Z" fill="#373737"/>
<path d="M1005.33 368.667C1005.28 368.723 1005.22 369.777 1005.67 369.333C1005.72 369.278 1005.78 368.222 1005.33 368.667Z" fill="#CFCFCF"/>
<path d="M979.33 370.667C979.28 370.723 979.22 371.777 979.67 371.333C979.72 371.278 979.78 370.222 979.33 370.667Z" fill="#858585"/>
<path d="M1004.33 373.667C1004.28 373.723 1004.22 374.777 1004.67 374.333C1004.72 374.278 1004.78 373.222 1004.33 373.667Z" fill="#8C8C8C"/>
<path d="M954 374C958.97 376.087 965.64 375 971 375C966.03 372.913 959.36 374 954 374ZM1013 374C1018.44 376.282 1025.17 374.613 1031 376C1027.59 372.094 1017.93 374 1013 374Z" fill="#D0D0D0"/>
<path d="M955 375C958.29 384.922 967.75 391.129 977 395C975.9 390.188 974.59 379.079 970.44 376.028C966.99 373.49 959.11 375 955 375Z" fill="black"/>
<path d="M1013 375C1011.54 381.373 1008.95 387.535 1008 394C1017.55 392.153 1025.94 383.532 1030 375H1013Z" fill="black"/>
<path d="M1221 384C1223.61 385.098 1226.16 384.993 1229 385C1226.39 383.902 1223.84 384.007 1221 384Z" fill="#D0D0D0"/>
<path d="M830 388C832.052 388.874 833.747 388.953 836 389C833.948 388.126 832.253 388.047 830 388Z" fill="#CECECE"/>
<path d="M798 392C799.248 392.685 799.549 392.749 801 393C799.752 392.315 799.452 392.251 798 392Z" fill="#CACACA"/>
<path d="M801 392C802.248 392.685 802.549 392.749 804 393C802.752 392.315 802.452 392.251 801 392Z" fill="#838383"/>
<path d="M804 392C805.248 392.685 805.548 392.749 807 393C805.752 392.315 805.452 392.251 804 392Z" fill="#252525"/>
<path d="M811 393C812.248 393.685 812.548 393.749 814 394C812.752 393.315 812.452 393.251 811 393Z" fill="#D0D0D0"/>
<path d="M814 393C815.248 393.685 815.548 393.749 817 394C815.752 393.315 815.451 393.251 814 393Z" fill="#7D7D7D"/>
<path d="M817.667 393.333C817.222 393.778 818.278 393.722 818.333 393.667C818.778 393.222 817.722 393.278 817.667 393.333Z" fill="#1F1F1F"/>
<path d="M834.667 393.333C834.222 393.778 835.278 393.722 835.333 393.667C835.778 393.222 834.722 393.278 834.667 393.333Z" fill="#2B2B2B"/>
<path d="M1207.67 393.333C1207.22 393.777 1208.28 393.722 1208.33 393.667C1208.78 393.222 1207.72 393.278 1207.67 393.333Z" fill="#A1A1A1"/>
<path d="M1223.67 393.333C1223.22 393.777 1224.28 393.722 1224.33 393.667C1224.78 393.222 1223.72 393.278 1223.67 393.333Z" fill="#A7A7A7"/>
</svg>
