<svg width="40" height="41" viewBox="0 0 40 41" fill="none" xmlns="http://www.w3.org/2000/svg">
<path d="M20 40.8149C31.0457 40.8149 40 31.8606 40 20.8149C40 9.76925 31.0457 0.814941 20 0.814941C8.95431 0.814941 0 9.76925 0 20.8149C0 31.8606 8.95431 40.8149 20 40.8149Z" fill="#C4C4C4" fill-opacity="0.28"/>
<path fill-rule="evenodd" clip-rule="evenodd" d="M24.9509 25.7379C24.0018 26.6512 22.826 27.2943 21.5451 27.6009C20.8174 27.7945 20.0582 27.8402 19.3125 27.7353C18.5668 27.6304 17.8497 27.3771 17.2036 26.9903L17.049 26.8956L17.0129 26.8757C17.0025 26.8713 16.9916 26.8679 16.9805 26.8657C16.9681 26.8644 16.9555 26.8644 16.9431 26.8657H16.9144L16.7761 26.9006H16.7587C16.3649 27.0028 16.0446 27.085 15.7879 27.1336C15.5427 27.1903 15.2888 27.1992 15.0402 27.1598C14.6966 27.0898 14.3812 26.9203 14.1332 26.6723C13.8853 26.4244 13.7158 26.109 13.6458 25.7654C13.6062 25.5168 13.6151 25.2629 13.672 25.0177C13.7206 24.7597 13.8028 24.4407 13.905 24.0469V24.0295C13.9224 23.9622 13.9324 23.9211 13.9399 23.8912C13.9474 23.8612 13.9399 23.8612 13.9399 23.8612C13.9439 23.8379 13.9404 23.8139 13.9299 23.7927C13.9299 23.7927 13.9237 23.7802 13.91 23.7566C13.8963 23.7329 13.8614 23.6756 13.8153 23.6033C13.4262 22.963 13.1694 22.2512 13.0601 21.51C12.9507 20.7688 12.991 20.0133 13.1785 19.2879C13.4904 17.9953 14.1462 16.8112 15.0764 15.861C16.3861 14.551 18.1626 13.8151 20.015 13.8149C21.8675 13.8148 23.644 14.5506 24.954 15.8603C26.2639 17.1701 26.9999 18.9466 27 20.799C27.0001 22.6514 26.2644 24.428 24.9546 25.7379H24.9509Z" fill="#0E0E0E"/>
<path d="M22.7548 21.8985C23.3605 21.8985 23.8514 21.4076 23.8514 20.8019C23.8514 20.1963 23.3605 19.7053 22.7548 19.7053C22.1492 19.7053 21.6582 20.1963 21.6582 20.8019C21.6582 21.4076 22.1492 21.8985 22.7548 21.8985Z" fill="#EFF8FF"/>
<path d="M20.0126 21.8985C20.6183 21.8985 21.1092 21.4076 21.1092 20.8019C21.1092 20.1963 20.6183 19.7053 20.0126 19.7053C19.407 19.7053 18.916 20.1963 18.916 20.8019C18.916 21.4076 19.407 21.8985 20.0126 21.8985Z" fill="#EFF8FF"/>
<path d="M17.2704 21.8985C17.8761 21.8985 18.367 21.4076 18.367 20.8019C18.367 20.1963 17.8761 19.7053 17.2704 19.7053C16.6648 19.7053 16.1738 20.1963 16.1738 20.8019C16.1738 21.4076 16.6648 21.8985 17.2704 21.8985Z" fill="#EFF8FF"/>
</svg>
