<svg width="20" height="21" viewBox="0 0 20 21" fill="none" xmlns="http://www.w3.org/2000/svg">
<path d="M18.6419 10.5849C18.6419 15.3009 14.7836 19.1433 10 19.1433C5.21644 19.1433 1.35808 15.3009 1.35808 10.5849C1.35808 5.86898 5.21644 2.02654 10 2.02654C14.7836 2.02654 18.6419 5.86898 18.6419 10.5849Z" fill="#FEC424" stroke="url(#paint0_linear_714_166161)" stroke-width="2.71617"/>
<path d="M19.8354 10.4175C19.8354 15.802 15.4332 20.1693 10 20.1693C4.56676 20.1693 0.164616 15.802 0.164616 10.4175C0.164616 5.03295 4.56676 0.665593 10 0.665593C15.4332 0.665593 19.8354 5.03295 19.8354 10.4175Z" stroke="url(#paint1_linear_714_166161)" stroke-width="0.329232"/>
<path d="M16.5419 10.4176C16.5419 13.9996 13.6134 16.9051 9.9987 16.9051C6.38401 16.9051 3.45549 13.9996 3.45549 10.4176C3.45549 6.83564 6.38401 3.9301 9.9987 3.9301C13.6134 3.9301 16.5419 6.83564 16.5419 10.4176Z" stroke="url(#paint2_linear_714_166161)" stroke-width="0.246924"/>
<path d="M8.27539 8.09033H7.9043V9.90674H8.24935C8.71376 9.9024 8.9503 9.60075 8.95898 9.00179C8.95464 8.40283 8.72678 8.09901 8.27539 8.09033ZM8.55534 11.8208H6.47201V11.645H6.99284V8.09033H6.47201V7.91455H8.64648C8.93294 7.91455 9.18034 7.96446 9.38867 8.06429C9.75326 8.24224 9.93555 8.53521 9.93555 8.9432C9.93555 9.10813 9.90733 9.25787 9.85091 9.39242C9.65994 9.86551 9.18902 10.1021 8.43815 10.1021H7.9043V11.645H8.37956C8.4707 11.6537 8.5293 11.7123 8.55534 11.8208ZM11.9342 8.09033H11.5632V9.90674H11.9082C12.3726 9.9024 12.6092 9.60075 12.6178 9.00179C12.6135 8.40283 12.3856 8.09901 11.9342 8.09033ZM12.2142 11.8208H10.1309V11.645H10.6517V8.09033H10.1309V7.91455H12.3053C12.5918 7.91455 12.8392 7.96446 13.0475 8.06429C13.4121 8.24224 13.5944 8.53521 13.5944 8.9432C13.5944 9.10813 13.5662 9.25787 13.5098 9.39242C13.3188 9.86551 12.8479 10.1021 12.097 10.1021H11.5632V11.645H12.0384C12.1296 11.6537 12.1882 11.7123 12.2142 11.8208Z" fill="#090909"/>
<defs>
<linearGradient id="paint0_linear_714_166161" x1="17.1705" y1="3.26124" x2="4.06708" y2="18.4993" gradientUnits="userSpaceOnUse">
<stop stop-color="#FED64A"/>
<stop offset="0.123016" stop-color="#FEF14E"/>
<stop offset="0.248796" stop-color="#FFDF6C"/>
<stop offset="0.482583" stop-color="#FCFF67"/>
<stop offset="0.743348" stop-color="#FED545"/>
<stop offset="0.82597" stop-color="#FECA45"/>
<stop offset="1" stop-color="#FEED44"/>
</linearGradient>
<linearGradient id="paint1_linear_714_166161" x1="8.03226" y1="0.500977" x2="10.4242" y2="20.3387" gradientUnits="userSpaceOnUse">
<stop stop-color="#FFF3C4"/>
<stop offset="0.483894" stop-color="#EDC071"/>
<stop offset="0.961122" stop-color="#BF8147"/>
</linearGradient>
<linearGradient id="paint2_linear_714_166161" x1="8.33479" y1="3.80664" x2="14.274" y2="15.6273" gradientUnits="userSpaceOnUse">
<stop stop-color="#C8892B"/>
<stop offset="0.979601" stop-color="#FFEDA3"/>
</linearGradient>
</defs>
</svg>
