<svg width="40" height="41" viewBox="0 0 40 41" fill="none" xmlns="http://www.w3.org/2000/svg">
<path d="M20 40.8149C31.0457 40.8149 40 31.8606 40 20.8149C40 9.76925 31.0457 0.814941 20 0.814941C8.95431 0.814941 0 9.76925 0 20.8149C0 31.8606 8.95431 40.8149 20 40.8149Z" fill="#C4C4C4" fill-opacity="0.28"/>
<path d="M26.8366 20.2392L21.7787 14.9882C21.6976 14.9063 21.5941 14.8501 21.4812 14.8269C21.3683 14.8037 21.2511 14.8144 21.1443 14.8577C21.0375 14.9011 20.9459 14.975 20.881 15.0703C20.8162 15.1656 20.781 15.278 20.78 15.3933V17.9167H20.5858C18.5746 17.919 16.6465 18.719 15.2244 20.1411C13.8023 21.5632 13.0023 23.4913 13 25.5025V26.6699C13.0018 26.8 13.0477 26.9257 13.1301 27.0265C13.2125 27.1272 13.3266 27.1971 13.4539 27.2247C13.4959 27.2352 13.5392 27.2404 13.5826 27.2402C13.6934 27.239 13.8017 27.2072 13.8956 27.1485C13.9896 27.0898 14.0656 27.0063 14.1152 26.9073C14.6445 25.838 15.4629 24.9385 16.4775 24.3108C17.4922 23.6831 18.6625 23.3525 19.8556 23.3563H20.78V25.8964C20.781 26.0117 20.8162 26.124 20.881 26.2193C20.9459 26.3146 21.0375 26.3886 21.1443 26.4319C21.2511 26.4753 21.3683 26.486 21.4812 26.4628C21.5941 26.4395 21.6976 26.3834 21.7787 26.3014L26.8355 21.0504C26.9408 20.9417 26.9998 20.7964 27 20.6451C27.0002 20.4937 26.9416 20.3482 26.8366 20.2392Z" fill="#0E0E0E"/>
</svg>
