<svg width="85" height="59" viewBox="0 0 85 59" fill="none" xmlns="http://www.w3.org/2000/svg">
<mask id="path-1-outside-1_714_173953" maskUnits="userSpaceOnUse" x="-0.162109" y="0.155762" width="85" height="59" fill="black">
<rect fill="white" x="-0.162109" y="0.155762" width="85" height="59"/>
<path fill-rule="evenodd" clip-rule="evenodd" d="M52.5852 1.15576C56.0147 1.15576 58.7949 3.86315 58.7949 7.20288V51.5484C58.7949 54.8882 56.0147 57.5956 52.5852 57.5956H7.04757C3.61806 57.5956 0.837891 54.8882 0.837891 51.5484V7.20288C0.837891 3.86315 3.61806 1.15576 7.04757 1.15576H52.5852ZM83.162 9.97728C83.4716 10.5538 83.6333 11.1948 83.6333 11.8454V45.9348C83.6333 48.1613 81.7798 49.9662 79.4935 49.9662C78.8262 49.9662 78.1689 49.8092 77.5774 49.5084L67.0741 44.168V13.6202L77.5752 8.27289C79.6012 7.24118 82.1025 8.00426 83.162 9.97728ZM29.8161 9.21861C18.3844 9.21861 9.11713 18.2432 9.11713 29.3757C9.11713 40.5081 18.3844 49.5327 29.8161 49.5327C41.2478 49.5327 50.515 40.5081 50.515 29.3757C50.515 18.2432 41.2478 9.21861 29.8161 9.21861ZM29.8161 17.2814C36.6751 17.2814 42.2354 22.6962 42.2354 29.3757C42.2354 36.0551 36.6751 41.4699 29.8161 41.4699C22.957 41.4699 17.3967 36.0551 17.3967 29.3757C17.3967 22.6962 22.957 17.2814 29.8161 17.2814Z"/>
</mask>
<path fill-rule="evenodd" clip-rule="evenodd" d="M52.5852 1.15576C56.0147 1.15576 58.7949 3.86315 58.7949 7.20288V51.5484C58.7949 54.8882 56.0147 57.5956 52.5852 57.5956H7.04757C3.61806 57.5956 0.837891 54.8882 0.837891 51.5484V7.20288C0.837891 3.86315 3.61806 1.15576 7.04757 1.15576H52.5852ZM83.162 9.97728C83.4716 10.5538 83.6333 11.1948 83.6333 11.8454V45.9348C83.6333 48.1613 81.7798 49.9662 79.4935 49.9662C78.8262 49.9662 78.1689 49.8092 77.5774 49.5084L67.0741 44.168V13.6202L77.5752 8.27289C79.6012 7.24118 82.1025 8.00426 83.162 9.97728ZM29.8161 9.21861C18.3844 9.21861 9.11713 18.2432 9.11713 29.3757C9.11713 40.5081 18.3844 49.5327 29.8161 49.5327C41.2478 49.5327 50.515 40.5081 50.515 29.3757C50.515 18.2432 41.2478 9.21861 29.8161 9.21861ZM29.8161 17.2814C36.6751 17.2814 42.2354 22.6962 42.2354 29.3757C42.2354 36.0551 36.6751 41.4699 29.8161 41.4699C22.957 41.4699 17.3967 36.0551 17.3967 29.3757C17.3967 22.6962 22.957 17.2814 29.8161 17.2814Z" fill="#FEFFFE"/>
<path d="M83.162 9.97728L83.8723 9.59585L83.162 9.97728ZM77.5774 49.5084L77.212 50.2272L77.5774 49.5084ZM67.0741 44.168H66.2678V44.6626L66.7087 44.8867L67.0741 44.168ZM67.0741 13.6202L66.7083 12.9018L66.2678 13.126V13.6202H67.0741ZM77.5752 8.27289L77.941 8.99138L77.5752 8.27289ZM52.5852 1.96204C55.5897 1.96204 57.9886 4.32848 57.9886 7.20288H59.6012C59.6012 3.39782 56.4397 0.349479 52.5852 0.349479V1.96204ZM57.9886 7.20288V51.5484H59.6012V7.20288H57.9886ZM57.9886 51.5484C57.9886 54.4228 55.5897 56.7893 52.5852 56.7893V58.4018C56.4397 58.4018 59.6012 55.3535 59.6012 51.5484H57.9886ZM52.5852 56.7893H7.04757V58.4018H52.5852V56.7893ZM7.04757 56.7893C4.04306 56.7893 1.64417 54.4228 1.64417 51.5484H0.0316079C0.0316079 55.3535 3.19306 58.4018 7.04757 58.4018V56.7893ZM1.64417 51.5484V7.20288H0.0316079V51.5484H1.64417ZM1.64417 7.20288C1.64417 4.32848 4.04306 1.96204 7.04757 1.96204V0.349479C3.19306 0.349479 0.0316079 3.39782 0.0316079 7.20288H1.64417ZM7.04757 1.96204H52.5852V0.349479H7.04757V1.96204ZM82.4516 10.3587C82.6986 10.8187 82.827 11.3287 82.827 11.8454H84.4395C84.4395 11.0608 84.2445 10.2889 83.8723 9.59585L82.4516 10.3587ZM82.827 11.8454V45.9348H84.4395V11.8454H82.827ZM82.827 45.9348C82.827 47.696 81.3548 49.1599 79.4935 49.1599V50.7725C82.2048 50.7725 84.4395 48.6266 84.4395 45.9348H82.827ZM79.4935 49.1599C78.9525 49.1599 78.4205 49.0326 77.9429 48.7897L77.212 50.2272C77.9173 50.5858 78.7 50.7725 79.4935 50.7725V49.1599ZM77.9429 48.7897L67.4396 43.4493L66.7087 44.8867L77.212 50.2272L77.9429 48.7897ZM67.8804 44.168V13.6202H66.2678V44.168H67.8804ZM67.44 14.3387L77.941 8.99138L77.2093 7.5544L66.7083 12.9018L67.44 14.3387ZM77.941 8.99138C79.5864 8.15356 81.6049 8.78175 82.4516 10.3587L83.8723 9.59585C82.6002 7.22677 79.6161 6.3288 77.2093 7.5544L77.941 8.99138ZM29.8161 8.41233C17.9594 8.41233 8.31085 17.7779 8.31085 29.3757H9.92342C9.92342 18.7086 18.8094 10.0249 29.8161 10.0249V8.41233ZM8.31085 29.3757C8.31085 40.9734 17.9594 50.339 29.8161 50.339V48.7265C18.8094 48.7265 9.92342 40.0428 9.92342 29.3757H8.31085ZM29.8161 50.339C41.6728 50.339 51.3213 40.9734 51.3213 29.3757H49.7087C49.7087 40.0428 40.8228 48.7265 29.8161 48.7265V50.339ZM51.3213 29.3757C51.3213 17.7779 41.6728 8.41233 29.8161 8.41233V10.0249C40.8228 10.0249 49.7087 18.7086 49.7087 29.3757H51.3213ZM29.8161 18.0877C36.2501 18.0877 41.4291 23.1615 41.4291 29.3757H43.0417C43.0417 22.2309 37.1001 16.4752 29.8161 16.4752V18.0877ZM41.4291 29.3757C41.4291 35.5898 36.2501 40.6636 29.8161 40.6636V42.2762C37.1001 42.2762 43.0417 36.5205 43.0417 29.3757H41.4291ZM29.8161 40.6636C23.382 40.6636 18.203 35.5898 18.203 29.3757H16.5904C16.5904 36.5205 22.532 42.2762 29.8161 42.2762V40.6636ZM18.203 29.3757C18.203 23.1615 23.382 18.0877 29.8161 18.0877V16.4752C22.532 16.4752 16.5904 22.2309 16.5904 29.3757H18.203Z" fill="black" fill-opacity="0.2" mask="url(#path-1-outside-1_714_173953)"/>
</svg>
