<svg width="20" height="20" viewBox="0 0 20 20" fill="none" xmlns="http://www.w3.org/2000/svg">
<path d="M5.09658 5.78061L5.11117 5.77936L5.12571 5.77754C5.28389 5.75777 5.45867 5.75 5.65768 5.75H10.991C12.204 5.75 12.9777 6.05363 13.4534 6.52929C13.9291 7.00495 14.2327 7.7787 14.2327 8.99167V12.325C14.2327 12.524 14.2249 12.6988 14.2051 12.857L14.2033 12.8716L14.2021 12.8863C14.1178 13.8754 13.7968 14.508 13.3287 14.9052C12.8505 15.311 12.1069 15.5667 10.991 15.5667H10.6577C10.2133 15.5667 9.79099 15.7778 9.52435 16.1333L8.52435 17.4667L8.52333 17.468C8.42148 17.6045 8.34189 17.6104 8.32435 17.6104C8.3068 17.6104 8.22721 17.6045 8.12536 17.468L8.12435 17.4667L7.12435 16.1333L7.12437 16.1333L7.12012 16.1277C6.97836 15.9424 6.78964 15.8112 6.62409 15.7275C6.45902 15.6441 6.23537 15.5667 5.99102 15.5667H5.65768C4.34083 15.5667 3.5987 15.3905 3.15829 15.0059C2.74309 14.6433 2.41602 13.9272 2.41602 12.325V8.99167C2.41602 7.87705 2.67321 7.13319 3.08013 6.65454C3.47886 6.18554 4.11216 5.86478 5.09658 5.78061ZM3.83268 10.8333C3.83268 11.701 4.53025 12.4167 5.41602 12.4167C6.06595 12.4167 6.62613 12.0223 6.86967 11.4605C7.11058 12.0206 7.66538 12.4167 8.32435 12.4167C8.98666 12.4167 9.54376 12.0165 9.78268 11.4519C10.0216 12.0165 10.5787 12.4167 11.241 12.4167C12.1136 12.4167 12.8243 11.7059 12.8243 10.8333C12.8243 9.96079 12.1136 9.25 11.241 9.25C10.5869 9.25 10.0237 9.64948 9.78268 10.2171C9.5417 9.64948 8.97848 9.25 8.32435 9.25C7.67396 9.25 7.11344 9.64492 6.87018 10.2074C6.62692 9.64492 6.06641 9.25 5.41602 9.25C4.54347 9.25 3.83268 9.96079 3.83268 10.8333Z" fill="#292D32" stroke="#0E0E0E" stroke-width="1.5"/>
<path d="M18.3162 5.65817V8.9915C18.3162 10.6582 17.7996 11.7915 16.7662 12.4165C16.5162 12.5665 16.2246 12.3665 16.2246 12.0748L16.2329 8.9915C16.2329 5.65817 14.3246 3.74984 10.9912 3.74984L5.91622 3.75817C5.62455 3.75817 5.42455 3.4665 5.57455 3.2165C6.19955 2.18317 7.33289 1.6665 8.99122 1.6665H14.3246C16.9829 1.6665 18.3162 2.99984 18.3162 5.65817Z" fill="#292D32"/>
</svg>
