<svg width="24" height="25" viewBox="0 0 24 25" fill="none" xmlns="http://www.w3.org/2000/svg">
<mask id="path-1-inside-1_755_190" fill="white">
<path d="M8.75 4V2.5C8.75 2.09 8.41 1.75 8 1.75C7.59 1.75 7.25 2.09 7.25 2.5V4.06C7.5 4.03 7.73 4 8 4H8.75Z"/>
</mask>
<path d="M8.75 4V2.5C8.75 2.09 8.41 1.75 8 1.75C7.59 1.75 7.25 2.09 7.25 2.5V4.06C7.5 4.03 7.73 4 8 4H8.75Z" fill="#0E0E0E"/>
<path d="M8.75 4V5.5H10.25V4H8.75ZM7.25 4.06H5.75V5.75076L7.42872 5.54932L7.25 4.06ZM10.25 4V2.5H7.25V4H10.25ZM10.25 2.5C10.25 1.26157 9.23843 0.25 8 0.25V3.25C7.58157 3.25 7.25 2.91843 7.25 2.5H10.25ZM8 0.25C6.76157 0.25 5.75 1.26157 5.75 2.5H8.75C8.75 2.91843 8.41843 3.25 8 3.25V0.25ZM5.75 2.5V4.06H8.75V2.5H5.75ZM7.42872 5.54932C7.69968 5.5168 7.83655 5.5 8 5.5V2.5C7.62345 2.5 7.30032 2.5432 7.07128 2.57068L7.42872 5.54932ZM8 5.5H8.75V2.5H8V5.5Z" fill="#0E0E0E" mask="url(#path-1-inside-1_755_190)"/>
<mask id="path-3-inside-2_755_190" fill="white">
<path d="M16.75 4.06V2.5C16.75 2.09 16.41 1.75 16 1.75C15.59 1.75 15.25 2.09 15.25 2.5V4H16C16.27 4 16.5 4.03 16.75 4.06Z"/>
</mask>
<path d="M16.75 4.06V2.5C16.75 2.09 16.41 1.75 16 1.75C15.59 1.75 15.25 2.09 15.25 2.5V4H16C16.27 4 16.5 4.03 16.75 4.06Z" fill="#0E0E0E"/>
<path d="M16.75 4.06L16.5713 5.54932L18.25 5.75076V4.06H16.75ZM15.25 4H13.75V5.5H15.25V4ZM18.25 4.06V2.5H15.25V4.06H18.25ZM18.25 2.5C18.25 1.26157 17.2384 0.25 16 0.25V3.25C15.5816 3.25 15.25 2.91843 15.25 2.5H18.25ZM16 0.25C14.7616 0.25 13.75 1.26157 13.75 2.5H16.75C16.75 2.91843 16.4184 3.25 16 3.25V0.25ZM13.75 2.5V4H16.75V2.5H13.75ZM15.25 5.5H16V2.5H15.25V5.5ZM16 5.5C16.1634 5.5 16.3003 5.5168 16.5713 5.54932L16.9287 2.57068C16.6997 2.5432 16.3766 2.5 16 2.5V5.5Z" fill="#0E0E0E" mask="url(#path-3-inside-2_755_190)"/>
<path d="M17.5 5.5V4.939C18.3689 5.14855 18.9795 5.54829 19.3989 6.06506C19.9502 6.74455 20.25 7.72405 20.25 9V17.5C20.25 18.885 19.9036 19.9246 19.2629 20.6147C18.6315 21.2946 17.607 21.75 16 21.75H8C6.39295 21.75 5.36848 21.2946 4.7371 20.6147C4.09637 19.9246 3.75 18.885 3.75 17.5V9C3.75 7.72405 4.04981 6.74455 4.60115 6.06506C5.02046 5.54829 5.63105 5.14855 6.5 4.939V5.5C6.5 6.32421 7.17579 7 8 7C8.82421 7 9.5 6.32421 9.5 5.5V4.75H14.5V5.5C14.5 6.32421 15.1758 7 16 7C16.8242 7 17.5 6.32421 17.5 5.5ZM8 18H12C12.8242 18 13.5 17.3242 13.5 16.5C13.5 15.6758 12.8242 15 12 15H8C7.17579 15 6.5 15.6758 6.5 16.5C6.5 17.3242 7.17579 18 8 18ZM8 13H16C16.8242 13 17.5 12.3242 17.5 11.5C17.5 10.6758 16.8242 10 16 10H8C7.17579 10 6.5 10.6758 6.5 11.5C6.5 12.3242 7.17579 13 8 13Z" fill="#0E0E0E" stroke="#0E0E0E" stroke-width="1.5"/>
</svg>
