<svg width="20" height="20" viewBox="0 0 20 20" fill="none" xmlns="http://www.w3.org/2000/svg">
<path d="M4.79315 10.528L4.79319 10.528L4.79759 10.5205C4.94284 10.2724 5.05982 9.95419 5.1401 9.66259C5.2202 9.37162 5.28367 9.03498 5.28367 8.74165V7.19165C5.28367 4.58308 7.40422 2.46607 10.018 2.45831C12.6193 2.45887 14.742 4.58046 14.742 7.19165V8.74998C14.742 9.04363 14.8055 9.38076 14.8874 9.67364C14.9689 9.96539 15.089 10.2866 15.2419 10.5382L16.1806 12.0998C16.1809 12.1002 16.1811 12.1007 16.1814 12.1012C16.4085 12.4844 16.4496 12.9294 16.2983 13.3361C16.1435 13.7438 15.8206 14.0615 15.395 14.2056C14.5307 14.4936 13.6458 14.7165 12.7563 14.8595L12.7487 14.8607L12.7412 14.8621C12.6437 14.8798 12.5851 14.8899 12.5324 14.8947L12.5046 14.8973L12.477 14.9019C12.3505 14.9229 12.2208 14.9375 12.0675 14.9546L12.0582 14.9556L12.049 14.9569C11.887 14.979 11.7139 14.9942 11.5187 15.0111L11.5187 15.0111L11.5114 15.0118C11.0192 15.0594 10.5183 15.0833 10.017 15.0833C9.50695 15.0833 8.99735 15.0594 8.49644 15.0117L8.48859 15.0109L8.48073 15.0104C8.27586 14.9952 8.07875 14.9725 7.88104 14.942L7.87359 14.9409L7.86612 14.9399C7.74503 14.9237 7.62798 14.9081 7.51897 14.8926C7.46218 14.8827 7.40845 14.8754 7.36911 14.87L7.36417 14.8694C7.31567 14.8627 7.28628 14.8586 7.25949 14.8537L7.2595 14.8537L7.25187 14.8524C6.35875 14.6995 5.48799 14.4914 4.62917 14.2051L4.62918 14.2051L4.62381 14.2034C4.16309 14.0536 3.83644 13.7294 3.69543 13.3481L3.69543 13.3481L3.69425 13.345C3.5598 12.9865 3.5949 12.5319 3.85333 12.0916L4.79315 10.528ZM9.992 9.71665C10.7562 9.71665 11.3753 9.09753 11.3753 8.33331V5.74998C11.3753 4.98577 10.7562 4.36665 9.992 4.36665C9.22779 4.36665 8.60866 4.98577 8.60866 5.74998V8.33331C8.60866 9.09753 9.22779 9.71665 9.992 9.71665Z" fill="#0E0E0E" stroke="#0E0E0E" stroke-width="1.5"/>
<mask id="path-2-inside-1_755_740" fill="white">
<path d="M12.3587 16.675C12.0087 17.6417 11.0837 18.3334 10.0004 18.3334C9.34206 18.3334 8.69206 18.0667 8.23372 17.5917C7.96706 17.3417 7.76706 17.0084 7.65039 16.6667C7.75872 16.6834 7.86706 16.6917 7.98372 16.7084C8.17539 16.7334 8.37539 16.7584 8.57539 16.775C9.05039 16.8167 9.53372 16.8417 10.0171 16.8417C10.4921 16.8417 10.9671 16.8167 11.4337 16.775C11.6087 16.7584 11.7837 16.75 11.9504 16.725C12.0837 16.7084 12.2171 16.6917 12.3587 16.675Z"/>
</mask>
<path d="M12.3587 16.675C12.0087 17.6417 11.0837 18.3334 10.0004 18.3334C9.34206 18.3334 8.69206 18.0667 8.23372 17.5917C7.96706 17.3417 7.76706 17.0084 7.65039 16.6667C7.75872 16.6834 7.86706 16.6917 7.98372 16.7084C8.17539 16.7334 8.37539 16.7584 8.57539 16.775C9.05039 16.8167 9.53372 16.8417 10.0171 16.8417C10.4921 16.8417 10.9671 16.8167 11.4337 16.775C11.6087 16.7584 11.7837 16.75 11.9504 16.725C12.0837 16.7084 12.2171 16.6917 12.3587 16.675Z" fill="#0E0E0E"/>
<path d="M12.3587 16.675L13.7691 17.1857L14.5962 14.9014L12.1835 15.1853L12.3587 16.675ZM8.23372 17.5917L9.31315 16.5501L9.28706 16.5231L9.25964 16.4974L8.23372 17.5917ZM7.65039 16.6667L7.87848 15.1841L5.43052 14.8075L6.23087 17.1514L7.65039 16.6667ZM7.98372 16.7084L7.77159 18.1933L7.78065 18.1946L7.78971 18.1958L7.98372 16.7084ZM8.57539 16.775L8.70647 15.2807L8.69996 15.2802L8.57539 16.775ZM11.4337 16.775L11.5671 18.2691L11.5759 18.2683L11.4337 16.775ZM11.9504 16.725L11.7643 15.2366L11.7461 15.2389L11.7279 15.2416L11.9504 16.725ZM10.9483 16.1644C10.8054 16.5592 10.4291 16.8334 10.0004 16.8334V19.8334C11.7383 19.8334 13.2121 18.7242 13.7691 17.1857L10.9483 16.1644ZM10.0004 16.8334C9.73528 16.8334 9.4793 16.7223 9.31315 16.5501L7.1543 18.6332C7.90482 19.4111 8.94884 19.8334 10.0004 19.8334V16.8334ZM9.25964 16.4974C9.19613 16.4378 9.11862 16.3246 9.06992 16.182L6.23087 17.1514C6.41549 17.6921 6.73799 18.2455 7.20781 18.686L9.25964 16.4974ZM7.4223 18.1492C7.5099 18.1627 7.59186 18.172 7.6452 18.178C7.70638 18.1849 7.73925 18.1887 7.77159 18.1933L8.19586 15.2234C8.11153 15.2114 8.0319 15.2026 7.98266 15.197C7.92559 15.1906 7.89921 15.1873 7.87848 15.1841L7.4223 18.1492ZM7.78971 18.1958C7.98356 18.221 8.21333 18.25 8.45082 18.2698L8.69996 15.2802C8.53746 15.2667 8.36722 15.2457 8.17773 15.221L7.78971 18.1958ZM8.44431 18.2693C8.95492 18.3141 9.48263 18.3417 10.0171 18.3417V15.3417C9.58482 15.3417 9.14586 15.3193 8.70647 15.2808L8.44431 18.2693ZM10.0171 18.3417C10.544 18.3417 11.0642 18.314 11.5671 18.2691L11.3003 15.281C10.8699 15.3194 10.4401 15.3417 10.0171 15.3417V18.3417ZM11.5759 18.2683C11.6499 18.2612 11.9572 18.2408 12.1729 18.2084L11.7279 15.2416C11.6103 15.2593 11.5676 15.2555 11.2915 15.2818L11.5759 18.2683ZM12.1364 18.2134C12.2704 18.1967 12.3985 18.1807 12.534 18.1647L12.1835 15.1853C12.0356 15.2027 11.897 15.22 11.7643 15.2366L12.1364 18.2134Z" fill="#0E0E0E" mask="url(#path-2-inside-1_755_740)"/>
</svg>
