<svg width="20" height="21" viewBox="0 0 20 21" fill="none" xmlns="http://www.w3.org/2000/svg">
<path d="M13.4758 8.88335H6.52575C5.54242 8.88335 5.20075 8.22502 5.77575 7.42502L9.25075 2.55835C9.65908 1.97502 10.3424 1.97502 10.7508 2.55835L14.2257 7.42502C14.8007 8.22502 14.4591 8.88335 13.4758 8.88335Z" fill="#292D32"/>
<path d="M14.659 15.5H5.34231C4.02564 15.5 3.57564 14.625 4.35064 13.5584L7.67564 8.88336H12.3256L15.6506 13.5584C16.4256 14.625 15.9756 15.5 14.659 15.5Z" fill="#292D32"/>
<path d="M10.625 15.5V18.8333C10.625 19.175 10.3417 19.4583 10 19.4583C9.65833 19.4583 9.375 19.175 9.375 18.8333V15.5H10.625Z" fill="#292D32"/>
</svg>
