<svg width="24" height="24" viewBox="0 0 24 24" fill="none" xmlns="http://www.w3.org/2000/svg">
<path d="M12.0004 14.3999C11.1671 14.3999 10.4587 14.1082 9.87539 13.5249C9.29206 12.9416 9.00039 12.2332 9.00039 11.3999V5.3999C9.00039 4.56657 9.29206 3.85824 9.87539 3.2749C10.4587 2.69157 11.1671 2.3999 12.0004 2.3999C12.8337 2.3999 13.5421 2.69157 14.1254 3.2749C14.7087 3.85824 15.0004 4.56657 15.0004 5.3999V11.3999C15.0004 12.2332 14.7087 12.9416 14.1254 13.5249C13.5421 14.1082 12.8337 14.3999 12.0004 14.3999ZM11.1004 20.3999V17.9249C9.45372 17.7066 8.09206 16.9812 7.01539 15.7487C5.93872 14.5162 5.40039 13.0666 5.40039 11.3999H7.20039C7.20039 12.7279 7.66897 13.8599 8.60614 14.7959C9.54314 15.7319 10.6765 16.1999 12.0061 16.1999C13.3356 16.1999 14.4671 15.7319 15.4004 14.7959C16.3337 13.8599 16.8004 12.7279 16.8004 11.3999H18.6004C18.6004 13.0666 18.0621 14.5162 16.9854 15.7487C15.9087 16.9812 14.5471 17.7066 12.9004 17.9249V20.3999H11.1004Z" fill="#F9AD19"/>
</svg>
