<svg width="28" height="25" viewBox="0 0 28 25" fill="none" xmlns="http://www.w3.org/2000/svg">
<path fill-rule="evenodd" clip-rule="evenodd" d="M27.9453 9.99673L26.5891 1.68631C26.4113 0.596309 25.3529 -0.147422 24.2241 0.0243393L1.75008 3.44402C0.621277 3.61578 -0.148935 4.63775 0.0289421 5.72775L1.40801 14.1785L4.47001 13.696L4.38137 13.1528L6.35128 10.539C6.7579 9.99949 7.35236 9.66997 7.98495 9.57372C8.61754 9.47746 9.28814 9.61449 9.84688 10.0071L13.1498 12.3282L16.2547 11.8389L16.2349 11.825L16.8887 10.9575C17.7019 9.87841 19.2668 9.6403 20.3843 10.4256L21.2707 11.0485L27.9453 9.99673ZM24.0074 5.1119C23.8295 4.0219 22.7712 3.27817 21.6424 3.44993C20.5136 3.62169 19.7434 4.64366 19.9212 5.73366C20.0991 6.82366 21.1575 7.56739 22.2863 7.39563C23.4151 7.22387 24.1853 6.2019 24.0074 5.1119Z" fill="#4DD566"/>
<path d="M2.78119 3.3623C1.63846 3.3623 0.712891 4.25605 0.712891 5.3595L0.712891 21.337C0.712891 22.4405 1.63846 23.3342 2.78119 23.3342L25.5325 23.3342C26.6753 23.3342 27.6008 22.4405 27.6008 21.337L27.6008 5.3595C27.6008 4.25605 26.6753 3.3623 25.5325 3.3623L2.78119 3.3623ZM22.4301 6.35809C23.5728 6.35809 16.9301 7.25184 16.9301 8.35529C16.9301 9.45873 23.5728 10.3525 22.4301 10.3525C21.2873 10.3525 26.6151 9.45873 26.6151 8.35529C26.6151 7.25184 21.2873 6.35809 22.4301 6.35809ZM7.95195 10.3544C8.59235 10.3544 9.23268 10.5906 9.72132 11.0624L13.0944 14.3196L14.1569 15.3455L15.3526 16.5001C15.789 16.9215 16.4937 16.9176 16.9301 16.4962C17.3675 16.0748 17.3675 15.3895 16.9301 14.9671L15.7384 13.8183L16.5241 13.0596C17.5014 12.1159 19.0856 12.1159 20.0628 13.0596L24.4984 17.3427L24.4984 20.3384L3.81534 20.3384L3.81534 13.3483L6.18258 11.0624C6.67122 10.5906 7.31155 10.3544 7.95195 10.3544Z" fill="white"/>
<path d="M2.78119 4.98804C1.63846 4.98804 0.712891 5.88178 0.712891 6.98523L0.712891 22.9628C0.712891 24.0662 1.63846 24.96 2.78119 24.96L25.5325 24.96C26.6753 24.96 27.6008 24.0662 27.6008 22.9628L27.6008 6.98523C27.6008 5.88178 26.6753 4.98804 25.5325 4.98804L2.78119 4.98804ZM22.4301 7.98382C23.5728 7.98382 24.4984 8.87757 24.4984 9.98102C24.4984 11.0845 23.5728 11.9782 22.4301 11.9782C21.2873 11.9782 20.3618 11.0845 20.3618 9.98102C20.3618 8.87757 21.2873 7.98382 22.4301 7.98382ZM7.95195 11.9802C8.59235 11.9802 9.23268 12.2163 9.72132 12.6882L13.0944 15.9453L14.1569 16.9712L15.3526 18.1258C15.789 18.5472 16.4937 18.5433 16.9301 18.1219C17.3675 17.7005 17.3675 17.0152 16.9301 16.5928L15.7384 15.444L16.5241 14.6853C17.5014 13.7417 19.0856 13.7417 20.0628 14.6853L24.4984 18.9684L24.4984 21.9642L3.81534 21.9642L3.81534 14.974L6.18258 12.6882C6.67122 12.2163 7.31155 11.9802 7.95195 11.9802Z" fill="#4DD566"/>
</svg>
