<svg width="24" height="24" viewBox="0 0 24 24" fill="none" xmlns="http://www.w3.org/2000/svg">
<path d="M12.0004 21.5999C10.6837 21.5999 9.44206 21.3499 8.27539 20.8499C7.10872 20.3499 6.08789 19.6624 5.21289 18.7874C4.33789 17.9124 3.65039 16.8916 3.15039 15.7249C2.65039 14.5582 2.40039 13.3166 2.40039 11.9999C2.40039 10.6666 2.65039 9.42074 3.15039 8.2624C3.65039 7.10407 4.33789 6.0874 5.21289 5.2124C6.08789 4.3374 7.10872 3.6499 8.27539 3.1499C9.44206 2.6499 10.6837 2.3999 12.0004 2.3999C13.3337 2.3999 14.5796 2.6499 15.7379 3.1499C16.8962 3.6499 17.9129 4.3374 18.7879 5.2124C19.6629 6.0874 20.3504 7.10407 20.8504 8.2624C21.3504 9.42074 21.6004 10.6666 21.6004 11.9999C21.6004 13.3166 21.3504 14.5582 20.8504 15.7249C20.3504 16.8916 19.6629 17.9124 18.7879 18.7874C17.9129 19.6624 16.8962 20.3499 15.7379 20.8499C14.5796 21.3499 13.3337 21.5999 12.0004 21.5999ZM12.0004 19.7999C12.9171 19.7999 13.7837 19.6499 14.6004 19.3499C15.4171 19.0499 16.1587 18.6332 16.8254 18.0999L5.90039 7.1749C5.36706 7.84157 4.95039 8.58324 4.65039 9.3999C4.35039 10.2166 4.20039 11.0832 4.20039 11.9999C4.20039 14.1666 4.95872 16.0082 6.47539 17.5249C7.99206 19.0416 9.83372 19.7999 12.0004 19.7999ZM18.1004 16.8249C18.6337 16.1582 19.0504 15.4166 19.3504 14.5999C19.6504 13.7832 19.8004 12.9166 19.8004 11.9999C19.8004 9.83324 19.0421 7.99157 17.5254 6.4749C16.0087 4.95824 14.1671 4.1999 12.0004 4.1999C11.0837 4.1999 10.2171 4.3499 9.40039 4.6499C8.58372 4.9499 7.84206 5.36657 7.17539 5.8999L18.1004 16.8249Z" fill="#CE0000"/>
</svg>
