<svg width="30" height="24" viewBox="0 0 30 24" fill="none" xmlns="http://www.w3.org/2000/svg">
<path d="M29.5611 17.1055L25.328 12.8772C24.7655 12.3147 24.0014 12.0006 23.2045 12.0006H19.4871C18.6573 12.0006 17.987 12.6709 17.987 13.5007V17.2133C17.987 18.0103 18.3011 18.7697 18.8636 19.3322L23.0967 23.5605C23.6826 24.1465 24.6343 24.1465 25.2202 23.5605L29.5564 19.2244C30.1471 18.6384 30.1471 17.6915 29.5611 17.1055ZM20.9919 16.1211C20.3684 16.1211 19.8668 15.6195 19.8668 14.996C19.8668 14.3726 20.3684 13.871 20.9919 13.871C21.6153 13.871 22.1169 14.3726 22.1169 14.996C22.1169 15.6148 21.6153 16.1211 20.9919 16.1211ZM10.5006 11.9959C13.8149 11.9959 16.501 9.30983 16.501 5.9956C16.501 2.68607 13.8149 0 10.5006 0C7.18636 0 4.50026 2.68607 4.50026 6.00029C4.50026 9.30983 7.18636 11.9959 10.5006 11.9959ZM16.4916 17.2087V13.7819C15.9197 13.6132 15.3243 13.4913 14.7009 13.4913H13.918C12.8773 13.9694 11.7194 14.2413 10.5006 14.2413C9.28179 14.2413 8.1286 13.9694 7.08323 13.4913H6.30037C2.82204 13.496 0 16.318 0 19.7963V21.7464C0 22.9886 1.00787 23.9965 2.25013 23.9965H18.7511C19.4777 23.9965 20.1152 23.6449 20.5278 23.1105L17.8089 20.3916C16.9604 19.5431 16.4916 18.4134 16.4916 17.2087Z" fill="#1A74E4"/>
</svg>
