<svg width="24" height="18" viewBox="0 0 24 18" fill="none" xmlns="http://www.w3.org/2000/svg">
<path d="M8.4 10.8C9.72548 10.8 10.8 9.99411 10.8 9C10.8 8.00589 9.72548 7.2 8.4 7.2C7.07452 7.2 6 8.00589 6 9C6 9.99411 7.07452 10.8 8.4 10.8Z" fill="#F91C3D"/>
<path fill-rule="evenodd" clip-rule="evenodd" d="M14.25 2.48787e-08H3C2.20435 2.48787e-08 1.44129 0.379285 0.87868 1.05442C0.316071 1.72955 0 2.64522 0 3.6V14.4C0 15.3548 0.316071 16.2705 0.87868 16.9456C1.44129 17.6207 2.20435 18 3 18H14.25C14.9776 18.0001 15.6805 17.6829 16.2277 17.1073C16.4526 16.8708 16.6449 16.5973 16.8 16.2971V1.7029C16.6449 1.40268 16.4526 1.12918 16.2277 0.89267C15.6805 0.317147 14.9776 -0.000102576 14.25 2.48787e-08ZM13.2 9C13.2 10.1046 10.6723 12 8.4 12C6.12774 12 3.6 10.1046 3.6 9C3.6 7.89543 6.12774 6 8.4 6C10.6723 6 13.2 7.89543 13.2 9Z" fill="#F91C3D"/>
<path d="M18 2.71487V15.285L21.891 17.3592C22.1193 17.4809 22.3693 17.5323 22.6183 17.5086C22.8673 17.485 23.1074 17.3871 23.3169 17.2239C23.5264 17.0606 23.6986 16.8372 23.8179 16.5738C23.9372 16.3105 23.9998 16.0155 24 15.7158V2.2842C23.9999 1.98422 23.9373 1.68903 23.8179 1.42546C23.6986 1.16189 23.5262 0.938302 23.3165 0.775013C23.1068 0.611723 22.8664 0.513913 22.6172 0.490474C22.368 0.467034 22.1178 0.518709 21.8895 0.6408L18 2.71487Z" fill="#F91C3D"/>
</svg>
