<svg width="20" height="20" viewBox="0 0 20 20" fill="none" xmlns="http://www.w3.org/2000/svg">
<path fill-rule="evenodd" clip-rule="evenodd" d="M7.49935 0.833374H12.4993C13.4198 0.833374 14.166 1.57957 14.166 2.50004V3.33337H16.666C17.5865 3.33337 18.3327 4.07957 18.3327 5.00004V6.66671C18.3327 7.58718 17.5865 8.33337 16.666 8.33337H16.5992L15.8327 17.5C15.8327 18.4205 15.0865 19.1667 14.166 19.1667H5.83268C4.91221 19.1667 4.16602 18.4205 4.16889 17.5692L3.39924 8.33337H3.33268C2.41221 8.33337 1.66602 7.58718 1.66602 6.66671V5.00004C1.66602 4.07957 2.41221 3.33337 3.33268 3.33337H5.83268V2.50004C5.83268 1.57957 6.57887 0.833374 7.49935 0.833374ZM3.33268 5.00004H5.83268H14.166H16.666V6.66671H3.33268V5.00004ZM5.07142 8.33337H14.927L14.1689 17.4308L14.166 17.5H5.83268L5.07142 8.33337ZM12.4993 2.50004V3.33337H7.49935V2.50004H12.4993Z" fill="#FF3D3D"/>
</svg>
