<svg width="20" height="20" viewBox="0 0 20 20" fill="none" xmlns="http://www.w3.org/2000/svg">
<path fill-rule="evenodd" clip-rule="evenodd" d="M13.6971 1.66663C14.2428 1.66663 14.7658 1.88448 15.1478 2.26948L17.7319 4.85356C18.1166 5.23829 18.3327 5.7601 18.3327 6.30419C18.3327 6.84829 18.1166 7.37009 17.7319 7.75482L8.29727 17.1864C7.7152 17.8579 6.8901 18.2704 5.94485 18.3352H1.66602V17.5019L1.66872 13.9894C1.73971 13.1107 2.14824 12.2936 2.77143 11.7445L12.2455 2.27048C12.6297 1.88398 13.1521 1.66663 13.6971 1.66663ZM5.886 16.6706C6.33119 16.6391 6.74559 16.4319 7.07834 16.0513L13.3799 9.74972L10.2513 6.62095L3.91277 12.958C3.57514 13.2566 3.36627 13.6743 3.33268 14.0565V16.6691L5.886 16.6706ZM11.4299 5.44258L14.5584 8.57121L16.5533 6.57631C16.6255 6.50414 16.6661 6.40626 16.6661 6.30419C16.6661 6.20213 16.6255 6.10424 16.5533 6.03207L13.967 3.44567C13.8956 3.37375 13.7985 3.33329 13.6971 3.33329C13.5958 3.33329 13.4987 3.37375 13.4273 3.44567L11.4299 5.44258Z" fill="#2360FF"/>
</svg>
