<svg width="48" height="40" viewBox="0 0 48 40" fill="none" xmlns="http://www.w3.org/2000/svg">
<path d="M25.0547 0C25.3112 0.114289 25.4471 0.138181 25.7342 0.16731C25.4777 0.0530373 25.3418 0.0291287 25.0547 0Z" fill="#090909"/>
<path d="M24.7185 0.290328C22.5794 1.11431 24.1049 4.22638 26.2422 3.37623C28.2995 2.55776 26.8201 -0.519673 24.7185 0.290328Z" fill="#090909"/>
<path d="M27.7812 2.16667L29.4857 8.33335C31.6231 8.02593 33.6497 7.11544 35.7921 6.83334C35.6933 4.70906 34.6979 2.58124 34.2581 0.5C32.1497 0.8033 29.7755 1.43122 27.7812 2.16667Z" fill="#090909"/>
<path d="M18.9192 1.08817C14.7859 2.01434 14.5303 8.22337 18.9192 8.94563C19.5158 9.0438 20.2044 9.0448 20.7941 8.9118C25.8478 7.77143 23.9235 -0.0333134 18.9192 1.08817Z" fill="#090909"/>
<path d="M10.2266 4.33325C9.33857 5.75152 8.46249 7.19534 7.66992 8.66659C9.06586 9.56709 10.6749 10.6723 12.2719 11.1666C13.206 9.78309 14.2491 8.22529 14.8286 6.66659C13.252 6.00244 11.8782 4.8082 10.2266 4.33325Z" fill="#090909"/>
<path d="M15.5662 5.4445C15.5579 5.45385 15.5479 5.63034 15.623 5.55602C15.6313 5.54677 15.6413 5.37013 15.5662 5.4445Z" fill="#090909"/>
<path d="M37.504 5.6114C35.7706 6.11917 36.5768 8.76671 38.3426 8.22381C40.0624 7.69446 39.2 5.11514 37.504 5.6114Z" fill="#090909"/>
<path d="M26.5884 6.33325C25.7175 6.98982 24.8226 7.64267 23.8613 8.16659C24.2295 8.92659 24.9522 10.4639 25.7874 10.8046C26.4436 11.0721 28.5213 9.68826 28.4923 8.98442C28.4565 8.09359 27.2498 6.85979 26.5884 6.33325Z" fill="#090909"/>
<path d="M35.8494 6.61101C35.8411 6.62036 35.8311 6.79684 35.9062 6.72254C35.9145 6.7133 35.9245 6.53661 35.8494 6.61101Z" fill="#090909"/>
<path d="M36.3047 6.66675V7.16675C36.4215 6.90782 36.4215 6.92568 36.3047 6.66675Z" fill="#090909"/>
<path d="M37.668 8.33325C37.8803 8.44786 37.9313 8.45852 38.1776 8.50056C37.9652 8.38599 37.9143 8.37528 37.668 8.33325Z" fill="#090909"/>
<path d="M38.2941 8.88864C38.2182 8.96219 38.397 8.95293 38.4054 8.94384C38.4814 8.8703 38.3026 8.87955 38.2941 8.88864Z" fill="#090909"/>
<path d="M20.2258 9.05539C20.1498 9.12877 20.3287 9.11984 20.3371 9.11059C20.413 9.03704 20.2342 9.0463 20.2258 9.05539Z" fill="#090909"/>
<path d="M38.1789 9C37.9318 10.0217 37.4886 11.0007 37.1562 12C38.1789 12.3252 39.1794 12.7578 40.2243 13C40.6896 12.0272 41.0219 11.0012 41.4174 10C40.3504 9.66033 39.2902 9.16283 38.1789 9Z" fill="#090909"/>
<path d="M31.1359 9.55539C31.06 9.62893 31.2388 9.61968 31.2472 9.61059C31.3232 9.53704 31.1444 9.5463 31.1359 9.55539Z" fill="#090909"/>
<path d="M31.3624 9.58815C27.2308 9.95548 27.9194 16.1248 32.0442 15.6357C35.9661 15.1707 35.2673 9.24098 31.3624 9.58815Z" fill="#090909"/>
<path d="M31.9875 9.55539C31.9116 9.62893 32.0904 9.61968 32.0988 9.61059C32.1747 9.53704 31.9959 9.5463 31.9875 9.55539Z" fill="#090909"/>
<path d="M17.7266 13C18.4765 13.9088 19.5623 14.7975 20.6241 15.3333C21.2923 14.3786 22.2382 13.5903 22.6695 12.5C22.0286 12.0276 20.9514 10.7313 20.1196 10.7241C19.2827 10.7168 18.2635 12.4506 17.7266 13Z" fill="#090909"/>
<path d="M45.168 12.3333C45.3803 12.4479 45.4313 12.4586 45.6776 12.5006C45.4652 12.386 45.4143 12.3752 45.168 12.3333Z" fill="#090909"/>
<path d="M45.6791 12.4356C42.877 12.5736 43.0457 16.7785 45.8495 16.6425C48.5749 16.5103 48.4539 12.2991 45.6791 12.4356Z" fill="#090909"/>
<path d="M15.1699 13C15.4726 13.1303 15.6897 13.1526 16.0248 13.1673C15.7222 13.037 15.505 13.0147 15.1699 13Z" fill="#090909"/>
<path d="M40.1691 13.0554C40.0932 13.1288 40.272 13.1198 40.2804 13.1106C40.3564 13.037 40.1776 13.0463 40.1691 13.0554Z" fill="#090909"/>
<path d="M14.8305 13.2903C12.6778 14.1197 14.0959 17.541 16.3611 16.6845C18.6911 15.8022 17.1179 12.409 14.8305 13.2903Z" fill="#090909"/>
<path d="M12.6139 18.1668L12.7844 13.5001C11.6935 13.5001 10.6282 13.3596 9.54592 13.3359C9.17435 13.3278 8.62041 13.2584 8.30883 13.5048C7.83432 13.8803 8.03306 14.8136 7.99675 15.3334C7.95158 15.9774 7.54968 17.1454 8.01669 17.7098C8.31787 18.0738 8.95448 17.9936 9.37548 18.0006C10.4595 18.0188 11.5248 18.1668 12.6139 18.1668Z" fill="#090909"/>
<path d="M25.0547 13.6667C25.3112 13.781 25.4471 13.8049 25.7342 13.8341C25.4777 13.7198 25.3418 13.6959 25.0547 13.6667Z" fill="#090909"/>
<path d="M35.6224 13.6667C35.0872 15.2771 34.3168 16.8536 33.918 18.5001C35.0463 18.9259 36.1849 19.3348 37.3269 19.7239C37.7325 19.8621 38.3512 20.2098 38.7756 19.9781C39.1915 19.7506 39.3398 19.0711 39.4847 18.6668C39.8852 17.5503 40.2994 16.4374 40.7358 15.3334C39.0143 14.8741 37.3814 13.9627 35.6224 13.6667Z" fill="#090909"/>
<path d="M24.7144 13.9422C21.8867 14.8091 23.4037 19.0519 26.2484 18.1092C28.8835 17.2359 27.45 13.1036 24.7144 13.9422Z" fill="#090909"/>
<path d="M43.4629 14.1667V14.8334C43.5827 14.5401 43.5827 14.4601 43.4629 14.1667Z" fill="#090909"/>
<path d="M47.8945 14.1667V15.0001C48.0346 14.6617 48.0346 14.5051 47.8945 14.1667Z" fill="#090909"/>
<path d="M17.6111 14.9445C17.6028 14.9539 17.5928 15.1302 17.6679 15.056C17.6762 15.0468 17.6862 14.8701 17.6111 14.9445Z" fill="#090909"/>
<path d="M23.0078 15.6665V16.4998C23.1478 16.1615 23.1478 16.0048 23.0078 15.6665Z" fill="#090909"/>
<path d="M27.6133 15.6665V16.4998C27.7533 16.1615 27.7533 16.0048 27.6133 15.6665Z" fill="#090909"/>
<path d="M31.1914 15.6665C31.4479 15.7808 31.5838 15.8047 31.8709 15.8338C31.6144 15.7195 31.4768 15.6956 31.1914 15.6665Z" fill="#090909"/>
<path d="M45.5078 16.6667C45.7201 16.7814 45.7711 16.7921 46.0174 16.8341C45.8051 16.7195 45.7541 16.7087 45.5078 16.6667Z" fill="#090909"/>
<path d="M15.1699 16.8335C15.4726 16.9638 15.6897 16.9861 16.0248 17.0008C15.7222 16.8705 15.505 16.8482 15.1699 16.8335Z" fill="#090909"/>
<path d="M43.4633 16.8335C42.7031 17.8563 41.8645 18.9755 41.418 20.1668C42.5259 20.7675 43.586 21.715 44.8269 22.0002C45.3621 20.8955 46.1717 19.9437 46.7018 18.8335C45.6484 18.139 44.5729 17.4378 43.4633 16.8335Z" fill="#090909"/>
<path d="M20.1134 17.1667C19.0823 17.9441 18.0136 18.7136 16.875 19.3334C17.1017 20.2779 17.7562 21.0596 18.3374 21.8326C18.5419 22.1043 18.7704 22.5038 19.1215 22.6116C19.4232 22.7038 19.6942 22.5358 19.943 22.3918C20.5447 22.0431 22.2423 21.2419 22.3105 20.4846C22.3463 20.0714 21.9781 19.6546 21.7617 19.3334C21.2571 18.5854 20.7509 17.8117 20.1134 17.1667Z" fill="#090909"/>
<path d="M3.75036 17.4109C2.94893 17.5509 2.15534 17.8321 1.54191 18.3691C-1.46967 21.0054 0.888936 26.1796 4.94347 25.5618C5.61604 25.4593 6.25827 25.2536 6.81767 24.8668C10.2954 22.4628 8.06107 16.6576 3.75036 17.4109Z" fill="#090909"/>
<path d="M25.6808 18.2221C25.6049 18.2955 25.7837 18.2864 25.7922 18.2773C25.8681 18.2038 25.6893 18.213 25.6808 18.2221Z" fill="#090909"/>
<path d="M28.1776 18.9445C28.1692 18.9537 28.1592 19.1304 28.2343 19.056C28.2426 19.0468 28.2526 18.8701 28.1776 18.9445Z" fill="#090909"/>
<path d="M22.5565 19.1113C22.5481 19.1206 22.5381 19.297 22.6132 19.2227C22.6215 19.2135 22.6315 19.0368 22.5565 19.1113Z" fill="#090909"/>
<path d="M27.9525 19.1667C25.6924 24.4836 25.1743 30.0199 27.3031 35.5001C27.8554 36.9198 28.5406 39.2718 29.9979 40.0001C28.89 35.3194 27.2418 30.4761 30.4683 26.1668C31.0785 25.3509 31.7637 24.6091 32.5545 23.9591C33.4562 23.2186 34.3851 22.4939 35.4521 22.0001C34.7277 21.7486 33.7647 22.1434 33.0659 22.4108C31.9256 22.8468 30.7598 23.4393 29.8274 24.2169C29.0383 24.8744 28.4144 25.7008 27.6117 26.3334C27.5503 24.9448 27.3049 23.5634 27.4906 22.1668C27.6117 21.2539 28.2184 20.0461 27.9525 19.1667Z" fill="#090909"/>
<path d="M22.6683 19.3333C23.2495 21.3578 23.1763 23.2669 23.0092 25.3333C20.2037 23.5239 16.9653 22.8333 13.6348 22.8333C15.3358 23.7388 17.1476 24.2048 18.7481 25.3593C19.4742 25.8836 20.1423 26.4801 20.7133 27.1666C23.8291 30.9134 22.2951 35.3121 21.3048 39.4999C22.0019 39.2836 23.3842 39.2543 23.887 38.7333C24.187 38.4226 24.2483 37.8974 24.3506 37.4999C24.6063 36.5059 24.8159 35.5053 25.0205 34.4999C25.767 30.8208 25.4909 27.2913 24.5654 23.6666C24.2057 22.2624 23.7183 20.3914 22.6683 19.3333Z" fill="#090909"/>
<path d="M29.1485 20.4314C27.3622 20.892 28.1139 23.7929 29.9939 23.2239C31.7801 22.684 30.9347 19.9704 29.1485 20.4314Z" fill="#090909"/>
<path d="M22.8963 20.6113C22.888 20.6206 22.878 20.797 22.953 20.7227C22.9614 20.7135 22.9714 20.5368 22.8963 20.6113Z" fill="#090909"/>
<path d="M8.52344 20.8333V22.1666C8.71913 21.7049 8.71913 21.2949 8.52344 20.8333Z" fill="#090909"/>
<path d="M0 21V22C0.160431 21.6192 0.160431 21.3808 0 21Z" fill="#090909"/>
<path d="M38.3503 21.0781C34.7881 21.7294 34.0926 26.6685 37.4981 28.1056C38.2055 28.4043 39.1327 28.408 39.8843 28.2786C44.5375 27.4791 42.995 20.2286 38.3503 21.0781Z" fill="#090909"/>
<path d="M23.0078 21.3333V21.9999C23.1288 21.7066 23.1288 21.6266 23.0078 21.3333Z" fill="#090909"/>
<path d="M27.9531 21.6667V22.1667C28.0699 21.9077 28.0699 21.9257 27.9531 21.6667Z" fill="#090909"/>
<path d="M31.0779 21.778C31.0696 21.7874 31.0596 21.9637 31.1347 21.8895C31.143 21.8802 31.153 21.7036 31.0779 21.778Z" fill="#090909"/>
<path d="M27.4979 21.9445C27.4895 21.9539 27.4795 22.1302 27.5546 22.056C27.5629 22.0468 27.5729 21.8701 27.4979 21.9445Z" fill="#090909"/>
<path d="M23.0078 22V24.1667C23.276 23.5348 23.276 22.6318 23.0078 22Z" fill="#090909"/>
<path d="M27.498 22.2779C27.4895 22.2872 27.4793 22.4629 27.5557 22.3889C27.5642 22.3797 27.5744 22.2037 27.498 22.2779Z" fill="#090909"/>
<path d="M13.2969 22.6667C13.5092 22.7814 13.5602 22.7921 13.8065 22.8341C13.5941 22.7195 13.5432 22.7087 13.2969 22.6667Z" fill="#090909"/>
<path d="M13.8047 22.6667C14.0612 22.781 14.1971 22.8049 14.4842 22.8341C14.2277 22.7198 14.0901 22.6959 13.8047 22.6667Z" fill="#090909"/>
<path d="M14.4883 22.6667C14.7006 22.7814 14.7516 22.7921 14.9979 22.8341C14.7856 22.7195 14.7346 22.7087 14.4883 22.6667Z" fill="#090909"/>
<path d="M9.88672 24.3335C10.3469 25.1406 10.8923 25.901 11.4207 26.6668C12.2781 26.2686 13.0246 25.6876 13.8069 25.1668C13.5666 24.556 12.8729 23.0806 12.0872 23.0511C11.3645 23.024 10.427 23.928 9.88672 24.3335Z" fill="#090909"/>
<path d="M15.6242 22.8889C15.5483 22.9623 15.7271 22.9532 15.7355 22.9441C15.8114 22.8705 15.6326 22.8798 15.6242 22.8889Z" fill="#090909"/>
<path d="M15.966 22.8889C15.8901 22.9623 16.0689 22.9532 16.0773 22.9441C16.1532 22.8705 15.9744 22.8798 15.966 22.8889Z" fill="#090909"/>
<path d="M16.3058 22.8889C16.2299 22.9623 16.4087 22.9532 16.4172 22.9441C16.4931 22.8705 16.3143 22.8798 16.3058 22.8889Z" fill="#090909"/>
<path d="M17.1594 23.0554C17.0834 23.1289 17.2622 23.1197 17.2707 23.1106C17.3466 23.037 17.1678 23.0463 17.1594 23.0554Z" fill="#090909"/>
<path d="M29.3164 23.3333C29.5287 23.4479 29.5797 23.4586 29.826 23.5006C29.6137 23.386 29.5627 23.3752 29.3164 23.3333Z" fill="#090909"/>
<path d="M23.0078 24.1667V24.6667C23.1246 24.4077 23.1246 24.4257 23.0078 24.1667Z" fill="#090909"/>
<path d="M35.1678 24.278C35.1594 24.2872 35.1495 24.4639 35.2245 24.3895C35.2329 24.3802 35.2429 24.2036 35.1678 24.278Z" fill="#090909"/>
<path d="M35.1678 24.6113C35.1594 24.6205 35.1495 24.7972 35.2245 24.7227C35.2329 24.7135 35.2429 24.5368 35.1678 24.6113Z" fill="#090909"/>
<path d="M42.7812 24.5V25C42.898 24.741 42.898 24.759 42.7812 24.5Z" fill="#090909"/>
<path d="M27.4414 24.6667V25.1667C27.5582 24.9077 27.5582 24.9257 27.4414 24.6667Z" fill="#090909"/>
<path d="M35.1133 24.8333V25.3333C35.2301 25.0743 35.2301 25.0923 35.1133 24.8333Z" fill="#090909"/>
<path d="M3.86216 25.5554C3.78709 25.6289 3.96524 25.6197 3.97452 25.6106C4.04959 25.537 3.87144 25.5463 3.86216 25.5554Z" fill="#090909"/>
<path d="M4.8856 25.5554C4.81053 25.6289 4.98868 25.6197 4.99795 25.6106C5.07302 25.537 4.89488 25.5463 4.8856 25.5554Z" fill="#090909"/>
<path d="M25.9647 25.6113C25.9563 25.6205 25.9463 25.7972 26.0214 25.7227C26.0297 25.7135 26.0397 25.5368 25.9647 25.6113Z" fill="#090909"/>
<path d="M27.7258 26.2221C27.6498 26.2955 27.8287 26.2864 27.8371 26.2773C27.913 26.2038 27.7342 26.213 27.7258 26.2221Z" fill="#090909"/>
<path d="M9.31756 26.5554C9.24164 26.6289 9.42047 26.6197 9.4289 26.6106C9.50482 26.537 9.32599 26.5463 9.31756 26.5554Z" fill="#090909"/>
<path d="M9.54492 26.5C9.75726 26.6146 9.80822 26.6253 10.0545 26.6673C9.84219 26.5527 9.79123 26.542 9.54492 26.5Z" fill="#090909"/>
<path d="M10.1711 26.5554C10.0952 26.6289 10.274 26.6197 10.2824 26.6106C10.3583 26.537 10.1795 26.5463 10.1711 26.5554Z" fill="#090909"/>
<path d="M8.86165 26.7597C6.80592 27.287 6.08681 29.8832 7.29407 31.4928C8.06823 32.525 9.49229 32.893 10.7365 32.5737C12.9915 31.995 13.5915 29.0997 12.0643 27.518C11.27 26.6965 9.95931 26.4778 8.86165 26.7597Z" fill="#090909"/>
<path d="M25.2266 26.6667V27.1667C25.3433 26.9077 25.3433 26.9257 25.2266 26.6667Z" fill="#090909"/>
<path d="M25.7363 26.8333V27.6666C25.8763 27.3283 25.8763 27.1716 25.7363 26.8333Z" fill="#090909"/>
<path d="M33.7473 26.8333L30.168 28.6666C30.6827 29.8753 31.3048 31.0734 32.0429 32.1666C33.2854 31.8168 34.5075 31.1356 35.6222 30.4999C35.266 29.2883 34.5706 27.8053 33.7473 26.8333Z" fill="#090909"/>
<path d="M25.283 27.2778C25.2747 27.2872 25.2647 27.4635 25.3398 27.3892C25.3481 27.38 25.3581 27.2033 25.283 27.2778Z" fill="#090909"/>
<path d="M25.7363 27.6667V28.5001C25.8763 28.1617 25.8763 28.0051 25.7363 27.6667Z" fill="#090909"/>
<path d="M25.3965 27.8333V28.3333C25.5133 28.0743 25.5133 28.0923 25.3965 27.8333Z" fill="#090909"/>
<path d="M14.659 28.1667C14.1477 29.6436 13.3585 31.1189 13.125 32.6668C14.6437 33.0106 16.0822 33.6789 17.5566 34.1668C18.2179 32.7166 18.7582 31.1763 19.261 29.6668C17.6997 29.2502 16.239 28.5239 14.659 28.1667Z" fill="#090909"/>
<path d="M25.3965 28.3335V28.8335C25.5133 28.5745 25.5133 28.5925 25.3965 28.3335Z" fill="#090909"/>
<path d="M38.464 28.3886C38.3881 28.462 38.5669 28.4531 38.5754 28.4438C38.6513 28.3703 38.4725 28.3796 38.464 28.3886Z" fill="#090909"/>
<path d="M38.6914 28.3335C38.9037 28.4481 38.9547 28.4588 39.201 28.5008C38.9887 28.3862 38.9377 28.3755 38.6914 28.3335Z" fill="#090909"/>
<path d="M39.2031 28.3335C39.4155 28.4481 39.4664 28.4588 39.7127 28.5008C39.5004 28.3862 39.4494 28.3755 39.2031 28.3335Z" fill="#090909"/>
<path d="M25.7363 28.5V29.3333C25.8763 28.995 25.8763 28.8383 25.7363 28.5Z" fill="#090909"/>
<path d="M25.3965 28.8333V29.4999C25.5163 29.2066 25.5163 29.1266 25.3965 28.8333Z" fill="#090909"/>
<path d="M6.7034 29.1113C6.69422 29.1205 6.68488 29.2972 6.75911 29.2227C6.76828 29.2135 6.77763 29.0368 6.7034 29.1113Z" fill="#090909"/>
<path d="M13.0096 29.6113C13.0012 29.6206 12.9913 29.797 13.0663 29.7227C13.0747 29.7135 13.0847 29.5368 13.0096 29.6113Z" fill="#090909"/>
<path d="M25.9647 30.278C25.9563 30.2872 25.9463 30.4639 26.0214 30.3895C26.0297 30.3802 26.0397 30.2036 25.9647 30.278Z" fill="#090909"/>
<path d="M28.6348 30.3333V30.8333C28.7515 30.5743 28.7515 30.5923 28.6348 30.3333Z" fill="#090909"/>
<path d="M25.9647 30.6113C25.9563 30.6205 25.9463 30.7972 26.0214 30.7227C26.0297 30.7135 26.0397 30.5368 25.9647 30.6113Z" fill="#090909"/>
<path d="M22.3846 30.778C22.3762 30.7874 22.3663 30.9637 22.4413 30.8895C22.4497 30.8802 22.4597 30.7036 22.3846 30.778Z" fill="#090909"/>
<path d="M26.1346 31.1113C26.1262 31.1205 26.1163 31.297 26.1913 31.2227C26.1997 31.2135 26.2097 31.0368 26.1346 31.1113Z" fill="#090909"/>
<path d="M25.3965 31.1667V31.6667C25.5133 31.4077 25.5133 31.4257 25.3965 31.1667Z" fill="#090909"/>
<path d="M22.5 31.3333V31.8333C22.6168 31.5743 22.6168 31.5923 22.5 31.3333Z" fill="#090909"/>
<path d="M28.4648 31.5V33.3333C28.7061 32.765 28.7061 32.0683 28.4648 31.5Z" fill="#090909"/>
<path d="M25.451 31.778C25.4427 31.7872 25.4327 31.9637 25.5077 31.8895C25.5161 31.8802 25.5261 31.7036 25.451 31.778Z" fill="#090909"/>
<path d="M22.5 31.8333V32.6666C22.64 32.3283 22.64 32.1716 22.5 31.8333Z" fill="#090909"/>
<path d="M25.7361 31.8333C25.7361 34.2506 24.8685 36.4681 24.543 38.8333C25.9508 38.8341 27.2939 39.0836 28.6336 39.4999C28.1462 38.1914 27.3928 36.9968 26.9292 35.6666C26.5031 34.4406 26.3565 32.9664 25.7361 31.8333Z" fill="#090909"/>
<path d="M25.451 32.1113C25.4427 32.1205 25.4327 32.297 25.5077 32.2227C25.5161 32.2135 25.5261 32.0368 25.451 32.1113Z" fill="#090909"/>
<path d="M13.0096 32.4445C13.0012 32.4539 12.9913 32.6302 13.0663 32.556C13.0747 32.5468 13.0847 32.3701 13.0096 32.4445Z" fill="#090909"/>
<path d="M25.5664 32.5V33C25.6832 32.7412 25.6832 32.759 25.5664 32.5Z" fill="#090909"/>
<path d="M9.375 32.6667C9.67763 32.7971 9.89478 32.8193 10.2299 32.8341C9.92726 32.7037 9.71012 32.6815 9.375 32.6667Z" fill="#090909"/>
<path d="M22.5 32.6667V33.3334C22.6198 33.0401 22.6198 32.9599 22.5 32.6667Z" fill="#090909"/>
<path d="M25.283 33.1113C25.2747 33.1205 25.2647 33.297 25.3398 33.2227C25.3481 33.2135 25.3581 33.0368 25.283 33.1113Z" fill="#090909"/>
<path d="M25.6229 33.1113C25.6145 33.1205 25.6045 33.2972 25.6796 33.2227C25.6879 33.2135 25.6979 33.0368 25.6229 33.1113Z" fill="#090909"/>
<path d="M25.6229 33.4445C25.6145 33.4537 25.6045 33.6304 25.6796 33.556C25.6879 33.5468 25.6979 33.3701 25.6229 33.4445Z" fill="#090909"/>
<path d="M25.0549 33.8335V34.3335C25.1742 34.0745 25.1742 34.0925 25.0549 33.8335Z" fill="#090909"/>
<path d="M22.3846 34.1113C22.3762 34.1206 22.3663 34.297 22.4413 34.2227C22.4497 34.2135 22.4597 34.0368 22.3846 34.1113Z" fill="#090909"/>
<path d="M28.6348 34.1667V34.6667C28.7515 34.4077 28.7515 34.4257 28.6348 34.1667Z" fill="#090909"/>
<path d="M22.3846 34.4445C22.3762 34.4539 22.3663 34.6302 22.4413 34.556C22.4497 34.5468 22.4597 34.3701 22.3846 34.4445Z" fill="#090909"/>
<path d="M22.3846 34.778C22.3762 34.7874 22.3663 34.9637 22.4413 34.8895C22.4497 34.8803 22.4597 34.7036 22.3846 34.778Z" fill="#090909"/>
<path d="M24.375 38.8335C24.8213 39.0172 25.2573 38.9996 25.7428 39.0008C25.2966 38.8171 24.8606 38.8347 24.375 38.8335Z" fill="#090909"/>
<path d="M25.7363 38.8335C25.9487 38.9481 25.9996 38.9588 26.2459 39.0008C26.0336 38.8862 25.9826 38.8755 25.7363 38.8335Z" fill="#090909"/>
<path d="M22.9523 39.0554C22.8764 39.1288 23.0552 39.1197 23.0637 39.1106C23.1396 39.037 22.9608 39.0463 22.9523 39.0554Z" fill="#090909"/>
<path d="M26.8742 39.0554C26.7983 39.1288 26.9771 39.1197 26.9855 39.1106C27.0614 39.037 26.8826 39.0463 26.8742 39.0554Z" fill="#090909"/>
</svg>
