<svg width="36" height="36" viewBox="0 0 36 36" fill="none" xmlns="http://www.w3.org/2000/svg">
<g filter="url(#filter0_d_714_144867)">
<path d="M18 30C24.6274 30 30 24.6274 30 18C30 11.3726 24.6274 6 18 6C11.3726 6 6 11.3726 6 18C6 24.6274 11.3726 30 18 30Z" fill="url(#paint0_linear_714_144867)"/>
<mask id="mask0_714_144867" style="mask-type:luminance" maskUnits="userSpaceOnUse" x="6" y="6" width="24" height="24">
<path d="M18 30C24.6274 30 30 24.6274 30 18C30 11.3726 24.6274 6 18 6C11.3726 6 6 11.3726 6 18C6 24.6274 11.3726 30 18 30Z" fill="white"/>
</mask>
<g mask="url(#mask0_714_144867)">
<path style="mix-blend-mode:screen" opacity="0.9" d="M8.36503 23.1409C7.1589 20.8232 6.81309 18.1531 7.38891 15.6046C7.96473 13.0561 9.4249 10.7941 11.5103 9.22014C13.5958 7.64617 16.1715 6.86207 18.7802 7.00706C21.3889 7.15204 23.8619 8.21672 25.7601 10.0121C21.8338 10.0366 18.0202 11.3275 14.8863 13.6929C11.7523 16.0582 9.46514 19.3718 8.36503 23.1409Z" fill="url(#paint1_linear_714_144867)"/>
<path style="mix-blend-mode:screen" d="M28.3042 12.9136C26.7464 10.3807 24.2729 8.54499 21.3973 7.78767C18.5217 7.03035 15.4649 7.4096 12.8615 8.84669C10.2582 10.2838 8.30825 12.6683 7.41669 15.5052C6.52512 18.342 6.76039 21.4133 8.0736 24.0812C7.25389 22.7484 6.71311 21.2631 6.48402 19.7152C6.25493 18.1673 6.34227 16.5891 6.74077 15.076C7.13927 13.5628 7.84077 12.1463 8.80256 10.912C9.76434 9.67778 10.9664 8.65151 12.3363 7.89531C13.7062 7.13912 15.2154 6.66871 16.7723 6.51258C18.3292 6.35646 19.9016 6.51787 21.3943 6.98701C22.8871 7.45615 24.2691 8.22328 25.4568 9.24198C26.6445 10.2607 27.6132 11.5097 28.3042 12.9136Z" fill="url(#paint2_linear_714_144867)"/>
</g>
<path d="M13.0227 17.0605C12.2657 17.0836 11.5435 17.3846 10.9943 17.9061C10.445 18.4277 10.1071 19.1331 10.0449 19.888C10.5084 20.1148 11.0193 20.228 11.5352 20.2181C12.0511 20.2082 12.5573 20.0756 13.0118 19.8311C13.0971 19.7756 13.5383 19.5184 13.8238 19.8744C14.4424 20.6473 13.3881 21.0926 12.9374 21.2766C12.6424 21.3998 12.8926 21.569 12.9143 21.5744C13.709 21.5995 14.5004 21.6901 15.2803 21.8451C15.4976 21.9289 15.688 22.0703 15.8311 22.2542C15.9742 22.438 16.0644 22.6573 16.0923 22.8886C16.0712 23.4127 15.8807 23.9159 15.5492 24.3225C15.2178 24.7291 14.7633 25.0172 14.2542 25.1435C13.3688 25.2668 12.467 25.1137 11.6718 24.705C12.4762 25.5707 13.3256 26.3933 14.2164 27.1697C14.9378 27.7883 14.996 27.8383 15.5699 28.2985C16.4608 27.844 17.3767 27.4405 18.3134 27.0898C18.0908 26.8179 17.9486 26.4892 17.903 26.1407C17.8573 25.7923 17.9098 25.438 18.0548 25.1178C18.1243 25.0429 18.2079 24.9825 18.3008 24.94C18.3937 24.8975 18.4941 24.8737 18.5962 24.8701C19.2841 24.8513 19.9609 24.6915 20.5845 24.4005C19.2039 24.5764 18.8358 23.9159 19.1092 23.5884C19.3488 23.2947 20.0363 23.3096 20.3666 23.3597C20.9932 23.4648 21.6342 23.4487 22.2547 23.3122C23.1683 20.3901 20.1378 18.0783 17.2644 19.5076C16.8604 19.8679 16.3532 20.0919 15.8147 20.1479C15.2763 20.2038 14.734 20.0889 14.2645 19.8193C13.795 19.5498 13.4223 19.1393 13.1991 18.6461C12.976 18.1529 12.9137 17.6019 13.0212 17.0714" fill="url(#paint3_linear_714_144867)"/>
<path d="M9.025 18.3752C7.05839 19.9669 9.58127 24.788 13.3399 25.1765C15.6408 25.4147 16.5788 23.2126 15.8412 22.2638C15.7209 22.1064 15.5655 21.9794 15.3873 21.8929C15.2091 21.8064 15.0132 21.7628 14.8151 21.7656C14.1789 21.7615 13.5444 21.6972 12.9202 21.5735C12.8956 21.5673 12.8729 21.5551 12.854 21.5381C12.8351 21.521 12.8207 21.4996 12.812 21.4757C12.8033 21.4518 12.8007 21.4261 12.8043 21.4009C12.8078 21.3757 12.8174 21.3518 12.8323 21.3312C13.1328 21.0226 13.662 21.0957 13.9043 20.6883C13.9775 20.5409 14.0021 20.374 13.9743 20.2118C13.9466 20.0495 13.868 19.9002 13.75 19.7855C13.4617 19.5419 13.015 19.8315 12.9961 19.8437C12.6521 20.0695 12.2599 20.2113 11.8511 20.2576C11.4423 20.3039 11.0283 20.2536 10.6425 20.1106C10.2567 19.9675 9.90999 19.7358 9.6302 19.4341C9.35041 19.1325 9.14543 18.7693 9.03178 18.3738" fill="url(#paint4_linear_714_144867)"/>
<path d="M27.1159 18.1912C26.4392 20.687 23.9041 23.938 20.3702 23.3533C19.8436 23.2667 18.9111 23.3411 19.0357 23.9164C19.1209 24.3075 19.8478 24.5322 20.5977 24.3968C19.9717 24.6915 19.2914 24.8533 18.5998 24.8719C18.465 24.8756 18.3336 24.9151 18.2191 24.9865C18.1047 25.0579 18.0114 25.1585 17.9488 25.278C17.846 25.4837 17.6862 27.1485 19.0221 27.5302C20.8304 28.0445 23.624 26.0995 25.0289 24.5525C27.924 21.3691 27.5639 18.8571 27.3203 18.4064C27.2785 18.3143 27.2063 18.2392 27.1159 18.1938" fill="url(#paint5_linear_714_144867)"/>
<path d="M21.0141 15.3105H15.1602C15.5217 15.7334 15.9705 16.0729 16.4758 16.3057C16.9811 16.5385 17.5307 16.659 18.087 16.659C18.6434 16.659 19.1932 16.5385 19.6984 16.3057C20.2037 16.0729 20.6526 15.7334 21.0141 15.3105Z" fill="url(#paint6_linear_714_144867)"/>
<path d="M14.0238 11.3182C12.6216 11.4061 11.9812 13.5284 12.8447 14.22C13.7083 14.9116 15.1079 13.7003 14.9617 12.3509C14.966 12.0918 14.8713 11.8407 14.697 11.6489C14.5228 11.4571 14.2821 11.3388 14.0238 11.3182Z" fill="#27304E"/>
<path d="M21.7977 11.3181C20.5796 11.3953 20.5417 13.194 21.477 14.0427C21.6313 14.2308 21.8442 14.3616 22.0819 14.4138C22.3195 14.466 22.5678 14.4366 22.7867 14.3304C23.0056 14.2242 23.1825 14.0474 23.2886 13.8285C23.3948 13.6096 23.424 13.3613 23.3718 13.1236C23.3574 12.6872 23.1927 12.2692 22.9057 11.9402C22.6186 11.6112 22.2281 11.3915 21.7977 11.3181Z" fill="#27304E"/>
<path d="M15.5912 9.35155C13.3403 9.41245 12.1627 10.4614 12.5404 10.8187C12.5697 10.8415 12.6038 10.8574 12.6402 10.8651C12.6765 10.8728 12.7141 10.8722 12.7502 10.8634C12.8282 10.8453 12.9012 10.8102 12.964 10.7605C13.3289 10.5173 13.734 10.3404 14.1605 10.2381C14.6723 10.1119 15.2006 10.0663 15.7265 10.1027C15.7805 10.108 15.8351 10.1034 15.8876 10.0892C15.9879 10.0636 16.077 10.0054 16.1408 9.92391C16.2047 9.8424 16.2399 9.74206 16.2408 9.63849C16.2259 9.34479 15.9864 9.3475 15.5912 9.35291" fill="#D97700"/>
<path d="M20.2504 9.35155C19.1378 9.35155 19.7319 9.96873 19.7387 9.9755C19.7959 10.029 19.8651 10.0679 19.9404 10.0892C19.9928 10.1036 20.0474 10.1082 20.1015 10.1027C20.5568 10.0746 21.0139 10.1042 21.4618 10.1907C21.9643 10.2848 22.4428 10.4786 22.8693 10.7605C22.9367 10.814 23.0161 10.8503 23.1007 10.8661C23.1338 10.8748 23.1686 10.8753 23.2019 10.8674C23.2352 10.8595 23.2661 10.8436 23.2917 10.821C23.3174 10.7984 23.3371 10.7698 23.3491 10.7378C23.3611 10.7058 23.3651 10.6713 23.3606 10.6373C23.3322 10.0188 21.7623 9.3705 20.2477 9.35155" fill="#D97700"/>
</g>
<defs>
<filter id="filter0_d_714_144867" x="0" y="0" width="36" height="36" filterUnits="userSpaceOnUse" color-interpolation-filters="sRGB">
<feFlood flood-opacity="0" result="BackgroundImageFix"/>
<feColorMatrix in="SourceAlpha" type="matrix" values="0 0 0 0 0 0 0 0 0 0 0 0 0 0 0 0 0 0 127 0" result="hardAlpha"/>
<feOffset/>
<feGaussianBlur stdDeviation="3"/>
<feComposite in2="hardAlpha" operator="out"/>
<feColorMatrix type="matrix" values="0 0 0 0 0.980392 0 0 0 0 0.741176 0 0 0 0 0.305882 0 0 0 0.5 0"/>
<feBlend mode="normal" in2="BackgroundImageFix" result="effect1_dropShadow_714_144867"/>
<feBlend mode="normal" in="SourceGraphic" in2="effect1_dropShadow_714_144867" result="shape"/>
</filter>
<linearGradient id="paint0_linear_714_144867" x1="11.832" y1="7.056" x2="24.24" y2="29.088" gradientUnits="userSpaceOnUse">
<stop stop-color="#FFFDF1"/>
<stop offset="0.201" stop-color="#FFEB72"/>
<stop offset="0.753" stop-color="#F69B32"/>
<stop offset="1" stop-color="#ED6C12"/>
</linearGradient>
<linearGradient id="paint1_linear_714_144867" x1="11.3864" y1="9.2996" x2="15.3933" y2="16.1497" gradientUnits="userSpaceOnUse">
<stop stop-color="white"/>
<stop offset="1" stop-color="#231F20"/>
</linearGradient>
<linearGradient id="paint2_linear_714_144867" x1="24.3761" y1="7.45957" x2="9.84544" y2="23.5499" gradientUnits="userSpaceOnUse">
<stop stop-color="#231F20"/>
<stop offset="0.536" stop-color="white"/>
<stop offset="1" stop-color="#231F20"/>
</linearGradient>
<linearGradient id="paint3_linear_714_144867" x1="15.552" y1="16.3301" x2="17.0057" y2="28.2344" gradientUnits="userSpaceOnUse">
<stop stop-color="#F15B5A"/>
<stop offset="1" stop-color="#DB2A37"/>
</linearGradient>
<linearGradient id="paint4_linear_714_144867" x1="8.37084" y1="18.749" x2="13.9129" y2="24.681" gradientUnits="userSpaceOnUse">
<stop stop-color="#FFEB72"/>
<stop offset="0.996" stop-color="#F69B32"/>
</linearGradient>
<linearGradient id="paint5_linear_714_144867" x1="17.8828" y1="22.9028" x2="27.4801" y2="22.9028" gradientUnits="userSpaceOnUse">
<stop stop-color="#FFEB72"/>
<stop offset="0.996" stop-color="#F69B32"/>
</linearGradient>
<linearGradient id="paint6_linear_714_144867" x1="18.0871" y1="15.2108" x2="18.0862" y2="16.4905" gradientUnits="userSpaceOnUse">
<stop stop-color="#4B2313"/>
<stop offset="0.382" stop-color="#6B311A"/>
<stop offset="0.771" stop-color="#863E21"/>
<stop offset="1" stop-color="#914324"/>
</linearGradient>
</defs>
</svg>
