<svg width="30" height="28" viewBox="0 0 30 28" fill="none" xmlns="http://www.w3.org/2000/svg">
<mask id="path-1-inside-1_714_135867" fill="white">
<path d="M15.2628 11.2811C15.5554 10.8825 16.1213 10.7924 16.4747 11.1385C17.2449 11.8928 17.813 12.8354 18.1183 13.8796C18.5078 15.2117 18.4479 16.6351 17.9478 17.9298C17.4477 19.2244 16.5352 20.3185 15.3513 21.0428C14.1674 21.7672 12.7779 22.0816 11.3975 21.9375C10.0171 21.7934 8.72247 21.1988 7.71369 20.2455C6.7049 19.2923 6.03804 18.0334 5.81609 16.6634C5.59414 15.2933 5.82945 13.8883 6.48569 12.6653C7.00007 11.7067 7.75065 10.9017 8.66 10.3227C9.07718 10.0571 9.61228 10.2621 9.81629 10.7126C10.0203 11.1631 9.8133 11.6872 9.41166 11.9757C8.85431 12.3762 8.39197 12.9005 8.06379 13.5121C7.59356 14.3884 7.42494 15.3952 7.58398 16.377C7.74303 17.3587 8.22088 18.2608 8.94374 18.9438C9.6666 19.6269 10.5943 20.053 11.5834 20.1562C12.5726 20.2595 13.5682 20.0342 14.4166 19.5151C15.2649 18.9961 15.9188 18.2121 16.2771 17.2844C16.6355 16.3567 16.6785 15.3368 16.3993 14.3822C16.2046 13.716 15.8605 13.1075 15.3978 12.6006C15.0644 12.2353 14.9701 11.6798 15.2628 11.2811Z"/>
</mask>
<path d="M15.2628 11.2811C15.5554 10.8825 16.1213 10.7924 16.4747 11.1385C17.2449 11.8928 17.813 12.8354 18.1183 13.8796C18.5078 15.2117 18.4479 16.6351 17.9478 17.9298C17.4477 19.2244 16.5352 20.3185 15.3513 21.0428C14.1674 21.7672 12.7779 22.0816 11.3975 21.9375C10.0171 21.7934 8.72247 21.1988 7.71369 20.2455C6.7049 19.2923 6.03804 18.0334 5.81609 16.6634C5.59414 15.2933 5.82945 13.8883 6.48569 12.6653C7.00007 11.7067 7.75065 10.9017 8.66 10.3227C9.07718 10.0571 9.61228 10.2621 9.81629 10.7126C10.0203 11.1631 9.8133 11.6872 9.41166 11.9757C8.85431 12.3762 8.39197 12.9005 8.06379 13.5121C7.59356 14.3884 7.42494 15.3952 7.58398 16.377C7.74303 17.3587 8.22088 18.2608 8.94374 18.9438C9.6666 19.6269 10.5943 20.053 11.5834 20.1562C12.5726 20.2595 13.5682 20.0342 14.4166 19.5151C15.2649 18.9961 15.9188 18.2121 16.2771 17.2844C16.6355 16.3567 16.6785 15.3368 16.3993 14.3822C16.2046 13.716 15.8605 13.1075 15.3978 12.6006C15.0644 12.2353 14.9701 11.6798 15.2628 11.2811Z" fill="#D9D9D9" stroke="#0051EF" stroke-width="3.74444" mask="url(#path-1-inside-1_714_135867)"/>
<mask id="path-2-inside-2_714_135867" fill="white">
<path d="M13.7186 15.1423C13.368 15.491 12.795 15.4926 12.4993 15.0962C11.8547 14.2322 11.4388 13.2131 11.2982 12.1343C11.1189 10.7581 11.3977 9.36101 12.0916 8.15898C12.7855 6.95696 13.8558 6.01683 15.1373 5.4838C16.4188 4.95077 17.8401 4.8545 19.1818 5.20985C20.5234 5.5652 21.7108 6.35241 22.5604 7.44988C23.4101 8.54736 23.8747 9.89405 23.8826 11.2819C23.8905 12.6699 23.4413 14.0217 22.6042 15.1288C21.9481 15.9966 21.0823 16.6762 20.0945 17.1079C19.6413 17.3059 19.1443 17.0209 19.0122 16.5443C18.8801 16.0677 19.1655 15.5819 19.6069 15.3587C20.2193 15.0491 20.757 14.6024 21.1756 14.0487C21.7754 13.2554 22.0974 12.2867 22.0917 11.2922C22.086 10.2976 21.7531 9.33265 21.1443 8.54623C20.5354 7.75982 19.6846 7.19573 18.7232 6.9411C17.7619 6.68647 16.7434 6.75545 15.8251 7.1374C14.9068 7.51935 14.1399 8.19302 13.6426 9.05435C13.1454 9.91568 12.9456 10.9168 13.0741 11.903C13.1638 12.5912 13.4099 13.2455 13.7888 13.8177C14.0618 14.2301 14.0693 14.7935 13.7186 15.1423Z"/>
</mask>
<path d="M13.7186 15.1423C13.368 15.491 12.795 15.4926 12.4993 15.0962C11.8547 14.2322 11.4388 13.2131 11.2982 12.1343C11.1189 10.7581 11.3977 9.36101 12.0916 8.15898C12.7855 6.95696 13.8558 6.01683 15.1373 5.4838C16.4188 4.95077 17.8401 4.8545 19.1818 5.20985C20.5234 5.5652 21.7108 6.35241 22.5604 7.44988C23.4101 8.54736 23.8747 9.89405 23.8826 11.2819C23.8905 12.6699 23.4413 14.0217 22.6042 15.1288C21.9481 15.9966 21.0823 16.6762 20.0945 17.1079C19.6413 17.3059 19.1443 17.0209 19.0122 16.5443C18.8801 16.0677 19.1655 15.5819 19.6069 15.3587C20.2193 15.0491 20.757 14.6024 21.1756 14.0487C21.7754 13.2554 22.0974 12.2867 22.0917 11.2922C22.086 10.2976 21.7531 9.33265 21.1443 8.54623C20.5354 7.75982 19.6846 7.19573 18.7232 6.9411C17.7619 6.68647 16.7434 6.75545 15.8251 7.1374C14.9068 7.51935 14.1399 8.19302 13.6426 9.05435C13.1454 9.91568 12.9456 10.9168 13.0741 11.903C13.1638 12.5912 13.4099 13.2455 13.7888 13.8177C14.0618 14.2301 14.0693 14.7935 13.7186 15.1423Z" fill="#D9D9D9" stroke="#0051EF" stroke-width="3.74444" mask="url(#path-2-inside-2_714_135867)"/>
</svg>
