<svg width="120" height="120" viewBox="0 0 120 120" fill="none" xmlns="http://www.w3.org/2000/svg">
<rect width="120" height="120" rx="60" fill="#0E0E0E"/>
<path d="M44.6667 85.7908C47.1097 87.2464 49.777 88.3647 52.6043 89.0815L52.2898 90.6715L53.8387 90.9779C55.8327 91.3724 57.893 91.5789 60 91.5789C62.107 91.5789 64.1673 91.3724 66.1613 90.9779L67.7102 90.6715L67.3957 89.0815C70.223 88.3647 72.8903 87.2464 75.3333 85.7908L76.2348 87.1374L77.5469 86.259C80.9899 83.954 83.954 80.9899 86.259 77.5469L87.1374 76.2348L85.7908 75.3333C87.2464 72.8903 88.3647 70.223 89.0815 67.3957L90.6715 67.7102L90.9779 66.1613C91.3724 64.1673 91.5789 62.107 91.5789 60C91.5789 57.893 91.3724 55.8327 90.9779 53.8387L90.6715 52.2898L89.0815 52.6043C88.3647 49.777 87.2464 47.1097 85.7908 44.6667L87.1374 43.7652L86.259 42.4531C83.954 39.0101 80.9899 36.046 77.5469 33.741L76.2348 32.8626L75.3333 34.2092C72.8903 32.7536 70.223 31.6353 67.3957 30.9185L67.7102 29.3285L66.1613 29.0221C64.1673 28.6276 62.107 28.4211 60 28.4211C57.893 28.4211 55.8327 28.6276 53.8387 29.0221L52.2898 29.3285L52.6043 30.9185C49.777 31.6353 47.1097 32.7536 44.6667 34.2092L43.7652 32.8626L42.4531 33.741C39.0101 36.046 36.046 39.0101 33.741 42.4531L32.8626 43.7652L34.2092 44.6667C32.7536 47.1097 31.6353 49.777 30.9185 52.6043L29.3285 52.2898L29.0221 53.8387C28.6276 55.8327 28.4211 57.893 28.4211 60C28.4211 62.107 28.6276 64.1673 29.0221 66.1613L29.3285 67.7102L30.9185 67.3957C31.6353 70.223 32.7536 72.8903 34.2092 75.3333L32.8626 76.2348L33.741 77.5469C36.046 80.9899 39.0101 83.954 42.4531 86.259L43.7652 87.1374L44.6667 85.7908Z" stroke="white" stroke-width="3.15789" stroke-linecap="square" stroke-dasharray="14.21 14.21"/>
<path d="M60.0006 83.6843C73.081 83.6843 83.6848 73.0806 83.6848 60.0001C83.6848 46.9197 73.081 36.3159 60.0006 36.3159C46.9202 36.3159 36.3164 46.9197 36.3164 60.0001C36.3164 73.0806 46.9202 83.6843 60.0006 83.6843Z" fill="white"/>
<path d="M59.9992 53.6843C61.0439 53.6843 61.8917 54.5463 61.8917 55.6035V58.0798H64.4246C65.4671 58.0798 66.3171 58.9418 66.3171 59.999C66.3171 61.0562 65.4671 61.9182 64.4246 61.9182H61.8917V64.3967C61.8917 65.4539 61.0439 66.3159 59.9992 66.3159C58.9566 66.3159 58.1066 65.4539 58.1066 64.3967V61.9182H55.5781C54.5334 61.9182 53.6855 61.0562 53.6855 59.999C53.6855 58.9418 54.5334 58.0798 55.5781 58.0798H58.1066V55.6035C58.1066 54.5463 58.9566 53.6843 59.9992 53.6843Z" fill="#0E0E0E"/>
</svg>
