<svg width="32" height="32" viewBox="0 0 32 32" fill="none" xmlns="http://www.w3.org/2000/svg">
<path d="M14.7992 22.4H17.1992V14.4H14.7992V22.4ZM15.9922 12C16.3302 12 16.6159 11.8856 16.8492 11.657C17.0826 11.4283 17.1992 11.145 17.1992 10.807C17.1992 10.469 17.0849 10.1833 16.8562 9.94995C16.6276 9.71662 16.3442 9.59995 16.0062 9.59995C15.6682 9.59995 15.3826 9.71428 15.1492 9.94295C14.9159 10.1716 14.7992 10.455 14.7992 10.793C14.7992 11.131 14.9136 11.4166 15.1422 11.65C15.3709 11.8833 15.6542 12 15.9922 12ZM16.0086 28.8C14.2468 28.8 12.5881 28.4666 11.0326 27.8C9.477 27.1333 8.11589 26.2166 6.94922 25.05C5.78255 23.8833 4.86589 22.5226 4.19922 20.968C3.53255 19.4133 3.19922 17.7522 3.19922 15.9846C3.19922 14.2171 3.53255 12.5611 4.19922 11.0166C4.86589 9.47217 5.78255 8.11662 6.94922 6.94995C8.11589 5.78328 9.47655 4.86662 11.0312 4.19995C12.5859 3.53328 14.247 3.19995 16.0146 3.19995C17.7821 3.19995 19.4381 3.53328 20.9826 4.19995C22.527 4.86662 23.8826 5.78328 25.0492 6.94995C26.2159 8.11662 27.1326 9.47462 27.7992 11.024C28.4659 12.5735 28.7992 14.2291 28.7992 15.9906C28.7992 17.7524 28.4659 19.4111 27.7992 20.9666C27.1326 22.5222 26.2159 23.8833 25.0492 25.05C23.8826 26.2166 22.5246 27.1333 20.9752 27.8C19.4257 28.4666 17.7701 28.8 16.0086 28.8ZM15.9992 26.4C18.8881 26.4 21.3437 25.3888 23.3659 23.3666C25.3881 21.3444 26.3992 18.8888 26.3992 16C26.3992 13.1111 25.3881 10.6555 23.3659 8.63328C21.3437 6.61106 18.8881 5.59995 15.9992 5.59995C13.1103 5.59995 10.6548 6.61106 8.63255 8.63328C6.61033 10.6555 5.59922 13.1111 5.59922 16C5.59922 18.8888 6.61033 21.3444 8.63255 23.3666C10.6548 25.3888 13.1103 26.4 15.9992 26.4Z" fill="#0E0E0E"/>
</svg>
